<?xml version="1.0" encoding="utf-8" standalone="no"?>
<!DOCTYPE svg PUBLIC "-//W3C//DTD SVG 1.1//EN"
  "http://www.w3.org/Graphics/SVG/1.1/DTD/svg11.dtd">
<!-- Created with matplotlib (https://matplotlib.org/) -->
<svg height="288pt" version="1.1" viewBox="0 0 432 288" width="432pt" xmlns="http://www.w3.org/2000/svg" xmlns:xlink="http://www.w3.org/1999/xlink">
 <defs>
  <style type="text/css">
*{stroke-linecap:butt;stroke-linejoin:round;}
  </style>
 </defs>
 <g id="figure_1">
  <g id="patch_1">
   <path d="M 0 288 
L 432 288 
L 432 0 
L 0 0 
z
" style="fill:none;"/>
  </g>
  <g id="axes_1">
   <g id="patch_2">
    <path d="M 54 252 
L 388.8 252 
L 388.8 34.56 
L 54 34.56 
z
" style="fill:none;"/>
   </g>
   <g id="matplotlib.axis_1">
    <g id="xtick_1">
     <g id="line2d_1">
      <defs>
       <path d="M 0 0 
L 0 3.5 
" id="m729e7753f2" style="stroke:#000000;stroke-width:0.8;"/>
      </defs>
      <g>
       <use style="stroke:#000000;stroke-width:0.8;" x="69.218182" xlink:href="#m729e7753f2" y="252"/>
      </g>
     </g>
     <g id="text_1">
      <!-- 0 -->
      <defs>
       <path d="M 31.78125 66.40625 
Q 24.171875 66.40625 20.328125 58.90625 
Q 16.5 51.421875 16.5 36.375 
Q 16.5 21.390625 20.328125 13.890625 
Q 24.171875 6.390625 31.78125 6.390625 
Q 39.453125 6.390625 43.28125 13.890625 
Q 47.125 21.390625 47.125 36.375 
Q 47.125 51.421875 43.28125 58.90625 
Q 39.453125 66.40625 31.78125 66.40625 
z
M 31.78125 74.21875 
Q 44.046875 74.21875 50.515625 64.515625 
Q 56.984375 54.828125 56.984375 36.375 
Q 56.984375 17.96875 50.515625 8.265625 
Q 44.046875 -1.421875 31.78125 -1.421875 
Q 19.53125 -1.421875 13.0625 8.265625 
Q 6.59375 17.96875 6.59375 36.375 
Q 6.59375 54.828125 13.0625 64.515625 
Q 19.53125 74.21875 31.78125 74.21875 
z
" id="DejaVuSans-48"/>
      </defs>
      <g transform="translate(66.036932 266.598437)scale(0.1 -0.1)">
       <use xlink:href="#DejaVuSans-48"/>
      </g>
     </g>
    </g>
    <g id="xtick_2">
     <g id="line2d_2">
      <g>
       <use style="stroke:#000000;stroke-width:0.8;" x="130.090909" xlink:href="#m729e7753f2" y="252"/>
      </g>
     </g>
     <g id="text_2">
      <!-- 2000 -->
      <defs>
       <path d="M 19.1875 8.296875 
L 53.609375 8.296875 
L 53.609375 0 
L 7.328125 0 
L 7.328125 8.296875 
Q 12.9375 14.109375 22.625 23.890625 
Q 32.328125 33.6875 34.8125 36.53125 
Q 39.546875 41.84375 41.421875 45.53125 
Q 43.3125 49.21875 43.3125 52.78125 
Q 43.3125 58.59375 39.234375 62.25 
Q 35.15625 65.921875 28.609375 65.921875 
Q 23.96875 65.921875 18.8125 64.3125 
Q 13.671875 62.703125 7.8125 59.421875 
L 7.8125 69.390625 
Q 13.765625 71.78125 18.9375 73 
Q 24.125 74.21875 28.421875 74.21875 
Q 39.75 74.21875 46.484375 68.546875 
Q 53.21875 62.890625 53.21875 53.421875 
Q 53.21875 48.921875 51.53125 44.890625 
Q 49.859375 40.875 45.40625 35.40625 
Q 44.1875 33.984375 37.640625 27.21875 
Q 31.109375 20.453125 19.1875 8.296875 
z
" id="DejaVuSans-50"/>
      </defs>
      <g transform="translate(117.365909 266.598437)scale(0.1 -0.1)">
       <use xlink:href="#DejaVuSans-50"/>
       <use x="63.623047" xlink:href="#DejaVuSans-48"/>
       <use x="127.246094" xlink:href="#DejaVuSans-48"/>
       <use x="190.869141" xlink:href="#DejaVuSans-48"/>
      </g>
     </g>
    </g>
    <g id="xtick_3">
     <g id="line2d_3">
      <g>
       <use style="stroke:#000000;stroke-width:0.8;" x="190.963636" xlink:href="#m729e7753f2" y="252"/>
      </g>
     </g>
     <g id="text_3">
      <!-- 4000 -->
      <defs>
       <path d="M 37.796875 64.3125 
L 12.890625 25.390625 
L 37.796875 25.390625 
z
M 35.203125 72.90625 
L 47.609375 72.90625 
L 47.609375 25.390625 
L 58.015625 25.390625 
L 58.015625 17.1875 
L 47.609375 17.1875 
L 47.609375 0 
L 37.796875 0 
L 37.796875 17.1875 
L 4.890625 17.1875 
L 4.890625 26.703125 
z
" id="DejaVuSans-52"/>
      </defs>
      <g transform="translate(178.238636 266.598437)scale(0.1 -0.1)">
       <use xlink:href="#DejaVuSans-52"/>
       <use x="63.623047" xlink:href="#DejaVuSans-48"/>
       <use x="127.246094" xlink:href="#DejaVuSans-48"/>
       <use x="190.869141" xlink:href="#DejaVuSans-48"/>
      </g>
     </g>
    </g>
    <g id="xtick_4">
     <g id="line2d_4">
      <g>
       <use style="stroke:#000000;stroke-width:0.8;" x="251.836364" xlink:href="#m729e7753f2" y="252"/>
      </g>
     </g>
     <g id="text_4">
      <!-- 6000 -->
      <defs>
       <path d="M 33.015625 40.375 
Q 26.375 40.375 22.484375 35.828125 
Q 18.609375 31.296875 18.609375 23.390625 
Q 18.609375 15.53125 22.484375 10.953125 
Q 26.375 6.390625 33.015625 6.390625 
Q 39.65625 6.390625 43.53125 10.953125 
Q 47.40625 15.53125 47.40625 23.390625 
Q 47.40625 31.296875 43.53125 35.828125 
Q 39.65625 40.375 33.015625 40.375 
z
M 52.59375 71.296875 
L 52.59375 62.3125 
Q 48.875 64.0625 45.09375 64.984375 
Q 41.3125 65.921875 37.59375 65.921875 
Q 27.828125 65.921875 22.671875 59.328125 
Q 17.53125 52.734375 16.796875 39.40625 
Q 19.671875 43.65625 24.015625 45.921875 
Q 28.375 48.1875 33.59375 48.1875 
Q 44.578125 48.1875 50.953125 41.515625 
Q 57.328125 34.859375 57.328125 23.390625 
Q 57.328125 12.15625 50.6875 5.359375 
Q 44.046875 -1.421875 33.015625 -1.421875 
Q 20.359375 -1.421875 13.671875 8.265625 
Q 6.984375 17.96875 6.984375 36.375 
Q 6.984375 53.65625 15.1875 63.9375 
Q 23.390625 74.21875 37.203125 74.21875 
Q 40.921875 74.21875 44.703125 73.484375 
Q 48.484375 72.75 52.59375 71.296875 
z
" id="DejaVuSans-54"/>
      </defs>
      <g transform="translate(239.111364 266.598437)scale(0.1 -0.1)">
       <use xlink:href="#DejaVuSans-54"/>
       <use x="63.623047" xlink:href="#DejaVuSans-48"/>
       <use x="127.246094" xlink:href="#DejaVuSans-48"/>
       <use x="190.869141" xlink:href="#DejaVuSans-48"/>
      </g>
     </g>
    </g>
    <g id="xtick_5">
     <g id="line2d_5">
      <g>
       <use style="stroke:#000000;stroke-width:0.8;" x="312.709091" xlink:href="#m729e7753f2" y="252"/>
      </g>
     </g>
     <g id="text_5">
      <!-- 8000 -->
      <defs>
       <path d="M 31.78125 34.625 
Q 24.75 34.625 20.71875 30.859375 
Q 16.703125 27.09375 16.703125 20.515625 
Q 16.703125 13.921875 20.71875 10.15625 
Q 24.75 6.390625 31.78125 6.390625 
Q 38.8125 6.390625 42.859375 10.171875 
Q 46.921875 13.96875 46.921875 20.515625 
Q 46.921875 27.09375 42.890625 30.859375 
Q 38.875 34.625 31.78125 34.625 
z
M 21.921875 38.8125 
Q 15.578125 40.375 12.03125 44.71875 
Q 8.5 49.078125 8.5 55.328125 
Q 8.5 64.0625 14.71875 69.140625 
Q 20.953125 74.21875 31.78125 74.21875 
Q 42.671875 74.21875 48.875 69.140625 
Q 55.078125 64.0625 55.078125 55.328125 
Q 55.078125 49.078125 51.53125 44.71875 
Q 48 40.375 41.703125 38.8125 
Q 48.828125 37.15625 52.796875 32.3125 
Q 56.78125 27.484375 56.78125 20.515625 
Q 56.78125 9.90625 50.3125 4.234375 
Q 43.84375 -1.421875 31.78125 -1.421875 
Q 19.734375 -1.421875 13.25 4.234375 
Q 6.78125 9.90625 6.78125 20.515625 
Q 6.78125 27.484375 10.78125 32.3125 
Q 14.796875 37.15625 21.921875 38.8125 
z
M 18.3125 54.390625 
Q 18.3125 48.734375 21.84375 45.5625 
Q 25.390625 42.390625 31.78125 42.390625 
Q 38.140625 42.390625 41.71875 45.5625 
Q 45.3125 48.734375 45.3125 54.390625 
Q 45.3125 60.0625 41.71875 63.234375 
Q 38.140625 66.40625 31.78125 66.40625 
Q 25.390625 66.40625 21.84375 63.234375 
Q 18.3125 60.0625 18.3125 54.390625 
z
" id="DejaVuSans-56"/>
      </defs>
      <g transform="translate(299.984091 266.598437)scale(0.1 -0.1)">
       <use xlink:href="#DejaVuSans-56"/>
       <use x="63.623047" xlink:href="#DejaVuSans-48"/>
       <use x="127.246094" xlink:href="#DejaVuSans-48"/>
       <use x="190.869141" xlink:href="#DejaVuSans-48"/>
      </g>
     </g>
    </g>
    <g id="xtick_6">
     <g id="line2d_6">
      <g>
       <use style="stroke:#000000;stroke-width:0.8;" x="373.581818" xlink:href="#m729e7753f2" y="252"/>
      </g>
     </g>
     <g id="text_6">
      <!-- 10000 -->
      <defs>
       <path d="M 12.40625 8.296875 
L 28.515625 8.296875 
L 28.515625 63.921875 
L 10.984375 60.40625 
L 10.984375 69.390625 
L 28.421875 72.90625 
L 38.28125 72.90625 
L 38.28125 8.296875 
L 54.390625 8.296875 
L 54.390625 0 
L 12.40625 0 
z
" id="DejaVuSans-49"/>
      </defs>
      <g transform="translate(357.675568 266.598437)scale(0.1 -0.1)">
       <use xlink:href="#DejaVuSans-49"/>
       <use x="63.623047" xlink:href="#DejaVuSans-48"/>
       <use x="127.246094" xlink:href="#DejaVuSans-48"/>
       <use x="190.869141" xlink:href="#DejaVuSans-48"/>
       <use x="254.492188" xlink:href="#DejaVuSans-48"/>
      </g>
     </g>
    </g>
    <g id="text_7">
     <!-- Iteration -->
     <defs>
      <path d="M 9.8125 72.90625 
L 19.671875 72.90625 
L 19.671875 0 
L 9.8125 0 
z
" id="DejaVuSans-73"/>
      <path d="M 18.3125 70.21875 
L 18.3125 54.6875 
L 36.8125 54.6875 
L 36.8125 47.703125 
L 18.3125 47.703125 
L 18.3125 18.015625 
Q 18.3125 11.328125 20.140625 9.421875 
Q 21.96875 7.515625 27.59375 7.515625 
L 36.8125 7.515625 
L 36.8125 0 
L 27.59375 0 
Q 17.1875 0 13.234375 3.875 
Q 9.28125 7.765625 9.28125 18.015625 
L 9.28125 47.703125 
L 2.6875 47.703125 
L 2.6875 54.6875 
L 9.28125 54.6875 
L 9.28125 70.21875 
z
" id="DejaVuSans-116"/>
      <path d="M 56.203125 29.59375 
L 56.203125 25.203125 
L 14.890625 25.203125 
Q 15.484375 15.921875 20.484375 11.0625 
Q 25.484375 6.203125 34.421875 6.203125 
Q 39.59375 6.203125 44.453125 7.46875 
Q 49.3125 8.734375 54.109375 11.28125 
L 54.109375 2.78125 
Q 49.265625 0.734375 44.1875 -0.34375 
Q 39.109375 -1.421875 33.890625 -1.421875 
Q 20.796875 -1.421875 13.15625 6.1875 
Q 5.515625 13.8125 5.515625 26.8125 
Q 5.515625 40.234375 12.765625 48.109375 
Q 20.015625 56 32.328125 56 
Q 43.359375 56 49.78125 48.890625 
Q 56.203125 41.796875 56.203125 29.59375 
z
M 47.21875 32.234375 
Q 47.125 39.59375 43.09375 43.984375 
Q 39.0625 48.390625 32.421875 48.390625 
Q 24.90625 48.390625 20.390625 44.140625 
Q 15.875 39.890625 15.1875 32.171875 
z
" id="DejaVuSans-101"/>
      <path d="M 41.109375 46.296875 
Q 39.59375 47.171875 37.8125 47.578125 
Q 36.03125 48 33.890625 48 
Q 26.265625 48 22.1875 43.046875 
Q 18.109375 38.09375 18.109375 28.8125 
L 18.109375 0 
L 9.078125 0 
L 9.078125 54.6875 
L 18.109375 54.6875 
L 18.109375 46.1875 
Q 20.953125 51.171875 25.484375 53.578125 
Q 30.03125 56 36.53125 56 
Q 37.453125 56 38.578125 55.875 
Q 39.703125 55.765625 41.0625 55.515625 
z
" id="DejaVuSans-114"/>
      <path d="M 34.28125 27.484375 
Q 23.390625 27.484375 19.1875 25 
Q 14.984375 22.515625 14.984375 16.5 
Q 14.984375 11.71875 18.140625 8.90625 
Q 21.296875 6.109375 26.703125 6.109375 
Q 34.1875 6.109375 38.703125 11.40625 
Q 43.21875 16.703125 43.21875 25.484375 
L 43.21875 27.484375 
z
M 52.203125 31.203125 
L 52.203125 0 
L 43.21875 0 
L 43.21875 8.296875 
Q 40.140625 3.328125 35.546875 0.953125 
Q 30.953125 -1.421875 24.3125 -1.421875 
Q 15.921875 -1.421875 10.953125 3.296875 
Q 6 8.015625 6 15.921875 
Q 6 25.140625 12.171875 29.828125 
Q 18.359375 34.515625 30.609375 34.515625 
L 43.21875 34.515625 
L 43.21875 35.40625 
Q 43.21875 41.609375 39.140625 45 
Q 35.0625 48.390625 27.6875 48.390625 
Q 23 48.390625 18.546875 47.265625 
Q 14.109375 46.140625 10.015625 43.890625 
L 10.015625 52.203125 
Q 14.9375 54.109375 19.578125 55.046875 
Q 24.21875 56 28.609375 56 
Q 40.484375 56 46.34375 49.84375 
Q 52.203125 43.703125 52.203125 31.203125 
z
" id="DejaVuSans-97"/>
      <path d="M 9.421875 54.6875 
L 18.40625 54.6875 
L 18.40625 0 
L 9.421875 0 
z
M 9.421875 75.984375 
L 18.40625 75.984375 
L 18.40625 64.59375 
L 9.421875 64.59375 
z
" id="DejaVuSans-105"/>
      <path d="M 30.609375 48.390625 
Q 23.390625 48.390625 19.1875 42.75 
Q 14.984375 37.109375 14.984375 27.296875 
Q 14.984375 17.484375 19.15625 11.84375 
Q 23.34375 6.203125 30.609375 6.203125 
Q 37.796875 6.203125 41.984375 11.859375 
Q 46.1875 17.53125 46.1875 27.296875 
Q 46.1875 37.015625 41.984375 42.703125 
Q 37.796875 48.390625 30.609375 48.390625 
z
M 30.609375 56 
Q 42.328125 56 49.015625 48.375 
Q 55.71875 40.765625 55.71875 27.296875 
Q 55.71875 13.875 49.015625 6.21875 
Q 42.328125 -1.421875 30.609375 -1.421875 
Q 18.84375 -1.421875 12.171875 6.21875 
Q 5.515625 13.875 5.515625 27.296875 
Q 5.515625 40.765625 12.171875 48.375 
Q 18.84375 56 30.609375 56 
z
" id="DejaVuSans-111"/>
      <path d="M 54.890625 33.015625 
L 54.890625 0 
L 45.90625 0 
L 45.90625 32.71875 
Q 45.90625 40.484375 42.875 44.328125 
Q 39.84375 48.1875 33.796875 48.1875 
Q 26.515625 48.1875 22.3125 43.546875 
Q 18.109375 38.921875 18.109375 30.90625 
L 18.109375 0 
L 9.078125 0 
L 9.078125 54.6875 
L 18.109375 54.6875 
L 18.109375 46.1875 
Q 21.34375 51.125 25.703125 53.5625 
Q 30.078125 56 35.796875 56 
Q 45.21875 56 50.046875 50.171875 
Q 54.890625 44.34375 54.890625 33.015625 
z
" id="DejaVuSans-110"/>
     </defs>
     <g transform="translate(200.191406 280.276563)scale(0.1 -0.1)">
      <use xlink:href="#DejaVuSans-73"/>
      <use x="29.492188" xlink:href="#DejaVuSans-116"/>
      <use x="68.701172" xlink:href="#DejaVuSans-101"/>
      <use x="130.224609" xlink:href="#DejaVuSans-114"/>
      <use x="171.337891" xlink:href="#DejaVuSans-97"/>
      <use x="232.617188" xlink:href="#DejaVuSans-116"/>
      <use x="271.826172" xlink:href="#DejaVuSans-105"/>
      <use x="299.609375" xlink:href="#DejaVuSans-111"/>
      <use x="360.791016" xlink:href="#DejaVuSans-110"/>
     </g>
    </g>
   </g>
   <g id="matplotlib.axis_2">
    <g id="ytick_1">
     <g id="line2d_7">
      <defs>
       <path d="M 0 0 
L -3.5 0 
" id="mc7ba10f48c" style="stroke:#000000;stroke-width:0.8;"/>
      </defs>
      <g>
       <use style="stroke:#000000;stroke-width:0.8;" x="54" xlink:href="#mc7ba10f48c" y="242.116364"/>
      </g>
     </g>
     <g id="text_8">
      <!-- 0.0 -->
      <defs>
       <path d="M 10.6875 12.40625 
L 21 12.40625 
L 21 0 
L 10.6875 0 
z
" id="DejaVuSans-46"/>
      </defs>
      <g transform="translate(31.096875 245.915582)scale(0.1 -0.1)">
       <use xlink:href="#DejaVuSans-48"/>
       <use x="63.623047" xlink:href="#DejaVuSans-46"/>
       <use x="95.410156" xlink:href="#DejaVuSans-48"/>
      </g>
     </g>
    </g>
    <g id="ytick_2">
     <g id="line2d_8">
      <g>
       <use style="stroke:#000000;stroke-width:0.8;" x="54" xlink:href="#mc7ba10f48c" y="202.581818"/>
      </g>
     </g>
     <g id="text_9">
      <!-- 0.2 -->
      <g transform="translate(31.096875 206.381037)scale(0.1 -0.1)">
       <use xlink:href="#DejaVuSans-48"/>
       <use x="63.623047" xlink:href="#DejaVuSans-46"/>
       <use x="95.410156" xlink:href="#DejaVuSans-50"/>
      </g>
     </g>
    </g>
    <g id="ytick_3">
     <g id="line2d_9">
      <g>
       <use style="stroke:#000000;stroke-width:0.8;" x="54" xlink:href="#mc7ba10f48c" y="163.047273"/>
      </g>
     </g>
     <g id="text_10">
      <!-- 0.4 -->
      <g transform="translate(31.096875 166.846491)scale(0.1 -0.1)">
       <use xlink:href="#DejaVuSans-48"/>
       <use x="63.623047" xlink:href="#DejaVuSans-46"/>
       <use x="95.410156" xlink:href="#DejaVuSans-52"/>
      </g>
     </g>
    </g>
    <g id="ytick_4">
     <g id="line2d_10">
      <g>
       <use style="stroke:#000000;stroke-width:0.8;" x="54" xlink:href="#mc7ba10f48c" y="123.512727"/>
      </g>
     </g>
     <g id="text_11">
      <!-- 0.6 -->
      <g transform="translate(31.096875 127.311946)scale(0.1 -0.1)">
       <use xlink:href="#DejaVuSans-48"/>
       <use x="63.623047" xlink:href="#DejaVuSans-46"/>
       <use x="95.410156" xlink:href="#DejaVuSans-54"/>
      </g>
     </g>
    </g>
    <g id="ytick_5">
     <g id="line2d_11">
      <g>
       <use style="stroke:#000000;stroke-width:0.8;" x="54" xlink:href="#mc7ba10f48c" y="83.978182"/>
      </g>
     </g>
     <g id="text_12">
      <!-- 0.8 -->
      <g transform="translate(31.096875 87.777401)scale(0.1 -0.1)">
       <use xlink:href="#DejaVuSans-48"/>
       <use x="63.623047" xlink:href="#DejaVuSans-46"/>
       <use x="95.410156" xlink:href="#DejaVuSans-56"/>
      </g>
     </g>
    </g>
    <g id="ytick_6">
     <g id="line2d_12">
      <g>
       <use style="stroke:#000000;stroke-width:0.8;" x="54" xlink:href="#mc7ba10f48c" y="44.443636"/>
      </g>
     </g>
     <g id="text_13">
      <!-- 1.0 -->
      <g transform="translate(31.096875 48.242855)scale(0.1 -0.1)">
       <use xlink:href="#DejaVuSans-49"/>
       <use x="63.623047" xlink:href="#DejaVuSans-46"/>
       <use x="95.410156" xlink:href="#DejaVuSans-48"/>
      </g>
     </g>
    </g>
    <g id="text_14">
     <!-- Probability -->
     <defs>
      <path d="M 19.671875 64.796875 
L 19.671875 37.40625 
L 32.078125 37.40625 
Q 38.96875 37.40625 42.71875 40.96875 
Q 46.484375 44.53125 46.484375 51.125 
Q 46.484375 57.671875 42.71875 61.234375 
Q 38.96875 64.796875 32.078125 64.796875 
z
M 9.8125 72.90625 
L 32.078125 72.90625 
Q 44.34375 72.90625 50.609375 67.359375 
Q 56.890625 61.8125 56.890625 51.125 
Q 56.890625 40.328125 50.609375 34.8125 
Q 44.34375 29.296875 32.078125 29.296875 
L 19.671875 29.296875 
L 19.671875 0 
L 9.8125 0 
z
" id="DejaVuSans-80"/>
      <path d="M 48.6875 27.296875 
Q 48.6875 37.203125 44.609375 42.84375 
Q 40.53125 48.484375 33.40625 48.484375 
Q 26.265625 48.484375 22.1875 42.84375 
Q 18.109375 37.203125 18.109375 27.296875 
Q 18.109375 17.390625 22.1875 11.75 
Q 26.265625 6.109375 33.40625 6.109375 
Q 40.53125 6.109375 44.609375 11.75 
Q 48.6875 17.390625 48.6875 27.296875 
z
M 18.109375 46.390625 
Q 20.953125 51.265625 25.265625 53.625 
Q 29.59375 56 35.59375 56 
Q 45.5625 56 51.78125 48.09375 
Q 58.015625 40.1875 58.015625 27.296875 
Q 58.015625 14.40625 51.78125 6.484375 
Q 45.5625 -1.421875 35.59375 -1.421875 
Q 29.59375 -1.421875 25.265625 0.953125 
Q 20.953125 3.328125 18.109375 8.203125 
L 18.109375 0 
L 9.078125 0 
L 9.078125 75.984375 
L 18.109375 75.984375 
z
" id="DejaVuSans-98"/>
      <path d="M 9.421875 75.984375 
L 18.40625 75.984375 
L 18.40625 0 
L 9.421875 0 
z
" id="DejaVuSans-108"/>
      <path d="M 32.171875 -5.078125 
Q 28.375 -14.84375 24.75 -17.8125 
Q 21.140625 -20.796875 15.09375 -20.796875 
L 7.90625 -20.796875 
L 7.90625 -13.28125 
L 13.1875 -13.28125 
Q 16.890625 -13.28125 18.9375 -11.515625 
Q 21 -9.765625 23.484375 -3.21875 
L 25.09375 0.875 
L 2.984375 54.6875 
L 12.5 54.6875 
L 29.59375 11.921875 
L 46.6875 54.6875 
L 56.203125 54.6875 
z
" id="DejaVuSans-121"/>
     </defs>
     <g transform="translate(25.017187 169.708906)rotate(-90)scale(0.1 -0.1)">
      <use xlink:href="#DejaVuSans-80"/>
      <use x="58.552734" xlink:href="#DejaVuSans-114"/>
      <use x="97.416016" xlink:href="#DejaVuSans-111"/>
      <use x="158.597656" xlink:href="#DejaVuSans-98"/>
      <use x="222.074219" xlink:href="#DejaVuSans-97"/>
      <use x="283.353516" xlink:href="#DejaVuSans-98"/>
      <use x="346.830078" xlink:href="#DejaVuSans-105"/>
      <use x="374.613281" xlink:href="#DejaVuSans-108"/>
      <use x="402.396484" xlink:href="#DejaVuSans-105"/>
      <use x="430.179688" xlink:href="#DejaVuSans-116"/>
      <use x="469.388672" xlink:href="#DejaVuSans-121"/>
     </g>
    </g>
   </g>
   <g id="line2d_13">
    <path clip-path="url(#p12f2944371)" d="M 69.218182 176.225455 
L 69.339927 242.116364 
L 69.674727 242.116364 
L 69.979091 163.047273 
L 70.283455 129.160519 
L 70.313891 132.298182 
L 70.374764 127.674258 
L 70.648691 111.73648 
L 70.679127 114.452727 
L 70.74 111.652364 
L 70.861745 106.673939 
L 70.892182 109.136529 
L 71.135673 122.885195 
L 71.166109 121.659545 
L 71.196545 123.512727 
L 71.592218 143.28 
L 71.622655 142.028907 
L 71.653091 143.28 
L 72.018327 156.1717 
L 72.048764 154.970323 
L 72.657491 170.394401 
L 72.961855 176.225455 
L 73.022727 175.698327 
L 73.0836 175.187802 
L 73.235782 177.722975 
L 73.296655 175.733731 
L 73.357527 176.709947 
L 73.692327 180.259592 
L 73.783636 180.178909 
L 73.996691 182.940452 
L 74.270618 184.957985 
L 74.788036 190.267779 
L 74.818473 189.475257 
L 74.879345 190.04129 
L 75.183709 192.698182 
L 75.214145 191.945621 
L 75.275018 192.449849 
L 76.157673 198.767081 
L 76.705527 201.93898 
L 76.735964 201.301347 
L 76.796836 201.629179 
L 77.466436 204.915961 
L 77.496873 204.325989 
L 77.557745 204.601831 
L 77.649055 205.008126 
L 77.679491 204.430556 
L 77.740364 204.69974 
L 78.349091 207.194182 
L 78.379527 206.653482 
L 78.470836 207.003445 
L 78.562145 207.346568 
L 78.592582 206.817662 
L 78.683891 207.158164 
L 79.4448 209.759221 
L 79.475236 209.26867 
L 79.566545 209.558503 
L 80.266582 211.621397 
L 80.327455 210.705355 
L 80.418764 210.961423 
L 80.479636 211.129828 
L 80.601382 209.875625 
L 80.662255 210.047118 
L 80.875309 210.63324 
L 81.1188 208.749612 
L 81.179673 207.913449 
L 81.270982 208.172562 
L 81.301418 208.258063 
L 81.423164 207.116953 
L 81.484036 207.290647 
L 81.514473 206.887561 
L 81.605782 207.147233 
L 81.636218 207.232941 
L 81.666655 206.834923 
L 81.757964 207.091827 
L 81.818836 207.261028 
L 82.001455 205.405714 
L 82.031891 205.492913 
L 82.153636 205.837604 
L 82.518873 202.310414 
L 82.579745 202.491762 
L 82.853673 199.757922 
L 82.884109 199.852262 
L 82.944982 200.039686 
L 83.371091 195.780176 
L 83.401527 195.87961 
L 83.431964 195.978618 
L 83.614582 194.892224 
L 83.645018 194.991853 
L 84.375491 188.530383 
L 85.075527 182.928369 
L 85.288582 181.841157 
L 85.319018 181.955099 
L 85.349455 181.695643 
L 85.410327 181.922789 
L 86.232109 175.63609 
L 86.262545 175.754805 
L 86.292982 175.520739 
L 86.323418 175.639236 
L 86.8104 172.691513 
L 86.840836 172.811418 
L 86.871273 172.590094 
L 87.510436 168.770244 
L 88.088727 165.597889 
L 88.849636 161.208457 
L 88.910509 161.458558 
L 88.940945 161.27798 
L 89.245309 159.802796 
L 89.275745 159.927703 
L 89.306182 160.052231 
L 89.336618 159.877332 
L 89.8236 157.733176 
L 90.097527 156.535023 
L 90.127964 156.659595 
L 90.1584 156.783805 
L 90.188836 156.620757 
L 91.041055 152.240061 
L 91.071491 152.365237 
L 91.101927 152.490064 
L 91.132364 152.34 
L 92.349818 146.661244 
L 92.380255 146.786678 
L 92.410691 146.652369 
L 92.654182 145.847178 
L 92.684618 145.972041 
L 92.715055 145.840528 
L 93.080291 144.540668 
L 93.1716 144.661449 
L 93.5064 143.52771 
L 93.536836 143.6511 
L 93.567273 143.527091 
L 93.749891 143.034748 
L 93.871636 143.28 
L 94.5108 141.020203 
L 94.541236 141.141713 
L 94.571673 141.025629 
L 94.693418 140.800235 
L 94.723855 140.921137 
L 94.754291 140.806146 
L 95.058655 139.903964 
L 95.149964 140.031857 
L 95.210836 139.807997 
L 95.241273 139.927656 
L 95.271709 140.047035 
L 95.302145 139.935479 
L 95.393455 139.602368 
L 95.423891 139.721432 
L 95.5152 139.848182 
L 95.789127 139.091059 
L 95.941309 139.452624 
L 96.1848 138.817862 
L 96.215236 138.93432 
L 96.245673 138.827912 
L 96.397855 138.520802 
L 96.428291 138.636681 
L 96.458727 138.531437 
L 96.580473 138.112804 
L 96.610909 138.228364 
L 96.702218 138.3546 
L 96.915273 137.849431 
L 97.128327 138.429797 
L 97.219636 138.12332 
L 97.250073 138.236233 
L 97.432691 138.695357 
L 97.463127 138.593793 
L 97.493564 138.705228 
L 97.676182 139.157414 
L 97.828364 138.863907 
L 97.889236 139.083127 
L 97.919673 138.982767 
L 98.041418 138.792182 
L 98.071855 138.901174 
L 98.102291 138.80164 
L 98.1936 138.711933 
L 98.376218 139.153221 
L 98.680582 138.379023 
L 98.711018 138.486079 
L 98.741455 138.389128 
L 98.893636 137.907357 
L 98.924073 138.014128 
L 99.045818 138.237328 
L 99.319745 137.383796 
L 99.350182 137.489587 
L 99.5328 137.722935 
L 99.593673 137.536003 
L 99.624109 137.640688 
L 99.8676 138.274385 
L 100.019782 138.006123 
L 100.2024 138.619739 
L 100.232836 138.527319 
L 100.263273 138.43508 
L 100.293709 138.536629 
L 100.476327 138.949293 
L 100.5372 138.765608 
L 100.567636 138.865949 
L 100.598073 138.966095 
L 100.628509 138.874503 
L 100.658945 138.783089 
L 100.689382 138.883024 
L 100.750255 139.082317 
L 100.780691 138.991055 
L 100.932873 138.727077 
L 100.993745 138.925141 
L 101.024182 138.834728 
L 101.054618 138.744488 
L 101.085055 138.84322 
L 101.237236 139.14616 
L 101.389418 138.885195 
L 101.511164 139.088071 
L 101.663345 138.829582 
L 101.906836 139.414891 
L 101.967709 139.238364 
L 101.998145 139.333887 
L 102.241636 139.909543 
L 102.302509 139.733893 
L 102.332945 139.827995 
L 102.454691 140.202677 
L 102.485127 140.115066 
L 102.515564 140.027615 
L 102.546 140.120847 
L 102.637309 140.219493 
L 102.667745 140.132345 
L 102.698182 140.225058 
L 102.911236 140.690791 
L 103.032982 140.52219 
L 103.337345 141.252135 
L 103.367782 141.165853 
L 103.398218 141.255747 
L 103.459091 141.435055 
L 103.489527 141.348917 
L 103.611273 141.180821 
L 103.824327 141.628381 
L 103.8852 141.457732 
L 103.915636 141.546029 
L 104.067818 141.812561 
L 104.250436 141.47673 
L 104.372182 141.825266 
L 104.402618 141.741025 
L 104.433055 141.656931 
L 104.463491 141.743683 
L 104.767855 142.433798 
L 104.828727 142.266294 
L 104.859164 142.351563 
L 104.920036 142.521665 
L 104.950473 142.438123 
L 105.102655 142.190201 
L 105.2244 142.360981 
L 105.254836 142.27828 
L 105.285273 142.362532 
L 105.5592 142.94889 
L 105.650509 142.86715 
L 105.954873 143.525658 
L 106.015745 143.361751 
L 106.046182 143.443366 
L 106.320109 144.009719 
L 106.350545 143.928107 
L 106.380982 144.008524 
L 107.050582 145.585917 
L 107.081018 145.504613 
L 107.111455 145.582212 
L 107.324509 145.964055 
L 107.354945 145.883033 
L 107.415818 146.036393 
L 107.446255 145.955507 
L 107.9028 146.934846 
L 107.933236 146.854271 
L 107.994109 147.003819 
L 108.176727 147.295227 
L 108.207164 147.214937 
L 108.268036 147.362874 
L 108.815891 148.521898 
L 108.846327 148.441961 
L 108.9072 148.585633 
L 108.937636 148.505831 
L 109.181127 148.925641 
L 109.394182 148.671074 
L 109.972473 149.849407 
L 110.002909 149.770746 
L 110.063782 149.90837 
L 110.489891 150.714594 
L 110.520327 150.636281 
L 110.5812 150.770909 
L 110.794255 151.094295 
L 110.824691 151.016277 
L 110.885564 151.149367 
L 111.2508 151.796674 
L 111.281236 151.718995 
L 111.342109 151.849627 
L 112.376945 153.874589 
L 112.468255 153.782668 
L 112.498691 153.844787 
L 113.016109 154.750238 
L 113.046545 154.673636 
L 113.107418 154.794916 
L 113.990073 156.382033 
L 114.020509 156.305988 
L 114.081382 156.42242 
L 115.724945 159.321504 
L 116.029309 159.731306 
L 116.059745 159.656396 
L 116.120618 159.763417 
L 116.577164 160.430269 
L 116.6076 160.355775 
L 116.668473 160.460664 
L 117.338073 161.471892 
L 117.368509 161.397917 
L 117.429382 161.499835 
L 118.738145 163.508955 
L 118.768582 163.435819 
L 118.829455 163.532359 
L 119.681673 164.740248 
L 119.712109 164.667736 
L 119.772982 164.760992 
L 121.173055 166.729752 
L 121.264364 166.630813 
L 121.2948 166.674931 
L 122.603564 168.411709 
L 122.725309 168.354527 
L 123.455782 169.237025 
L 123.547091 169.138029 
L 123.577527 169.17889 
L 124.064509 169.716808 
L 124.094945 169.647327 
L 124.155818 169.727625 
L 125.160218 170.919767 
L 125.190655 170.850992 
L 125.251527 170.928412 
L 125.616764 171.282747 
L 125.738509 171.222429 
L 126.499418 172.059132 
L 126.560291 171.92366 
L 126.621164 171.998095 
L 126.803782 172.115979 
L 126.834218 172.048535 
L 126.895091 172.122485 
L 127.442945 172.677747 
L 127.473382 172.61075 
L 127.534255 172.683302 
L 128.203855 173.369502 
L 128.234291 173.303011 
L 128.295164 173.373916 
L 128.9952 174.078297 
L 129.025636 174.012325 
L 129.086509 174.081571 
L 129.695236 174.666887 
L 129.725673 174.601383 
L 129.786545 174.669237 
L 129.938727 174.838278 
L 129.969164 174.77295 
L 129.9996 174.707687 
L 130.060473 174.775129 
L 130.730073 175.410377 
L 130.760509 175.345606 
L 130.821382 175.411585 
L 131.704036 176.257549 
L 131.734473 176.193375 
L 131.795345 176.257503 
L 131.825782 176.28952 
L 131.856218 176.225455 
L 131.886655 176.161452 
L 131.947527 176.225455 
L 132.860618 177.07627 
L 132.891055 177.01287 
L 132.951927 177.075051 
L 134.595491 178.618141 
L 134.625927 178.555705 
L 134.6868 178.614804 
L 134.778109 178.611476 
L 134.808545 178.549217 
L 134.869418 178.608158 
L 135.599891 179.216376 
L 135.630327 179.15461 
L 135.6912 179.212268 
L 135.812945 179.327266 
L 135.843382 179.265647 
L 135.904255 179.142578 
L 135.965127 179.20001 
L 136.391236 179.509551 
L 136.421673 179.448379 
L 136.482545 179.505093 
L 136.512982 179.533411 
L 136.543418 179.472339 
L 136.573855 179.411323 
L 136.634727 179.467942 
L 137.7 180.354618 
L 137.730436 180.29424 
L 137.791309 180.34912 
L 137.943491 180.398351 
L 137.973927 180.338167 
L 138.0348 180.392814 
L 139.556618 181.642708 
L 139.587055 181.583366 
L 139.647927 181.635685 
L 140.469709 182.248801 
L 140.500145 182.18996 
L 140.561018 182.241092 
L 140.987127 182.512755 
L 141.017564 182.454226 
L 141.078436 182.504766 
L 141.474109 182.831199 
L 141.504545 182.77293 
L 141.534982 182.714711 
L 141.595855 182.76467 
L 142.326327 183.275398 
L 142.356764 183.217623 
L 142.417636 183.266604 
L 144.0612 184.478566 
L 144.091636 184.421641 
L 144.152509 184.468509 
L 146.648291 186.248954 
L 147.470073 186.758774 
L 147.500509 186.703441 
L 147.561382 186.746497 
L 147.865745 186.884278 
L 147.896182 186.829175 
L 147.987491 186.893264 
L 148.504909 187.177763 
L 148.565782 187.068262 
L 148.657091 187.131536 
L 150.605018 188.373629 
L 150.635455 188.319823 
L 150.726764 188.380088 
L 151.852909 189.039598 
L 151.883345 188.98636 
L 151.974655 189.04498 
L 152.705127 189.437266 
L 152.735564 189.384426 
L 152.826873 189.442015 
L 154.592182 190.46071 
L 154.622618 190.408672 
L 154.713927 190.463896 
L 155.261782 190.722853 
L 155.383527 190.65582 
L 155.413964 190.673991 
L 156.083564 191.001272 
L 156.205309 191.003647 
L 157.331455 191.58862 
L 157.4532 191.590151 
L 159.218509 192.514347 
L 159.340255 192.514595 
L 162.536073 194.148813 
L 162.657818 194.146923 
L 165.884073 195.685679 
L 166.005818 195.681921 
L 167.314582 196.240099 
L 167.436327 196.235709 
L 168.775527 196.792443 
L 168.897273 196.787442 
L 172.701818 198.395807 
L 174.923673 199.257866 
L 175.045418 199.250319 
L 176.475927 199.709842 
L 181.193564 201.496472 
L 181.315309 201.486916 
L 182.745818 201.892878 
L 182.867564 201.883029 
L 185.515527 202.747365 
L 185.637273 202.736856 
L 190.567964 204.287347 
L 194.159455 205.326604 
L 194.2812 205.31431 
L 199.516255 206.746752 
L 199.638 206.733637 
L 203.168618 207.576412 
L 203.6556 207.612023 
L 203.777345 207.598529 
L 206.638364 208.22961 
L 206.760109 208.215863 
L 209.195018 208.719601 
L 209.3472 208.670001 
L 210.869018 208.944383 
L 211.051636 208.902255 
L 211.782109 208.988035 
L 211.934291 208.981204 
L 212.573455 209.045003 
L 212.725636 209.038149 
L 213.730036 209.184787 
L 213.882218 209.177841 
L 215.556218 209.472407 
L 215.7084 209.465248 
L 216.408436 209.538786 
L 216.591055 209.497506 
L 219.665127 210.084024 
L 219.817309 210.076443 
L 220.639091 210.170862 
L 220.791273 210.163242 
L 221.460873 210.224742 
L 221.613055 210.21711 
L 222.4044 210.303348 
L 222.556582 210.295684 
L 223.530545 210.418548 
L 223.682727 210.410827 
L 225.0828 210.618425 
L 225.234982 210.610586 
L 226.117636 210.711133 
L 226.269818 210.703256 
L 228.461236 211.059983 
L 228.613418 211.051889 
L 229.283018 211.106666 
L 229.4352 211.098569 
L 230.287418 211.150625 
L 230.4396 211.142536 
L 230.957018 211.130029 
L 231.1092 211.121994 
L 231.657055 211.115413 
L 231.870109 211.045052 
L 233.544109 211.251739 
L 234.000655 211.227718 
L 234.183273 211.18897 
L 235.339855 211.295643 
L 235.522473 211.257133 
L 236.1312 211.26154 
L 236.344255 211.192876 
L 237.348655 211.270257 
L 237.500836 211.2624 
L 237.866073 211.222196 
L 238.079127 211.154287 
L 238.322618 211.092134 
L 238.505236 211.054522 
L 238.992218 211.037306 
L 239.1444 211.029734 
L 239.874873 211.057032 
L 240.057491 211.019799 
L 240.605345 211.013889 
L 240.8184 210.947322 
L 241.366255 210.941669 
L 241.579309 210.875486 
L 242.127164 210.870085 
L 242.309782 210.833534 
L 242.948945 210.844732 
L 243.192436 210.75017 
L 243.618545 210.723313 
L 243.8316 210.65825 
L 244.440327 210.664528 
L 244.592509 210.657514 
L 245.018618 210.631095 
L 245.262109 210.53794 
L 245.718655 210.517361 
L 245.931709 210.453319 
L 246.296945 210.416698 
L 246.479564 210.381474 
L 246.966545 210.366874 
L 247.118727 210.360215 
L 247.423091 210.313168 
L 247.636145 210.249982 
L 247.940509 210.20326 
L 248.153564 210.140388 
L 248.427491 210.088547 
L 248.640545 210.025982 
L 248.975345 209.985341 
L 249.127527 209.979079 
L 249.431891 209.9332 
L 249.736255 209.787491 
L 249.918873 209.720277 
L 250.223236 209.575318 
L 250.801527 209.579552 
L 250.953709 209.573692 
L 251.258073 209.528952 
L 251.501564 209.440458 
L 251.958109 209.423323 
L 252.171164 209.362739 
L 252.597273 209.340421 
L 252.749455 209.334817 
L 253.206 209.31806 
L 253.479927 209.203561 
L 253.753855 209.154608 
L 253.966909 209.094923 
L 254.514764 209.095148 
L 254.697382 209.062785 
L 255.245236 209.063103 
L 255.519164 208.950232 
L 255.640909 208.875072 
L 255.823527 208.84312 
L 256.158327 208.80616 
L 256.371382 208.747638 
L 256.767055 208.721799 
L 256.919236 208.716821 
L 257.132291 208.658638 
L 257.314909 208.627149 
L 257.741018 208.607102 
L 257.984509 208.522837 
L 258.319309 208.486865 
L 258.5628 208.403012 
L 258.806291 208.351107 
L 259.019345 208.293913 
L 259.506327 208.285619 
L 259.780255 208.176389 
L 259.932436 208.108831 
L 260.084618 208.104424 
L 260.328109 208.053314 
L 260.632473 207.918888 
L 261.180327 207.922461 
L 261.332509 207.91823 
L 261.484691 207.851422 
L 261.789055 207.718122 
L 262.519527 207.754737 
L 262.793455 207.647959 
L 263.128255 207.61439 
L 263.402182 207.508145 
L 263.676109 207.464078 
L 263.889164 207.409285 
L 264.132655 207.360041 
L 264.406582 207.254699 
L 264.558764 207.189459 
L 264.802255 207.109896 
L 265.2588 207.09935 
L 265.410982 207.095846 
L 265.5936 207.036501 
L 265.837091 206.957546 
L 266.019709 206.898457 
L 266.354509 206.744634 
L 266.750182 206.724113 
L 267.115418 206.546217 
L 267.237164 206.476937 
L 267.450218 206.42419 
L 267.724145 206.382517 
L 268.363309 205.983614 
L 268.637236 205.942737 
L 269.032909 205.743377 
L 269.245964 205.691885 
L 269.580764 205.542555 
L 269.732945 205.480298 
L 270.098182 205.307306 
L 270.341673 205.262126 
L 270.859091 204.96881 
L 271.011273 204.90738 
L 271.346073 204.760653 
L 271.528691 204.705157 
L 271.9548 204.487026 
L 272.137418 204.431942 
L 272.2896 204.430556 
L 272.654836 204.409492 
L 272.989636 204.264767 
L 273.202691 204.215818 
L 273.567927 204.048023 
L 273.689673 203.982417 
L 274.085345 203.79176 
L 274.237527 203.73217 
L 274.541891 203.613256 
L 274.724509 203.559642 
L 274.968 203.488306 
L 275.089745 203.423476 
L 275.363673 203.328964 
L 275.607164 203.287272 
L 275.911527 203.169801 
L 276.155018 203.128406 
L 276.428945 203.03477 
L 276.581127 202.976409 
L 277.068109 202.720759 
L 277.342036 202.685887 
L 277.859455 202.4088 
L 278.042073 202.357092 
L 278.468182 202.150532 
L 278.620364 202.093383 
L 278.833418 202.047955 
L 279.016036 201.996801 
L 279.381273 201.837504 
L 279.503018 201.774991 
L 279.898691 201.59374 
L 280.081309 201.543237 
L 280.750909 201.159712 
L 280.903091 201.103891 
L 281.268327 200.94755 
L 281.481382 200.903839 
L 281.816182 200.770644 
L 282.029236 200.698952 
L 282.455345 200.499568 
L 282.820582 200.458062 
L 283.033636 200.415156 
L 283.307564 200.356103 
L 283.703236 200.180685 
L 283.885855 200.104253 
L 284.098909 200.061911 
L 284.311964 199.991682 
L 284.646764 199.861654 
L 284.798945 199.77985 
L 285.6816 199.257626 
L 285.985964 199.206783 
L 286.442509 198.992301 
L 286.594691 198.911781 
L 286.990364 198.741635 
L 287.142545 198.661493 
L 287.599091 198.449287 
L 287.903455 198.400015 
L 288.268691 198.253178 
L 288.451309 198.179943 
L 289.273091 197.715187 
L 289.516582 197.655021 
L 289.881818 197.51049 
L 290.155745 197.456869 
L 290.734036 197.166053 
L 290.886218 197.088346 
L 291.342764 196.88295 
L 291.555818 196.818055 
L 292.073236 196.572265 
L 292.255855 196.501655 
L 292.955891 196.133455 
L 293.229818 196.082253 
L 293.838545 195.778448 
L 294.0516 195.71532 
L 294.477709 195.536005 
L 294.842945 195.504745 
L 295.360364 195.265533 
L 295.512545 195.190693 
L 295.877782 195.080501 
L 296.029964 195.005955 
L 296.699564 194.668562 
L 296.882182 194.600914 
L 297.369164 194.41226 
L 297.551782 194.345015 
L 298.312691 193.978446 
L 299.0736 193.614303 
L 299.256218 193.54819 
L 299.7432 193.363703 
L 300.047564 193.323728 
L 301.143273 192.724123 
L 301.4172 192.678749 
L 302.147673 192.343027 
L 302.391164 192.291793 
L 302.786836 192.170127 
L 303.060764 192.125721 
L 303.486873 191.985512 
L 303.699927 191.928428 
L 304.613018 191.484133 
L 304.7652 191.414676 
L 305.4348 191.125409 
L 305.647855 191.06957 
L 306.926182 190.407608 
L 307.352291 190.27275 
L 307.626218 190.231374 
L 308.995855 189.524077 
L 309.7872 189.171884 
L 310.000255 189.118784 
L 310.852473 188.733025 
L 311.1264 188.693991 
L 311.796 188.41982 
L 311.948182 188.354339 
L 313.165636 187.759446 
L 313.348255 187.70153 
L 313.926545 187.485916 
L 314.1396 187.435179 
L 314.870073 187.132437 
L 315.052691 187.075388 
L 315.752727 186.792404 
L 315.935345 186.735811 
L 317.213673 186.123647 
L 317.426727 186.074752 
L 318.065891 185.831859 
L 318.218073 185.769609 
L 319.435527 185.202199 
L 319.679018 185.161444 
L 320.592109 184.769971 
L 320.774727 184.715935 
L 321.992182 184.159339 
L 322.1748 184.106042 
L 323.392255 183.555434 
L 323.544436 183.495849 
L 324.487964 183.09973 
L 324.731455 183.061784 
L 325.461927 182.784022 
L 325.644545 182.732426 
L 327.135927 182.049421 
L 327.288109 181.991589 
L 328.2012 181.622794 
L 328.383818 181.572562 
L 329.601273 181.046928 
L 329.753455 180.990229 
L 330.605673 180.660124 
L 330.757855 180.603868 
L 332.279673 179.930532 
L 332.431855 179.875055 
L 333.771055 179.303194 
L 333.984109 179.240121 
L 335.505927 178.582736 
L 335.718982 178.52065 
L 336.723382 178.129686 
L 336.906 178.06096 
L 338.001709 177.628183 
L 338.184327 177.560124 
L 340.5888 176.491501 
L 340.893164 176.454294 
L 341.806255 176.122454 
L 342.080182 176.078459 
L 344.910764 174.836057 
L 345.184691 174.793833 
L 346.736945 174.173138 
L 346.919564 174.109493 
L 348.045709 173.693679 
L 348.228327 173.630645 
L 349.263164 173.260686 
L 349.445782 173.198208 
L 350.815418 172.678797 
L 351.028473 172.624547 
L 352.276364 172.165724 
L 352.489418 172.11214 
L 353.493818 171.766883 
L 353.676436 171.706294 
L 355.593927 170.959224 
L 355.867855 170.922279 
L 360.159382 169.139373 
L 360.342 169.081819 
L 364.420473 167.441359 
L 364.603091 167.385685 
L 367.342364 166.356954 
L 367.555418 166.310224 
L 369.351164 165.681305 
L 369.625091 165.650865 
L 371.238218 165.103085 
L 371.451273 165.057841 
L 373.581818 164.292611 
L 373.581818 164.292611 
" style="fill:none;stroke:#1f77b4;stroke-linecap:square;stroke-width:1.5;"/>
   </g>
   <g id="line2d_14">
    <path clip-path="url(#p12f2944371)" d="M 69.218182 176.225455 
L 69.309491 44.443636 
L 69.339927 93.861818 
L 69.522545 182.814545 
L 69.766036 209.170909 
L 70.0704 220.937143 
L 70.435636 227.290909 
L 70.648691 229.498956 
L 70.679127 225.643636 
L 70.770436 226.61262 
L 70.861745 227.473939 
L 71.135673 207.602078 
L 71.166109 208.141364 
L 71.592218 178.75972 
L 71.622655 179.561703 
L 71.653091 177.872727 
L 72.109636 158.885742 
L 72.7488 138.167774 
L 72.900982 134.294876 
L 72.961855 134.440976 
L 72.992291 135.309326 
L 73.022727 134.5824 
L 73.0836 134.71937 
L 73.235782 131.299835 
L 73.296655 132.953813 
L 73.357527 131.652193 
L 73.448836 129.769993 
L 73.479273 130.572468 
L 73.509709 131.363559 
L 73.570582 130.147896 
L 73.601018 130.925455 
L 73.661891 129.740772 
L 73.692327 130.505232 
L 73.783636 132.737455 
L 73.874945 132.298182 
L 73.935818 131.164575 
L 73.966255 131.875804 
L 73.996691 132.577973 
L 74.057564 131.469365 
L 74.088 132.160909 
L 74.118436 131.616081 
L 74.148873 132.298182 
L 74.4228 136.922105 
L 74.453236 136.38444 
L 74.483673 136.995607 
L 74.514109 136.463699 
L 74.544545 137.067429 
L 74.574982 136.541157 
L 74.635855 135.506353 
L 74.666291 136.10194 
L 75.001091 141.199234 
L 75.031527 140.692661 
L 75.061964 141.220909 
L 75.0924 140.719472 
L 75.579382 147.536111 
L 75.609818 147.045195 
L 75.640255 147.495769 
L 76.462036 158.230038 
L 76.492473 157.753944 
L 76.553345 158.454048 
L 77.162073 164.107586 
L 77.344691 165.120245 
L 77.375127 164.669959 
L 77.436 165.243636 
L 78.014291 169.613564 
L 78.470836 172.540766 
L 78.501273 172.120775 
L 78.562145 172.576772 
L 79.049127 175.409468 
L 79.079564 175.005253 
L 79.140436 175.416977 
L 80.266582 182.215537 
L 80.662255 184.286576 
L 80.692691 183.91564 
L 80.784 183.854928 
L 81.088364 185.348811 
L 81.423164 186.906026 
L 81.4536 186.551642 
L 81.757964 187.9003 
L 81.7884 187.552947 
L 82.031891 188.589782 
L 82.062327 188.248203 
L 82.853673 191.374481 
L 82.884109 191.04724 
L 82.944982 191.273711 
L 83.401527 192.910277 
L 83.431964 192.592361 
L 83.492836 192.803551 
L 84.679855 196.589377 
L 84.710291 196.290466 
L 84.771164 196.469824 
L 85.349455 198.106209 
L 85.379891 197.816826 
L 85.440764 197.983053 
L 86.901709 201.629179 
L 88.423527 204.837355 
L 88.880073 205.702967 
L 88.910509 205.453725 
L 88.971382 205.566707 
L 89.123564 205.846138 
L 89.154 205.599722 
L 89.245309 205.766212 
L 89.549673 206.310376 
L 89.580109 206.068422 
L 89.671418 206.229351 
L 89.914909 206.651551 
L 89.945345 206.41336 
L 90.036655 206.569952 
L 90.097527 206.673586 
L 90.1584 206.201987 
L 90.249709 206.357911 
L 91.954145 209.038598 
L 92.349818 209.604402 
L 92.380255 209.387371 
L 92.471564 209.515888 
L 92.562873 209.643399 
L 92.684618 209.299102 
L 92.715055 209.341611 
L 92.745491 209.38401 
L 92.775927 209.170909 
L 92.867236 209.298112 
L 93.080291 209.591132 
L 93.1716 209.212771 
L 93.232473 209.296177 
L 93.293345 209.379161 
L 93.323782 209.170909 
L 93.415091 209.295232 
L 93.5064 209.418619 
L 93.658582 209.129881 
L 93.8412 209.374527 
L 93.871636 209.170909 
L 93.962945 209.292479 
L 94.236873 209.651865 
L 94.267309 209.451126 
L 94.358618 209.569764 
L 94.5108 209.765592 
L 94.632545 209.447099 
L 94.662982 209.486177 
L 94.693418 209.525161 
L 94.815164 209.210083 
L 94.8456 209.249164 
L 95.119527 209.596761 
L 95.271709 209.093934 
L 95.302145 209.132466 
L 95.606509 209.512903 
L 95.636945 209.322731 
L 95.728255 209.435683 
L 95.819564 209.547859 
L 96.002182 209.096033 
L 96.1848 209.319647 
L 96.215236 209.133767 
L 96.306545 209.244944 
L 96.397855 209.355374 
L 96.428291 209.170909 
L 96.5196 209.281095 
L 96.580473 209.354143 
L 96.702218 208.842549 
L 96.763091 208.916082 
L 96.8544 209.025775 
L 97.128327 208.057159 
L 97.250073 208.205081 
L 97.554436 206.870743 
L 97.584873 206.90856 
L 97.615309 206.946296 
L 97.645745 206.772311 
L 97.737055 206.885472 
L 97.767491 206.923032 
L 97.889236 206.442942 
L 97.950109 206.518521 
L 98.041418 206.631291 
L 98.284909 205.893613 
L 98.315345 205.931502 
L 98.376218 205.594367 
L 98.467527 205.70838 
L 98.589273 205.859293 
L 98.711018 205.600968 
L 98.741455 205.638613 
L 98.893636 205.825678 
L 99.045818 205.204007 
L 99.106691 205.279185 
L 99.319745 205.539914 
L 99.471927 205.127302 
L 99.502364 205.164477 
L 99.593673 205.275555 
L 99.8676 204.034428 
L 99.898036 204.072208 
L 99.958909 204.147543 
L 100.2024 203.08668 
L 100.232836 203.124982 
L 100.263273 203.163209 
L 100.476327 202.466333 
L 100.5372 202.543398 
L 100.750255 201.856764 
L 100.872 202.011608 
L 100.993745 201.597241 
L 101.024182 201.636016 
L 101.054618 201.674716 
L 101.237236 200.965862 
L 101.267673 201.004942 
L 101.298109 201.043947 
L 101.450291 200.677888 
L 101.480727 200.716981 
L 101.572036 200.461904 
L 101.602473 200.501053 
L 101.663345 200.57913 
L 101.906836 199.600163 
L 101.937273 199.639712 
L 101.967709 199.679189 
L 102.241636 198.573708 
L 102.272073 198.613802 
L 102.302509 198.653823 
L 102.332945 198.512086 
L 102.454691 198.128751 
L 102.485127 198.168996 
L 102.515564 198.209167 
L 102.546 198.068742 
L 102.759055 197.451655 
L 102.789491 197.492149 
L 102.819927 197.353518 
L 103.002545 196.883145 
L 103.032982 196.923859 
L 103.063418 196.786736 
L 103.337345 195.916315 
L 103.367782 195.957491 
L 103.398218 195.822573 
L 103.5504 195.50205 
L 103.611273 195.584553 
L 103.641709 195.450919 
L 103.824327 194.827901 
L 103.854764 194.869455 
L 103.8852 194.910936 
L 103.915636 194.778947 
L 104.067818 194.295101 
L 104.098255 194.33683 
L 104.159127 194.247881 
L 104.250436 194.372647 
L 104.341745 193.982883 
L 104.402618 194.066159 
L 104.463491 194.149147 
L 104.493927 194.01998 
L 104.767855 193.036663 
L 104.798291 193.078647 
L 104.828727 193.120559 
L 104.859164 192.993594 
L 105.011345 192.698182 
L 105.102655 192.823928 
L 105.163527 192.740026 
L 105.5592 191.456519 
L 105.589636 191.498912 
L 105.620073 191.375956 
L 105.650509 191.418346 
L 105.954873 190.364432 
L 105.985309 190.407273 
L 106.015745 190.450043 
L 106.046182 190.329376 
L 106.715782 188.045171 
L 106.746218 188.089025 
L 106.776655 187.972618 
L 107.2332 186.565421 
L 107.263636 186.609862 
L 107.294073 186.49622 
L 107.507127 186.020049 
L 107.537564 186.064605 
L 107.568 185.952208 
L 108.115855 184.268476 
L 108.146291 184.313705 
L 108.176727 184.204432 
L 108.207164 184.24964 
L 108.9072 182.086916 
L 108.968073 182.027487 
L 109.028945 182.119366 
L 109.181127 181.745637 
L 109.211564 181.791582 
L 109.242 181.837456 
L 109.272436 181.733053 
L 109.302873 181.778902 
L 109.850727 180.22333 
L 109.881164 180.269657 
L 109.9116 180.168067 
L 110.489891 178.557876 
L 110.520327 178.604714 
L 110.550764 178.50592 
L 111.189927 176.751053 
L 111.281236 176.892946 
L 111.311673 176.797176 
L 112.376945 173.669742 
L 112.407382 173.717978 
L 113.016109 172.19599 
L 113.046545 172.244545 
L 113.076982 172.155856 
L 113.990073 169.820016 
L 114.020509 169.86913 
L 114.050945 169.783981 
L 115.785818 165.243636 
L 115.816255 165.293847 
L 115.846691 165.214963 
L 116.546727 163.682876 
L 116.6076 163.783626 
L 116.638036 163.707028 
L 117.520691 161.776786 
L 117.551127 161.827378 
L 117.581564 161.753505 
L 118.525091 159.630707 
L 118.555527 159.681593 
L 119.529491 157.689899 
L 120.473018 155.839965 
L 121.355673 154.184888 
L 121.386109 154.23619 
L 121.416545 154.172171 
L 122.420945 152.213722 
L 122.451382 152.265124 
L 122.481818 152.203512 
L 122.877491 151.633158 
L 122.907927 151.684453 
L 122.938364 151.623693 
L 123.455782 150.823067 
L 123.547091 150.86576 
L 124.399309 149.440237 
L 124.947164 148.623965 
L 124.9776 148.674998 
L 125.038473 148.561332 
L 125.616764 147.707101 
L 125.6472 147.758023 
L 125.708073 147.646693 
L 125.738509 147.697565 
L 126.499418 146.536033 
L 126.560291 146.637499 
L 126.621164 146.529128 
L 126.803782 146.414346 
L 126.864655 146.515404 
L 126.925527 146.407733 
L 127.686436 145.286569 
L 127.716873 145.336948 
L 127.777745 145.23207 
L 128.3256 144.501459 
L 128.356036 144.551698 
L 128.416909 144.448759 
L 129.177818 143.380341 
L 129.208255 143.430436 
L 129.269127 143.330094 
L 129.938727 142.437785 
L 130.121345 142.637885 
L 130.151782 142.588837 
L 130.486582 142.24892 
L 130.517018 142.298507 
L 130.577891 142.201429 
L 130.790945 142.058592 
L 130.821382 142.108027 
L 130.882255 142.011616 
L 131.247491 141.631111 
L 131.277927 141.680392 
L 131.3388 141.585109 
L 131.704036 141.209876 
L 131.734473 141.259003 
L 131.795345 141.164825 
L 132.038836 140.98148 
L 132.160582 140.985926 
L 132.556255 140.572805 
L 132.586691 140.621577 
L 132.647564 140.529276 
L 133.104109 139.936798 
L 133.134545 139.985455 
L 133.164982 140.034065 
L 133.225855 139.943157 
L 133.834582 139.229711 
L 133.956327 139.423198 
L 134.0172 139.333973 
L 134.412873 138.850359 
L 134.443309 138.898547 
L 134.504182 138.994787 
L 134.565055 138.90671 
L 134.717236 138.870943 
L 134.808545 139.014672 
L 134.869418 138.926984 
L 135.204218 138.62995 
L 135.234655 138.677661 
L 135.295527 138.59085 
L 135.508582 138.379023 
L 135.539018 138.426631 
L 135.630327 138.4786 
L 135.660764 138.435524 
L 135.812945 138.401423 
L 135.904255 138.543433 
L 135.965127 138.457615 
L 136.391236 138.040374 
L 136.421673 138.08751 
L 136.482545 138.002764 
L 136.512982 137.960449 
L 136.573855 138.05458 
L 136.726036 138.110921 
L 137.273891 137.5337 
L 137.547818 137.776862 
L 137.791309 137.620927 
L 138.004364 137.769654 
L 138.156545 137.563636 
L 138.217418 137.655875 
L 138.247855 137.701934 
L 138.308727 137.619768 
L 138.582655 137.425279 
L 138.673964 137.476287 
L 138.7044 137.435537 
L 139.008764 137.116197 
L 139.0392 137.161969 
L 139.100073 137.253392 
L 139.160945 137.172618 
L 139.374 137.062528 
L 139.404436 137.108085 
L 139.465309 137.027786 
L 139.556618 136.993135 
L 139.587055 137.038603 
L 139.678364 137.089385 
L 139.7088 137.049383 
L 140.0436 136.78152 
L 140.165345 136.792671 
L 140.439273 136.606434 
L 140.743636 136.88718 
L 141.230618 136.429128 
L 141.261055 136.473778 
L 141.321927 136.396083 
L 141.474109 136.285683 
L 141.504545 136.330243 
L 141.748036 136.519477 
L 141.900218 136.492243 
L 142.082836 136.591825 
L 142.295891 136.48783 
L 142.356764 136.575744 
L 142.417636 136.499127 
L 142.630691 136.395875 
L 142.904618 136.62559 
L 143.0568 136.517083 
L 143.087236 136.560593 
L 143.178545 136.609562 
L 143.208982 136.57165 
L 143.3916 136.507053 
L 143.574218 136.604601 
L 143.878582 136.390062 
L 144.152509 136.615972 
L 144.396 136.397468 
L 144.426436 136.440252 
L 144.487309 136.525716 
L 144.548182 136.451306 
L 144.700364 136.42522 
L 144.913418 136.563737 
L 144.974291 136.489715 
L 145.035164 136.574522 
L 145.156909 136.585272 
L 145.522145 136.301924 
L 145.643891 136.470486 
L 145.704764 136.397245 
L 145.917818 136.22026 
L 145.948255 136.262265 
L 146.222182 136.482558 
L 146.252618 136.446194 
L 146.313491 136.529629 
L 146.556982 136.706468 
L 146.770036 136.608158 
L 146.861345 136.732236 
L 146.922218 136.659938 
L 147.165709 136.526246 
L 147.683127 137.069181 
L 147.865745 136.930605 
L 147.896182 136.971296 
L 148.109236 137.102727 
L 148.170109 137.031286 
L 148.230982 137.112245 
L 148.4136 137.202437 
L 148.444036 137.166802 
L 148.504909 137.247377 
L 148.7484 137.417146 
L 148.900582 137.315086 
L 148.931018 137.355102 
L 149.113636 137.443948 
L 149.204945 137.413001 
L 149.235382 137.452828 
L 149.357127 137.46168 
L 149.448436 137.355817 
L 149.509309 137.435242 
L 149.904982 137.799447 
L 149.996291 137.693921 
L 150.057164 137.772552 
L 150.0876 137.811823 
L 150.148473 137.741595 
L 150.178909 137.706521 
L 150.239782 137.784966 
L 150.452836 137.910471 
L 150.483273 137.875465 
L 150.544145 137.953489 
L 150.635455 137.996411 
L 150.665891 137.961451 
L 150.696327 137.926517 
L 150.7572 138.0043 
L 150.787636 138.043148 
L 150.848509 137.97335 
L 150.970255 137.981252 
L 151.031127 138.058734 
L 151.092 137.989131 
L 151.122436 137.954369 
L 151.183309 138.031727 
L 151.548545 138.347316 
L 151.700727 138.319946 
L 152.035527 138.594263 
L 152.065964 138.559674 
L 152.126836 138.635707 
L 152.339891 138.756183 
L 152.370327 138.721661 
L 152.4312 138.797297 
L 152.461636 138.835074 
L 152.522509 138.7661 
L 152.583382 138.697226 
L 152.644255 138.772687 
L 152.735564 138.885672 
L 152.796436 138.816887 
L 152.918182 138.823379 
L 153.161673 138.979651 
L 153.283418 138.91431 
L 153.313855 138.951661 
L 153.526909 139.069642 
L 153.557345 139.035494 
L 153.618218 139.10984 
L 153.831273 139.226998 
L 154.013891 139.164775 
L 154.166073 139.278384 
L 154.196509 139.244418 
L 154.379127 139.182424 
L 154.500873 139.25882 
L 154.531309 139.224994 
L 154.561745 139.191192 
L 154.622618 139.264553 
L 154.926982 139.489401 
L 155.048727 139.494778 
L 155.200909 139.606436 
L 155.231345 139.572762 
L 155.261782 139.539112 
L 155.322655 139.61163 
L 155.535709 139.725237 
L 155.657455 139.66064 
L 155.687891 139.696703 
L 155.961818 139.881416 
L 156.174873 139.78596 
L 156.357491 139.862326 
L 156.387927 139.82901 
L 156.4488 139.90039 
L 156.600982 139.940701 
L 156.753164 139.912141 
L 157.361891 140.481457 
L 157.392327 140.448306 
L 157.4532 140.518446 
L 157.574945 140.590344 
L 157.605382 140.557235 
L 157.666255 140.491087 
L 157.727127 140.56098 
L 157.940182 140.669228 
L 157.970618 140.636229 
L 158.031491 140.705784 
L 158.640218 141.261558 
L 158.670655 141.228616 
L 158.731527 141.297224 
L 158.853273 141.367038 
L 158.883709 141.334138 
L 159.005455 141.269769 
L 159.035891 141.303943 
L 159.340255 141.577651 
L 159.370691 141.544858 
L 159.401127 141.512087 
L 159.462 141.579948 
L 159.675055 141.750231 
L 159.705491 141.717501 
L 159.7968 141.685865 
L 159.827236 141.719601 
L 160.283782 142.090792 
L 160.375091 142.058983 
L 160.405527 142.09238 
L 160.740327 142.392543 
L 160.770764 142.359981 
L 160.8012 142.327439 
L 160.862073 142.393722 
L 161.379491 142.823029 
L 161.501236 142.823632 
L 161.744727 142.95488 
L 161.775164 142.922486 
L 161.836036 142.987681 
L 162.383891 143.441445 
L 162.536073 143.344473 
L 162.566509 143.376677 
L 163.205673 143.920132 
L 163.266545 143.855746 
L 163.327418 143.919304 
L 163.692655 144.235248 
L 163.723091 144.203109 
L 163.753527 144.170991 
L 163.8144 144.234019 
L 163.936145 144.359832 
L 163.997018 144.295659 
L 164.118764 144.294357 
L 164.514436 144.574248 
L 164.544873 144.542278 
L 164.605745 144.604546 
L 165.579709 145.465264 
L 165.731891 145.430649 
L 166.127564 145.701243 
L 166.158 145.669451 
L 166.218873 145.729976 
L 166.523236 145.907804 
L 166.553673 145.876077 
L 166.614545 145.936227 
L 167.375455 146.559222 
L 167.405891 146.527568 
L 167.466764 146.586793 
L 168.349418 147.315995 
L 168.471164 147.311045 
L 169.1712 147.854643 
L 169.262509 147.880537 
L 170.5104 148.922701 
L 170.601709 148.947291 
L 171.18 149.357699 
L 171.301745 149.35045 
L 171.727855 149.618674 
L 171.8496 149.611155 
L 172.580073 150.148487 
L 172.671382 150.171503 
L 173.280109 150.593717 
L 173.401855 150.585171 
L 174.101891 151.081361 
L 174.1932 151.103232 
L 175.136727 151.800376 
L 175.258473 151.790594 
L 175.623709 151.987551 
L 175.745455 151.9776 
L 176.232436 152.275346 
L 176.323745 152.295764 
L 177.084655 152.817821 
L 177.175964 152.837618 
L 177.936873 153.351791 
L 178.028182 153.370985 
L 178.8804 153.950926 
L 178.971709 153.969457 
L 179.245636 154.079547 
L 179.336945 154.09791 
L 179.823927 154.376653 
L 179.915236 154.394675 
L 180.767455 154.956984 
L 180.858764 154.974379 
L 181.163127 155.103817 
L 181.284873 155.090972 
L 181.984909 155.524505 
L 182.076218 155.541253 
L 184.2372 157.063213 
L 184.328509 157.078414 
L 185.211164 157.621776 
L 185.302473 157.636409 
L 187.189527 158.885742 
L 187.311273 158.9206 
L 188.133055 159.39435 
L 188.2548 159.428411 
L 188.863527 159.748537 
L 189.015709 159.752727 
L 189.776618 160.172759 
L 189.9288 160.176383 
L 190.567964 160.508812 
L 190.689709 160.541074 
L 191.876727 161.232411 
L 191.998473 161.263612 
L 193.489855 162.137097 
L 193.6116 162.167008 
L 195.498655 163.266433 
L 195.6204 163.29478 
L 197.263964 164.212541 
L 197.385709 164.239599 
L 198.877091 165.042561 
L 198.998836 165.068504 
L 201.068509 166.186673 
L 201.190255 166.21113 
L 201.829418 166.486243 
L 201.951164 166.510285 
L 203.3208 167.192747 
L 203.442545 167.215881 
L 204.629564 167.783598 
L 204.751309 167.805978 
L 205.603527 168.182088 
L 205.725273 168.203953 
L 206.760109 168.672569 
L 206.881855 168.693816 
L 207.429709 168.897793 
L 207.612327 168.863989 
L 208.068873 169.018185 
L 208.190618 169.03893 
L 209.3472 169.556218 
L 209.499382 169.549157 
L 211.356 170.412381 
L 211.477745 170.431453 
L 212.482145 170.850033 
L 212.603891 170.868584 
L 214.338764 171.637413 
L 214.460509 171.655067 
L 216.378 172.491409 
L 216.499745 172.508112 
L 218.325927 173.279933 
L 218.447673 173.295775 
L 219.208582 173.524569 
L 219.330327 173.540119 
L 222.526145 174.891154 
L 222.647891 174.905284 
L 223.926218 175.343971 
L 225.813273 176.071773 
L 225.935018 176.084689 
L 227.517709 176.668866 
L 227.639455 176.681184 
L 228.674291 176.992652 
L 228.796036 177.004634 
L 230.835273 177.751741 
L 230.957018 177.762992 
L 232.904945 178.418551 
L 234.152836 178.791054 
L 234.274582 178.801312 
L 236.466 179.522998 
L 238.261745 180.081152 
L 238.413927 180.10139 
L 240.909709 180.89774 
L 242.8272 181.469927 
L 242.979382 181.488417 
L 245.779527 182.347709 
L 248.184 183.04987 
L 248.366618 183.042914 
L 250.344982 183.588495 
L 250.497164 183.60444 
L 252.658145 184.195336 
L 252.810327 184.210576 
L 254.636509 184.683546 
L 254.788691 184.698224 
L 256.036582 184.985145 
L 256.188764 184.999468 
L 257.467091 185.291447 
L 257.619273 185.305413 
L 260.723782 186.13213 
L 260.9064 186.122692 
L 262.428218 186.470308 
L 262.5804 186.482988 
L 263.9196 186.772944 
L 264.071782 186.785291 
L 265.471855 187.088053 
L 265.654473 187.077955 
L 267.663273 187.544138 
L 267.815455 187.555661 
L 270.828655 188.281581 
L 271.011273 188.270671 
L 273.385309 188.808379 
L 273.537491 188.818637 
L 275.668036 189.281238 
L 275.820218 189.291036 
L 277.859455 189.720835 
L 278.011636 189.730209 
L 283.094509 190.8908 
L 288.177382 191.997507 
L 288.36 191.984364 
L 291.342764 192.576295 
L 291.525382 192.562864 
L 294.629891 193.165272 
L 294.812509 193.15156 
L 297.856145 193.724438 
L 298.038764 193.736766 
L 301.356327 194.350422 
L 301.538945 194.362072 
L 303.943418 194.748729 
L 304.126036 194.759941 
L 305.465236 194.92652 
L 305.647855 194.937523 
L 310.243745 195.762246 
L 310.426364 195.772398 
L 314.839636 196.507117 
L 319.435527 197.24867 
L 319.618145 197.257365 
L 324.244473 197.976768 
L 324.457527 197.966469 
L 328.2012 198.511744 
L 328.383818 198.519255 
L 334.258036 199.39472 
L 340.5888 200.324855 
L 340.832291 200.295867 
L 349.506655 201.525732 
L 349.689273 201.53071 
L 356.446145 202.401678 
L 356.6592 202.410184 
L 367.220618 203.756831 
L 371.359964 204.182794 
L 371.573018 204.189625 
L 373.581818 204.420175 
L 373.581818 204.420175 
" style="fill:none;stroke:#ff7f0e;stroke-linecap:square;stroke-width:1.5;"/>
   </g>
   <g id="line2d_15">
    <path clip-path="url(#p12f2944371)" d="M 69.218182 176.225455 
L 69.309491 242.116364 
L 69.492109 110.334545 
L 69.674727 83.978182 
L 69.979091 147.233455 
L 70.283455 174.342857 
L 70.313891 170.734545 
L 70.374764 174.491483 
L 70.800873 192.698182 
L 71.013927 198.561356 
L 71.044364 195.992727 
L 71.105236 197.480587 
L 71.622655 207.085754 
L 72.200945 213.877403 
L 72.840109 218.860749 
L 72.900982 219.245139 
L 72.931418 217.81234 
L 73.022727 218.395636 
L 73.448836 220.784774 
L 73.509709 218.283482 
L 73.601018 218.78 
L 73.661891 219.099676 
L 73.874945 214.984813 
L 73.935818 215.334897 
L 74.088 212.465455 
L 74.118436 212.649622 
L 74.148873 212.831515 
L 74.483673 204.410005 
L 74.514109 204.626708 
L 74.544545 203.711377 
L 74.605418 204.145331 
L 74.635855 204.358652 
L 75.001091 196.339522 
L 75.031527 196.579191 
L 75.153273 194.472168 
L 75.183709 194.71525 
L 75.214145 194.955865 
L 75.914182 180.119008 
L 76.644655 167.584024 
L 77.009891 163.356136 
L 77.344691 159.197467 
L 77.375127 159.506866 
L 77.405564 159.079121 
L 77.649055 157.195589 
L 77.679491 157.50106 
L 77.709927 157.095836 
L 78.349091 149.869091 
L 78.379527 150.17556 
L 78.409964 149.825455 
L 78.562145 148.753023 
L 78.592582 149.056151 
L 78.623018 148.717599 
L 79.049127 144.809975 
L 79.079564 145.110303 
L 79.11 144.800559 
L 79.870909 138.196987 
L 80.266582 134.839429 
L 80.297018 135.134146 
L 80.327455 135.427248 
L 80.357891 135.178659 
L 80.479636 134.19774 
L 80.510073 134.488625 
L 80.601382 134.823413 
L 80.753564 134.152631 
L 80.784 134.436746 
L 80.844873 133.965578 
L 80.875309 133.73184 
L 80.905745 134.014091 
L 80.936182 133.78144 
L 81.057927 134.387268 
L 81.088364 134.156643 
L 81.179673 134.980763 
L 81.210109 134.750974 
L 81.301418 134.06855 
L 81.331855 134.340027 
L 81.4536 134.920706 
L 81.514473 134.962088 
L 81.636218 134.074652 
L 81.666655 134.338813 
L 81.727527 133.901367 
L 81.757964 133.684237 
L 81.7884 133.946784 
L 81.818836 133.730593 
L 82.001455 134.808312 
L 82.062327 134.848462 
L 82.153636 134.21031 
L 82.336255 135.253845 
L 82.366691 135.043636 
L 82.397127 135.290917 
L 82.518873 136.268725 
L 82.549309 136.059078 
L 82.579745 135.850387 
L 82.610182 136.091901 
L 82.884109 137.776862 
L 82.944982 137.362967 
L 82.975418 137.594722 
L 83.371091 140.09173 
L 83.401527 139.886477 
L 83.431964 140.105384 
L 83.4624 140.323357 
L 83.492836 140.118922 
L 83.523273 139.915358 
L 83.553709 140.132345 
L 83.7972 141.422949 
L 83.827636 141.220909 
L 83.858073 141.430671 
L 84.405927 144.666482 
L 84.436364 144.466036 
L 84.4668 144.660947 
L 85.1364 148.76041 
L 85.197273 148.739532 
L 85.227709 148.541251 
L 85.258145 148.718813 
L 85.319018 148.698251 
L 85.379891 149.050108 
L 85.410327 148.853479 
L 85.440764 149.028456 
L 86.232109 153.004508 
L 86.323418 152.776732 
L 86.353855 152.935417 
L 86.719091 154.452806 
L 86.749527 154.261818 
L 86.8104 154.565813 
L 86.840836 154.375619 
L 87.084327 155.234654 
L 87.114764 155.046234 
L 87.175636 155.341387 
L 87.784364 157.862414 
L 87.8148 157.676786 
L 87.875673 157.952282 
L 88.8192 161.696714 
L 88.880073 161.639696 
L 89.245309 163.107356 
L 89.306182 162.747769 
L 89.367055 162.987553 
L 90.310582 166.241983 
L 91.041055 168.781712 
L 91.071491 168.608539 
L 91.101927 168.435848 
L 91.1628 168.640232 
L 92.806364 173.759859 
L 93.749891 176.388956 
L 93.8412 176.144007 
L 93.871636 176.225455 
L 95.058655 179.252245 
L 95.089091 179.093647 
L 95.149964 179.241588 
L 95.393455 179.826469 
L 95.423891 179.66923 
L 95.5152 179.428485 
L 95.545636 179.500956 
L 95.910873 180.132327 
L 95.941309 179.977784 
L 96.002182 180.119008 
L 96.8544 181.81312 
L 97.219636 182.384822 
L 97.250073 182.235049 
L 97.310945 182.364803 
L 97.645745 182.856874 
L 97.676182 182.708838 
L 97.737055 182.835642 
L 98.589273 184.350862 
L 99.380618 185.866405 
L 99.441491 185.780632 
L 100.263273 187.078075 
L 101.085055 188.308601 
L 102.393818 190.431293 
L 102.424255 190.297482 
L 102.485127 190.392301 
L 103.276473 191.594112 
L 103.306909 191.462727 
L 103.367782 191.553019 
L 104.341745 192.955122 
L 104.463491 192.783533 
L 106.715782 195.746706 
L 107.507127 196.547929 
L 108.298473 197.316703 
L 108.968073 198.071369 
L 108.998509 197.953826 
L 109.028945 197.836464 
L 109.089818 197.904067 
L 111.220364 200.146719 
L 111.2508 200.033973 
L 111.311673 200.094829 
L 113.655273 202.311034 
L 113.685709 202.202979 
L 113.777018 202.284769 
L 116.546727 204.61575 
L 116.577164 204.512811 
L 116.668473 204.585172 
L 118.159855 205.728847 
L 118.190291 205.628607 
L 118.2816 205.696513 
L 119.407745 206.393821 
L 122.207891 208.281514 
L 122.238327 208.187463 
L 122.329636 208.245793 
L 122.877491 208.479484 
L 122.907927 208.386494 
L 122.999236 208.44376 
L 124.399309 209.189081 
L 124.947164 209.40482 
L 124.9776 209.314776 
L 125.068909 209.368402 
L 126.590727 210.132182 
L 126.834218 210.162928 
L 126.864655 210.075431 
L 126.955964 210.126101 
L 128.629964 210.9262 
L 129.451745 211.25185 
L 129.482182 211.167603 
L 129.573491 211.214424 
L 130.060473 211.362878 
L 130.090909 211.279418 
L 130.182218 211.325604 
L 130.364836 211.417563 
L 130.395273 211.334491 
L 130.517018 211.199328 
L 130.547455 211.214672 
L 130.790945 211.239161 
L 130.821382 211.156752 
L 130.912691 211.202573 
L 131.125745 211.211778 
L 131.277927 211.09367 
L 132.038836 211.373658 
L 132.160582 211.241948 
L 132.191018 211.256871 
L 132.556255 211.339831 
L 132.586691 211.25967 
L 132.678 211.304068 
L 133.104109 211.509581 
L 133.134545 211.430026 
L 133.164982 211.350546 
L 133.256291 211.394414 
L 133.834582 211.576253 
L 133.956327 211.261946 
L 134.047636 211.305403 
L 134.412873 211.38573 
L 134.504182 211.152244 
L 134.595491 211.19549 
L 134.747673 211.175486 
L 134.778109 211.098081 
L 134.869418 211.141221 
L 135.112909 211.255679 
L 135.143345 211.178665 
L 135.234655 211.039185 
L 135.295527 211.067815 
L 135.508582 211.076844 
L 135.539018 211.000372 
L 135.630327 211.043153 
L 135.6912 211.071608 
L 135.721636 210.995348 
L 135.752073 210.919158 
L 135.843382 210.961914 
L 136.573855 211.210461 
L 136.726036 211.012765 
L 136.756473 211.026782 
L 137.182582 211.133178 
L 137.486945 210.654409 
L 137.791309 210.706316 
L 137.943491 210.600783 
L 138.156545 210.610909 
L 138.247855 210.391111 
L 138.339164 210.43302 
L 138.430473 210.474819 
L 138.460909 210.401838 
L 138.613091 210.29799 
L 138.917455 210.350615 
L 139.100073 210.089249 
L 139.130509 210.103192 
L 139.374 210.128543 
L 139.526182 210.026635 
L 139.647927 209.996681 
L 139.678364 209.925168 
L 139.769673 209.96683 
L 139.891418 209.937082 
L 139.921855 209.865841 
L 140.013164 209.907437 
L 140.134909 209.877893 
L 140.165345 209.806922 
L 140.256655 209.848451 
L 140.439273 209.846713 
L 140.652327 209.521841 
L 140.682764 209.535722 
L 140.804509 209.507087 
L 140.834945 209.436937 
L 140.926255 209.478549 
L 141.413236 209.615367 
L 141.443673 209.545763 
L 141.534982 209.586887 
L 141.565418 209.600572 
L 141.595855 209.53112 
L 141.748036 209.350637 
L 141.778473 209.364381 
L 141.808909 209.378113 
L 141.839345 209.308987 
L 142.082836 209.005769 
L 142.204582 208.978567 
L 142.326327 208.869161 
L 142.356764 208.882996 
L 142.508945 208.952002 
L 142.539382 208.883713 
L 142.843745 208.449078 
L 142.995927 208.436976 
L 143.178545 208.276094 
L 143.269855 208.317821 
L 143.300291 208.250494 
L 143.482909 208.009717 
L 143.513345 208.023689 
L 143.756836 208.054342 
L 143.969891 207.829482 
L 144.000327 207.843437 
L 144.030764 207.77696 
L 144.152509 207.591882 
L 144.213382 207.619906 
L 144.396 207.623673 
L 144.639491 207.336174 
L 144.761236 207.312584 
L 145.0656 206.896985 
L 145.309091 206.930618 
L 145.461273 206.843027 
L 145.552582 206.806403 
L 145.765636 206.590291 
L 145.948255 206.596433 
L 146.222182 206.253999 
L 146.283055 206.204257 
L 146.617855 205.737741 
L 146.770036 205.731548 
L 146.952655 205.584834 
L 147.0744 205.564683 
L 147.317891 205.293463 
L 147.378764 205.245166 
L 147.713564 204.789253 
L 147.926618 204.813854 
L 148.139673 204.609622 
L 148.230982 204.57682 
L 148.504909 204.251223 
L 148.626655 204.233511 
L 148.839709 204.032627 
L 148.931018 204.000775 
L 149.174509 203.740615 
L 149.235382 203.69462 
L 149.387564 203.617461 
L 149.478873 203.586298 
L 149.935418 202.909782 
L 150.057164 202.894403 
L 150.300655 202.641179 
L 150.391964 202.611465 
L 150.635455 202.360129 
L 150.726764 202.330852 
L 150.939818 202.140091 
L 151.122436 202.155768 
L 151.639855 201.384686 
L 151.731164 201.356845 
L 152.035527 200.998112 
L 152.0964 200.955719 
L 152.339891 200.714386 
L 152.400764 200.672356 
L 152.552945 200.603647 
L 152.613818 200.561805 
L 152.796436 200.436644 
L 152.857309 200.395046 
L 153.161673 200.044612 
L 153.283418 200.033973 
L 153.526909 199.7987 
L 153.587782 199.757922 
L 153.892145 199.412802 
L 154.013891 199.403161 
L 154.257382 199.171716 
L 154.379127 199.162461 
L 154.592182 198.987769 
L 154.653055 198.948077 
L 155.018291 198.500742 
L 155.079164 198.461593 
L 155.231345 198.398935 
L 155.322655 198.375421 
L 155.535709 198.20458 
L 155.657455 198.196825 
L 155.961818 197.865416 
L 156.174873 197.904648 
L 156.479236 197.576223 
L 156.570545 197.553906 
L 156.7836 197.387498 
L 156.874909 197.365455 
L 157.483636 196.51531 
L 157.544509 196.478622 
L 157.757564 196.316632 
L 157.848873 196.295934 
L 158.4576 195.462364 
L 158.518473 195.426793 
L 158.883709 195.013086 
L 159.005455 195.009948 
L 159.370691 194.600165 
L 159.431564 194.565536 
L 159.766364 194.209797 
L 159.827236 194.175581 
L 160.344655 193.523469 
L 160.405527 193.489928 
L 160.770764 193.092476 
L 160.831636 193.059378 
L 161.4708 192.225359 
L 161.531673 192.193083 
L 161.896909 191.805571 
L 161.988218 191.790236 
L 162.505636 191.16646 
L 162.596945 191.15185 
L 163.236109 190.346459 
L 163.296982 190.316005 
L 163.936145 189.522206 
L 164.118764 189.496619 
L 164.544873 189.037576 
L 164.636182 188.962262 
L 165.579709 187.672075 
L 165.731891 187.633247 
L 166.127564 187.234865 
L 166.218873 187.162477 
L 166.979782 186.236278 
L 167.101527 186.182849 
L 167.618945 185.620972 
L 167.740691 185.568651 
L 168.653782 184.454255 
L 168.805964 184.421543 
L 169.962545 182.933985 
L 170.053855 182.868245 
L 170.966945 181.803417 
L 171.058255 181.739338 
L 171.575673 181.221643 
L 171.666982 181.158464 
L 172.1844 180.646748 
L 172.275709 180.584451 
L 173.158364 179.602002 
L 173.249673 179.541205 
L 173.706218 179.123656 
L 173.797527 179.063596 
L 174.710618 178.069487 
L 175.380218 177.396681 
L 175.471527 177.339051 
L 175.775891 177.128843 
L 175.8672 177.071656 
L 176.232436 176.787664 
L 176.323745 176.731011 
L 177.236836 175.779869 
L 178.149927 174.844673 
L 179.002145 173.996818 
L 179.093455 173.943913 
L 179.610873 173.500438 
L 179.702182 173.448234 
L 180.615273 172.552846 
L 181.163127 172.087118 
L 181.315309 172.074846 
L 181.984909 171.477041 
L 182.106655 171.446632 
L 183.598036 169.895859 
L 183.689345 169.84835 
L 184.632873 168.97954 
L 185.5764 168.12482 
L 187.189527 166.535615 
L 187.280836 166.492149 
L 188.133055 165.769257 
L 188.224364 165.726724 
L 188.893964 165.198949 
L 188.985273 165.157121 
L 189.837491 164.453877 
L 189.9288 164.412939 
L 190.9332 163.571236 
L 191.968036 162.713979 
L 193.307236 161.534545 
L 193.398545 161.496898 
L 194.159455 160.928491 
L 194.250764 160.891543 
L 196.229127 159.172451 
L 196.320436 159.137367 
L 197.446582 158.223927 
L 197.568327 158.209752 
L 199.516255 156.601323 
L 199.607564 156.568923 
L 200.794582 155.694561 
L 201.829418 154.962517 
L 201.920727 154.93181 
L 203.290364 153.892849 
L 203.442545 153.903228 
L 204.142582 153.469086 
L 204.233891 153.439915 
L 205.207855 152.792005 
L 205.3296 152.739294 
L 206.638364 151.839251 
L 206.790545 151.807916 
L 207.521018 151.371357 
L 207.6732 151.340737 
L 208.099309 151.142722 
L 208.221055 151.092553 
L 209.195018 150.479431 
L 209.377636 150.47005 
L 210.503782 149.752696 
L 210.625527 149.704576 
L 211.356 149.290605 
L 211.477745 149.24317 
L 211.842982 149.101348 
L 212.0256 149.093904 
L 212.786509 148.664979 
L 212.938691 148.638346 
L 214.338764 147.757486 
L 214.460509 147.71231 
L 215.312727 147.233455 
L 215.434473 147.189015 
L 216.378 146.652906 
L 216.560618 146.648725 
L 218.295491 145.580397 
L 218.843345 145.330714 
L 218.965091 145.288869 
L 220.121673 144.635561 
L 220.304291 144.633923 
L 221.278255 144.11089 
L 221.4 144.070691 
L 222.4044 143.53529 
L 222.556582 143.515418 
L 223.469673 143.045975 
L 223.652291 143.046252 
L 225.0828 142.257089 
L 225.234982 142.238805 
L 226.117636 141.803686 
L 226.239382 141.766514 
L 227.517709 141.094616 
L 227.639455 141.058318 
L 228.309055 140.765128 
L 228.4308 140.729262 
L 229.069964 140.457179 
L 229.191709 140.421719 
L 229.922182 140.097769 
L 230.1048 140.101381 
L 230.7744 139.816631 
L 230.926582 139.801287 
L 231.474436 139.590554 
L 231.626618 139.575489 
L 232.022291 139.455149 
L 232.174473 139.440261 
L 233.118 139.003515 
L 233.239745 138.970008 
L 233.909345 138.695279 
L 234.091964 138.700357 
L 234.548509 138.549246 
L 234.700691 138.535418 
L 235.613782 138.127565 
L 235.735527 138.095201 
L 236.1312 137.981333 
L 236.313818 137.987124 
L 236.739927 137.856929 
L 236.861673 137.824979 
L 237.348655 137.661858 
L 237.4704 137.630164 
L 237.866073 137.518559 
L 238.018255 137.505932 
L 238.261745 137.478658 
L 238.4748 137.503733 
L 238.779164 137.443137 
L 238.900909 137.411868 
L 239.570509 137.152393 
L 239.722691 137.140219 
L 240.179236 136.998251 
L 240.331418 136.986258 
L 240.787964 136.845204 
L 240.970582 136.852046 
L 241.457564 136.695567 
L 241.609745 136.683929 
L 242.127164 136.512293 
L 242.309782 136.519433 
L 242.8272 136.348979 
L 243.040255 136.37478 
L 243.4968 136.237521 
L 243.679418 136.244892 
L 243.892473 136.236251 
L 244.044655 136.225176 
L 244.714255 135.977834 
L 244.896873 135.985424 
L 245.231673 135.913845 
L 245.353418 135.884779 
L 245.657782 135.829337 
L 245.870836 135.855352 
L 246.144764 135.81584 
L 246.266509 135.78699 
L 246.662182 135.685027 
L 246.783927 135.656352 
L 247.1796 135.554976 
L 247.301345 135.526472 
L 247.483964 135.534415 
L 247.636145 135.524161 
L 247.940509 135.470042 
L 248.153564 135.496153 
L 248.336182 135.504089 
L 248.579673 135.548189 
L 248.975345 135.448063 
L 249.127527 135.437967 
L 249.431891 135.384442 
L 249.797127 135.500364 
L 249.949309 135.523559 
L 250.071055 135.495514 
L 250.1928 135.533995 
L 250.436291 135.577603 
L 251.045018 135.371767 
L 251.227636 135.379702 
L 251.440691 135.372431 
L 251.562436 135.344715 
L 251.958109 135.246665 
L 252.140727 135.254685 
L 252.566836 135.142079 
L 252.749455 135.150176 
L 253.206 135.023199 
L 253.479927 135.084451 
L 253.753855 135.047712 
L 253.966909 135.073488 
L 254.514764 134.902936 
L 254.727818 134.928773 
L 255.153927 134.818481 
L 255.366982 134.844326 
L 255.5496 134.852594 
L 255.793091 134.895839 
L 256.036582 134.874561 
L 256.280073 134.917665 
L 256.736618 134.793644 
L 256.919236 134.801901 
L 257.040982 134.839429 
L 257.193164 134.830259 
L 257.5584 134.750812 
L 257.832327 134.779148 
L 258.045382 134.772808 
L 258.228 134.749196 
L 258.532364 134.699351 
L 258.745418 134.693125 
L 258.988909 134.672439 
L 259.2324 134.683469 
L 259.536764 134.633992 
L 259.780255 134.645039 
L 259.932436 134.667703 
L 260.084618 134.627287 
L 260.328109 134.60683 
L 260.632473 134.652052 
L 260.967273 134.588675 
L 261.149891 134.565598 
L 261.454255 134.516801 
L 261.849927 134.612883 
L 262.367345 134.464781 
L 262.641273 134.492817 
L 262.9152 134.458653 
L 263.067382 134.419023 
L 263.219564 134.44148 
L 263.463055 134.452559 
L 263.645673 134.46085 
L 263.980473 134.522348 
L 264.223964 134.50243 
L 264.741382 134.664128 
L 265.197927 134.546052 
L 265.380545 134.523512 
L 265.563164 134.531657 
L 265.867527 134.575792 
L 266.019709 134.597808 
L 266.445818 134.708081 
L 266.811055 134.663028 
L 267.2676 134.789217 
L 267.663273 134.730351 
L 268.485055 135.052443 
L 268.789418 135.034844 
L 269.124218 135.093797 
L 269.367709 135.103756 
L 269.946 135.292163 
L 270.2808 135.26058 
L 270.859091 135.447684 
L 271.011273 135.498313 
L 271.406945 135.587933 
L 271.589564 135.624604 
L 271.9548 135.697748 
L 272.198291 135.706843 
L 272.380909 135.684037 
L 272.715709 135.652186 
L 273.020073 135.693099 
L 273.263564 135.702152 
L 273.780982 135.85367 
L 273.933164 135.903275 
L 274.450582 136.053791 
L 274.663636 136.075927 
L 274.907127 136.084455 
L 275.089745 136.120062 
L 275.363673 136.144169 
L 275.6376 136.139065 
L 275.941964 136.178683 
L 276.155018 136.200531 
L 276.489818 136.255507 
L 276.642 136.304169 
L 277.068109 136.405308 
L 277.342036 136.399902 
L 277.920327 136.577519 
L 278.133382 136.598754 
L 278.529055 136.683244 
L 278.802982 136.677513 
L 279.107345 136.715752 
L 279.3204 136.736726 
L 279.807382 136.866136 
L 280.020436 136.886888 
L 280.750909 137.136502 
L 280.933527 137.170219 
L 281.3292 137.252528 
L 281.664 137.219547 
L 282.242291 137.391335 
L 282.607527 137.345025 
L 282.942327 137.396548 
L 283.216255 137.390022 
L 283.490182 137.411591 
L 283.642364 137.457844 
L 283.946727 137.494115 
L 284.190218 137.500669 
L 284.646764 137.610664 
L 284.798945 137.656528 
L 285.6816 137.971298 
L 285.985964 137.950996 
L 286.746873 138.204731 
L 287.0208 138.197303 
L 287.599091 138.362288 
L 287.903455 138.341621 
L 288.755673 138.634842 
L 288.938291 138.666085 
L 289.486145 138.814131 
L 289.760073 138.806038 
L 290.125309 138.867906 
L 290.307927 138.898763 
L 291.221018 139.21489 
L 291.434073 139.232325 
L 292.286291 139.517502 
L 292.468909 139.547529 
L 293.077636 139.718935 
L 293.321127 139.722804 
L 293.960291 139.906928 
L 294.173345 139.923495 
L 294.660327 140.037495 
L 294.964691 140.015215 
L 295.603855 140.197177 
L 295.756036 140.239085 
L 296.364764 140.406157 
L 296.516945 140.447785 
L 297.0648 140.586623 
L 297.277855 140.60233 
L 297.947455 140.794295 
L 298.099636 140.835377 
L 298.769236 141.025975 
L 298.921418 141.066757 
L 299.591018 141.256003 
L 299.925818 141.219822 
L 301.143273 141.645698 
L 301.356327 141.660157 
L 301.965055 141.819491 
L 302.238982 141.808299 
L 302.847709 141.966646 
L 303.121636 141.955323 
L 303.517309 142.021756 
L 303.699927 142.048394 
L 305.069564 142.527471 
L 305.221745 142.566196 
L 306.560945 143.026508 
L 306.743564 143.052033 
L 307.291418 143.178914 
L 307.565345 143.166409 
L 308.934982 143.631374 
L 309.087164 143.668774 
L 309.574145 143.768112 
L 309.726327 143.805326 
L 310.182873 143.891719 
L 310.365491 143.916205 
L 311.522073 144.285621 
L 311.735127 144.297141 
L 312.496036 144.504171 
L 312.678655 144.527965 
L 313.500436 144.757743 
L 313.683055 144.78125 
L 314.261345 144.912746 
L 314.443964 144.936064 
L 315.204873 145.138838 
L 315.387491 145.161899 
L 316.026655 145.315476 
L 316.209273 145.33833 
L 317.335418 145.680589 
L 317.609345 145.665831 
L 318.705055 145.992966 
L 318.857236 146.027463 
L 319.983382 146.363013 
L 320.196436 146.396354 
L 321.870436 146.935314 
L 322.144364 146.943249 
L 323.240073 147.259034 
L 323.453127 147.291197 
L 324.548836 147.60387 
L 324.761891 147.635581 
L 325.461927 147.776297 
L 325.674982 147.807752 
L 327.348982 148.32612 
L 327.562036 148.356891 
L 328.809927 148.691723 
L 328.992545 148.734239 
L 330.453491 149.14132 
L 330.666545 149.171061 
L 332.279673 149.649531 
L 332.462291 149.690822 
L 333.771055 150.034349 
L 333.984109 150.062999 
L 335.597236 150.507522 
L 335.779855 150.547712 
L 336.723382 150.758232 
L 336.906 150.798082 
L 338.488691 151.223106 
L 338.732182 151.238253 
L 341.532327 152.084357 
L 341.775818 152.098566 
L 342.658473 152.279126 
L 342.841091 152.317096 
L 345.245564 152.990354 
L 345.428182 153.027498 
L 347.467418 153.572301 
L 347.710909 153.584906 
L 348.9588 153.872299 
L 349.171855 153.896474 
L 350.815418 154.304549 
L 351.028473 154.328238 
L 352.337236 154.6278 
L 352.519855 154.662959 
L 354.224291 155.080412 
L 354.406909 155.115048 
L 355.837418 155.444314 
L 356.020036 155.478524 
L 361.742073 157.09097 
L 366.764073 158.445154 
L 366.977127 158.464612 
L 369.351164 159.026063 
L 369.625091 159.021719 
L 373.155709 159.887993 
L 373.3992 159.914257 
L 373.581818 159.963578 
L 373.581818 159.963578 
" style="fill:none;stroke:#2ca02c;stroke-linecap:square;stroke-width:1.5;"/>
   </g>
   <g id="patch_3">
    <path d="M 54 252 
L 54 34.56 
" style="fill:none;stroke:#000000;stroke-linecap:square;stroke-linejoin:miter;stroke-width:0.8;"/>
   </g>
   <g id="patch_4">
    <path d="M 388.8 252 
L 388.8 34.56 
" style="fill:none;stroke:#000000;stroke-linecap:square;stroke-linejoin:miter;stroke-width:0.8;"/>
   </g>
   <g id="patch_5">
    <path d="M 54 252 
L 388.8 252 
" style="fill:none;stroke:#000000;stroke-linecap:square;stroke-linejoin:miter;stroke-width:0.8;"/>
   </g>
   <g id="patch_6">
    <path d="M 54 34.56 
L 388.8 34.56 
" style="fill:none;stroke:#000000;stroke-linecap:square;stroke-linejoin:miter;stroke-width:0.8;"/>
   </g>
   <g id="text_15">
    <!-- Actions taken by row player -->
    <defs>
     <path d="M 34.1875 63.1875 
L 20.796875 26.90625 
L 47.609375 26.90625 
z
M 28.609375 72.90625 
L 39.796875 72.90625 
L 67.578125 0 
L 57.328125 0 
L 50.6875 18.703125 
L 17.828125 18.703125 
L 11.1875 0 
L 0.78125 0 
z
" id="DejaVuSans-65"/>
     <path d="M 48.78125 52.59375 
L 48.78125 44.1875 
Q 44.96875 46.296875 41.140625 47.34375 
Q 37.3125 48.390625 33.40625 48.390625 
Q 24.65625 48.390625 19.8125 42.84375 
Q 14.984375 37.3125 14.984375 27.296875 
Q 14.984375 17.28125 19.8125 11.734375 
Q 24.65625 6.203125 33.40625 6.203125 
Q 37.3125 6.203125 41.140625 7.25 
Q 44.96875 8.296875 48.78125 10.40625 
L 48.78125 2.09375 
Q 45.015625 0.34375 40.984375 -0.53125 
Q 36.96875 -1.421875 32.421875 -1.421875 
Q 20.0625 -1.421875 12.78125 6.34375 
Q 5.515625 14.109375 5.515625 27.296875 
Q 5.515625 40.671875 12.859375 48.328125 
Q 20.21875 56 33.015625 56 
Q 37.15625 56 41.109375 55.140625 
Q 45.0625 54.296875 48.78125 52.59375 
z
" id="DejaVuSans-99"/>
     <path d="M 44.28125 53.078125 
L 44.28125 44.578125 
Q 40.484375 46.53125 36.375 47.5 
Q 32.28125 48.484375 27.875 48.484375 
Q 21.1875 48.484375 17.84375 46.4375 
Q 14.5 44.390625 14.5 40.28125 
Q 14.5 37.15625 16.890625 35.375 
Q 19.28125 33.59375 26.515625 31.984375 
L 29.59375 31.296875 
Q 39.15625 29.25 43.1875 25.515625 
Q 47.21875 21.78125 47.21875 15.09375 
Q 47.21875 7.46875 41.1875 3.015625 
Q 35.15625 -1.421875 24.609375 -1.421875 
Q 20.21875 -1.421875 15.453125 -0.5625 
Q 10.6875 0.296875 5.421875 2 
L 5.421875 11.28125 
Q 10.40625 8.6875 15.234375 7.390625 
Q 20.0625 6.109375 24.8125 6.109375 
Q 31.15625 6.109375 34.5625 8.28125 
Q 37.984375 10.453125 37.984375 14.40625 
Q 37.984375 18.0625 35.515625 20.015625 
Q 33.0625 21.96875 24.703125 23.78125 
L 21.578125 24.515625 
Q 13.234375 26.265625 9.515625 29.90625 
Q 5.8125 33.546875 5.8125 39.890625 
Q 5.8125 47.609375 11.28125 51.796875 
Q 16.75 56 26.8125 56 
Q 31.78125 56 36.171875 55.265625 
Q 40.578125 54.546875 44.28125 53.078125 
z
" id="DejaVuSans-115"/>
     <path id="DejaVuSans-32"/>
     <path d="M 9.078125 75.984375 
L 18.109375 75.984375 
L 18.109375 31.109375 
L 44.921875 54.6875 
L 56.390625 54.6875 
L 27.390625 29.109375 
L 57.625 0 
L 45.90625 0 
L 18.109375 26.703125 
L 18.109375 0 
L 9.078125 0 
z
" id="DejaVuSans-107"/>
     <path d="M 4.203125 54.6875 
L 13.1875 54.6875 
L 24.421875 12.015625 
L 35.59375 54.6875 
L 46.1875 54.6875 
L 57.421875 12.015625 
L 68.609375 54.6875 
L 77.59375 54.6875 
L 63.28125 0 
L 52.6875 0 
L 40.921875 44.828125 
L 29.109375 0 
L 18.5 0 
z
" id="DejaVuSans-119"/>
     <path d="M 18.109375 8.203125 
L 18.109375 -20.796875 
L 9.078125 -20.796875 
L 9.078125 54.6875 
L 18.109375 54.6875 
L 18.109375 46.390625 
Q 20.953125 51.265625 25.265625 53.625 
Q 29.59375 56 35.59375 56 
Q 45.5625 56 51.78125 48.09375 
Q 58.015625 40.1875 58.015625 27.296875 
Q 58.015625 14.40625 51.78125 6.484375 
Q 45.5625 -1.421875 35.59375 -1.421875 
Q 29.59375 -1.421875 25.265625 0.953125 
Q 20.953125 3.328125 18.109375 8.203125 
z
M 48.6875 27.296875 
Q 48.6875 37.203125 44.609375 42.84375 
Q 40.53125 48.484375 33.40625 48.484375 
Q 26.265625 48.484375 22.1875 42.84375 
Q 18.109375 37.203125 18.109375 27.296875 
Q 18.109375 17.390625 22.1875 11.75 
Q 26.265625 6.109375 33.40625 6.109375 
Q 40.53125 6.109375 44.609375 11.75 
Q 48.6875 17.390625 48.6875 27.296875 
z
" id="DejaVuSans-112"/>
    </defs>
    <g transform="translate(137.942813 28.56)scale(0.12 -0.12)">
     <use xlink:href="#DejaVuSans-65"/>
     <use x="66.658203" xlink:href="#DejaVuSans-99"/>
     <use x="121.638672" xlink:href="#DejaVuSans-116"/>
     <use x="160.847656" xlink:href="#DejaVuSans-105"/>
     <use x="188.630859" xlink:href="#DejaVuSans-111"/>
     <use x="249.8125" xlink:href="#DejaVuSans-110"/>
     <use x="313.191406" xlink:href="#DejaVuSans-115"/>
     <use x="365.291016" xlink:href="#DejaVuSans-32"/>
     <use x="397.078125" xlink:href="#DejaVuSans-116"/>
     <use x="436.287109" xlink:href="#DejaVuSans-97"/>
     <use x="497.566406" xlink:href="#DejaVuSans-107"/>
     <use x="551.851562" xlink:href="#DejaVuSans-101"/>
     <use x="613.375" xlink:href="#DejaVuSans-110"/>
     <use x="676.753906" xlink:href="#DejaVuSans-32"/>
     <use x="708.541016" xlink:href="#DejaVuSans-98"/>
     <use x="772.017578" xlink:href="#DejaVuSans-121"/>
     <use x="831.197266" xlink:href="#DejaVuSans-32"/>
     <use x="862.984375" xlink:href="#DejaVuSans-114"/>
     <use x="901.847656" xlink:href="#DejaVuSans-111"/>
     <use x="963.029297" xlink:href="#DejaVuSans-119"/>
     <use x="1044.816406" xlink:href="#DejaVuSans-32"/>
     <use x="1076.603516" xlink:href="#DejaVuSans-112"/>
     <use x="1140.080078" xlink:href="#DejaVuSans-108"/>
     <use x="1167.863281" xlink:href="#DejaVuSans-97"/>
     <use x="1229.142578" xlink:href="#DejaVuSans-121"/>
     <use x="1288.322266" xlink:href="#DejaVuSans-101"/>
     <use x="1349.845703" xlink:href="#DejaVuSans-114"/>
    </g>
   </g>
   <g id="legend_1">
    <g id="patch_7">
     <path d="M 339.8 86.594375 
L 381.8 86.594375 
Q 383.8 86.594375 383.8 84.594375 
L 383.8 41.56 
Q 383.8 39.56 381.8 39.56 
L 339.8 39.56 
Q 337.8 39.56 337.8 41.56 
L 337.8 84.594375 
Q 337.8 86.594375 339.8 86.594375 
z
" style="fill:#ffffff;opacity:0.8;stroke:#cccccc;stroke-linejoin:miter;"/>
    </g>
    <g id="line2d_16">
     <path d="M 341.8 47.658438 
L 361.8 47.658438 
" style="fill:none;stroke:#1f77b4;stroke-linecap:square;stroke-width:1.5;"/>
    </g>
    <g id="line2d_17"/>
    <g id="text_16">
     <!-- $s_0$ -->
     <defs>
      <path d="M 50 53.078125 
L 48.296875 44.578125 
Q 44.734375 46.53125 40.765625 47.5 
Q 36.8125 48.484375 32.625 48.484375 
Q 25.53125 48.484375 21.453125 46.0625 
Q 17.390625 43.65625 17.390625 39.5 
Q 17.390625 34.671875 26.859375 32.078125 
Q 27.59375 31.890625 27.9375 31.78125 
L 30.8125 30.90625 
Q 39.796875 28.421875 42.796875 25.6875 
Q 45.796875 22.953125 45.796875 18.21875 
Q 45.796875 9.515625 38.890625 4.046875 
Q 31.984375 -1.421875 20.796875 -1.421875 
Q 16.453125 -1.421875 11.671875 -0.578125 
Q 6.890625 0.25 1.125 2 
L 2.875 11.28125 
Q 7.8125 8.734375 12.59375 7.421875 
Q 17.390625 6.109375 21.78125 6.109375 
Q 28.375 6.109375 32.5 8.9375 
Q 36.625 11.765625 36.625 16.109375 
Q 36.625 20.796875 25.78125 23.6875 
L 24.859375 23.921875 
L 21.78125 24.703125 
Q 14.9375 26.515625 11.765625 29.46875 
Q 8.59375 32.421875 8.59375 37.015625 
Q 8.59375 45.75 15.15625 50.875 
Q 21.734375 56 33.015625 56 
Q 37.453125 56 41.671875 55.265625 
Q 45.90625 54.546875 50 53.078125 
z
" id="DejaVuSans-Oblique-115"/>
     </defs>
     <g transform="translate(369.8 51.158438)scale(0.1 -0.1)">
      <use xlink:href="#DejaVuSans-Oblique-115"/>
      <use transform="translate(52.099609 -16.40625)scale(0.7)" xlink:href="#DejaVuSans-48"/>
     </g>
    </g>
    <g id="line2d_18">
     <path d="M 341.8 62.336563 
L 361.8 62.336563 
" style="fill:none;stroke:#ff7f0e;stroke-linecap:square;stroke-width:1.5;"/>
    </g>
    <g id="line2d_19"/>
    <g id="text_17">
     <!-- $s_1$ -->
     <g transform="translate(369.8 65.836563)scale(0.1 -0.1)">
      <use xlink:href="#DejaVuSans-Oblique-115"/>
      <use transform="translate(52.099609 -16.40625)scale(0.7)" xlink:href="#DejaVuSans-49"/>
     </g>
    </g>
    <g id="line2d_20">
     <path d="M 341.8 77.014688 
L 361.8 77.014688 
" style="fill:none;stroke:#2ca02c;stroke-linecap:square;stroke-width:1.5;"/>
    </g>
    <g id="line2d_21"/>
    <g id="text_18">
     <!-- $s_2$ -->
     <g transform="translate(369.8 80.514688)scale(0.1 -0.1)">
      <use xlink:href="#DejaVuSans-Oblique-115"/>
      <use transform="translate(52.099609 -16.40625)scale(0.7)" xlink:href="#DejaVuSans-50"/>
     </g>
    </g>
   </g>
  </g>
 </g>
 <defs>
  <clipPath id="p12f2944371">
   <rect height="217.44" width="334.8" x="54" y="34.56"/>
  </clipPath>
 </defs>
</svg>
