<?xml version="1.0" encoding="utf-8" standalone="no"?>
<!DOCTYPE svg PUBLIC "-//W3C//DTD SVG 1.1//EN"
  "http://www.w3.org/Graphics/SVG/1.1/DTD/svg11.dtd">
<!-- Created with matplotlib (https://matplotlib.org/) -->
<svg height="345.6pt" version="1.1" viewBox="0 0 460.8 345.6" width="460.8pt" xmlns="http://www.w3.org/2000/svg" xmlns:xlink="http://www.w3.org/1999/xlink">
 <defs>
  <style type="text/css">
*{stroke-linecap:butt;stroke-linejoin:round;}
  </style>
 </defs>
 <g id="figure_1">
  <g id="patch_1">
   <path d="M 0 345.6 
L 460.8 345.6 
L 460.8 0 
L 0 0 
z
" style="fill:none;"/>
  </g>
  <g id="axes_1">
   <g id="patch_2">
    <path d="M 57.6 307.584 
L 414.72 307.584 
L 414.72 41.472 
L 57.6 41.472 
z
" style="fill:none;"/>
   </g>
   <g id="matplotlib.axis_1">
    <g id="xtick_1">
     <g id="line2d_1">
      <defs>
       <path d="M 0 0 
L 0 3.5 
" id="m68e12afab4" style="stroke:#000000;stroke-width:0.8;"/>
      </defs>
      <g>
       <use style="stroke:#000000;stroke-width:0.8;" x="73.800259" xlink:href="#m68e12afab4" y="307.584"/>
      </g>
     </g>
     <g id="text_1">
      <!-- 0 -->
      <defs>
       <path d="M 31.78125 66.40625 
Q 24.171875 66.40625 20.328125 58.90625 
Q 16.5 51.421875 16.5 36.375 
Q 16.5 21.390625 20.328125 13.890625 
Q 24.171875 6.390625 31.78125 6.390625 
Q 39.453125 6.390625 43.28125 13.890625 
Q 47.125 21.390625 47.125 36.375 
Q 47.125 51.421875 43.28125 58.90625 
Q 39.453125 66.40625 31.78125 66.40625 
z
M 31.78125 74.21875 
Q 44.046875 74.21875 50.515625 64.515625 
Q 56.984375 54.828125 56.984375 36.375 
Q 56.984375 17.96875 50.515625 8.265625 
Q 44.046875 -1.421875 31.78125 -1.421875 
Q 19.53125 -1.421875 13.0625 8.265625 
Q 6.59375 17.96875 6.59375 36.375 
Q 6.59375 54.828125 13.0625 64.515625 
Q 19.53125 74.21875 31.78125 74.21875 
z
" id="DejaVuSans-48"/>
      </defs>
      <g transform="translate(70.619009 322.182437)scale(0.1 -0.1)">
       <use xlink:href="#DejaVuSans-48"/>
      </g>
     </g>
    </g>
    <g id="xtick_2">
     <g id="line2d_2">
      <g>
       <use style="stroke:#000000;stroke-width:0.8;" x="138.737661" xlink:href="#m68e12afab4" y="307.584"/>
      </g>
     </g>
     <g id="text_2">
      <!-- 2000 -->
      <defs>
       <path d="M 19.1875 8.296875 
L 53.609375 8.296875 
L 53.609375 0 
L 7.328125 0 
L 7.328125 8.296875 
Q 12.9375 14.109375 22.625 23.890625 
Q 32.328125 33.6875 34.8125 36.53125 
Q 39.546875 41.84375 41.421875 45.53125 
Q 43.3125 49.21875 43.3125 52.78125 
Q 43.3125 58.59375 39.234375 62.25 
Q 35.15625 65.921875 28.609375 65.921875 
Q 23.96875 65.921875 18.8125 64.3125 
Q 13.671875 62.703125 7.8125 59.421875 
L 7.8125 69.390625 
Q 13.765625 71.78125 18.9375 73 
Q 24.125 74.21875 28.421875 74.21875 
Q 39.75 74.21875 46.484375 68.546875 
Q 53.21875 62.890625 53.21875 53.421875 
Q 53.21875 48.921875 51.53125 44.890625 
Q 49.859375 40.875 45.40625 35.40625 
Q 44.1875 33.984375 37.640625 27.21875 
Q 31.109375 20.453125 19.1875 8.296875 
z
" id="DejaVuSans-50"/>
      </defs>
      <g transform="translate(126.012661 322.182437)scale(0.1 -0.1)">
       <use xlink:href="#DejaVuSans-50"/>
       <use x="63.623047" xlink:href="#DejaVuSans-48"/>
       <use x="127.246094" xlink:href="#DejaVuSans-48"/>
       <use x="190.869141" xlink:href="#DejaVuSans-48"/>
      </g>
     </g>
    </g>
    <g id="xtick_3">
     <g id="line2d_3">
      <g>
       <use style="stroke:#000000;stroke-width:0.8;" x="203.675064" xlink:href="#m68e12afab4" y="307.584"/>
      </g>
     </g>
     <g id="text_3">
      <!-- 4000 -->
      <defs>
       <path d="M 37.796875 64.3125 
L 12.890625 25.390625 
L 37.796875 25.390625 
z
M 35.203125 72.90625 
L 47.609375 72.90625 
L 47.609375 25.390625 
L 58.015625 25.390625 
L 58.015625 17.1875 
L 47.609375 17.1875 
L 47.609375 0 
L 37.796875 0 
L 37.796875 17.1875 
L 4.890625 17.1875 
L 4.890625 26.703125 
z
" id="DejaVuSans-52"/>
      </defs>
      <g transform="translate(190.950064 322.182437)scale(0.1 -0.1)">
       <use xlink:href="#DejaVuSans-52"/>
       <use x="63.623047" xlink:href="#DejaVuSans-48"/>
       <use x="127.246094" xlink:href="#DejaVuSans-48"/>
       <use x="190.869141" xlink:href="#DejaVuSans-48"/>
      </g>
     </g>
    </g>
    <g id="xtick_4">
     <g id="line2d_4">
      <g>
       <use style="stroke:#000000;stroke-width:0.8;" x="268.612467" xlink:href="#m68e12afab4" y="307.584"/>
      </g>
     </g>
     <g id="text_4">
      <!-- 6000 -->
      <defs>
       <path d="M 33.015625 40.375 
Q 26.375 40.375 22.484375 35.828125 
Q 18.609375 31.296875 18.609375 23.390625 
Q 18.609375 15.53125 22.484375 10.953125 
Q 26.375 6.390625 33.015625 6.390625 
Q 39.65625 6.390625 43.53125 10.953125 
Q 47.40625 15.53125 47.40625 23.390625 
Q 47.40625 31.296875 43.53125 35.828125 
Q 39.65625 40.375 33.015625 40.375 
z
M 52.59375 71.296875 
L 52.59375 62.3125 
Q 48.875 64.0625 45.09375 64.984375 
Q 41.3125 65.921875 37.59375 65.921875 
Q 27.828125 65.921875 22.671875 59.328125 
Q 17.53125 52.734375 16.796875 39.40625 
Q 19.671875 43.65625 24.015625 45.921875 
Q 28.375 48.1875 33.59375 48.1875 
Q 44.578125 48.1875 50.953125 41.515625 
Q 57.328125 34.859375 57.328125 23.390625 
Q 57.328125 12.15625 50.6875 5.359375 
Q 44.046875 -1.421875 33.015625 -1.421875 
Q 20.359375 -1.421875 13.671875 8.265625 
Q 6.984375 17.96875 6.984375 36.375 
Q 6.984375 53.65625 15.1875 63.9375 
Q 23.390625 74.21875 37.203125 74.21875 
Q 40.921875 74.21875 44.703125 73.484375 
Q 48.484375 72.75 52.59375 71.296875 
z
" id="DejaVuSans-54"/>
      </defs>
      <g transform="translate(255.887467 322.182437)scale(0.1 -0.1)">
       <use xlink:href="#DejaVuSans-54"/>
       <use x="63.623047" xlink:href="#DejaVuSans-48"/>
       <use x="127.246094" xlink:href="#DejaVuSans-48"/>
       <use x="190.869141" xlink:href="#DejaVuSans-48"/>
      </g>
     </g>
    </g>
    <g id="xtick_5">
     <g id="line2d_5">
      <g>
       <use style="stroke:#000000;stroke-width:0.8;" x="333.54987" xlink:href="#m68e12afab4" y="307.584"/>
      </g>
     </g>
     <g id="text_5">
      <!-- 8000 -->
      <defs>
       <path d="M 31.78125 34.625 
Q 24.75 34.625 20.71875 30.859375 
Q 16.703125 27.09375 16.703125 20.515625 
Q 16.703125 13.921875 20.71875 10.15625 
Q 24.75 6.390625 31.78125 6.390625 
Q 38.8125 6.390625 42.859375 10.171875 
Q 46.921875 13.96875 46.921875 20.515625 
Q 46.921875 27.09375 42.890625 30.859375 
Q 38.875 34.625 31.78125 34.625 
z
M 21.921875 38.8125 
Q 15.578125 40.375 12.03125 44.71875 
Q 8.5 49.078125 8.5 55.328125 
Q 8.5 64.0625 14.71875 69.140625 
Q 20.953125 74.21875 31.78125 74.21875 
Q 42.671875 74.21875 48.875 69.140625 
Q 55.078125 64.0625 55.078125 55.328125 
Q 55.078125 49.078125 51.53125 44.71875 
Q 48 40.375 41.703125 38.8125 
Q 48.828125 37.15625 52.796875 32.3125 
Q 56.78125 27.484375 56.78125 20.515625 
Q 56.78125 9.90625 50.3125 4.234375 
Q 43.84375 -1.421875 31.78125 -1.421875 
Q 19.734375 -1.421875 13.25 4.234375 
Q 6.78125 9.90625 6.78125 20.515625 
Q 6.78125 27.484375 10.78125 32.3125 
Q 14.796875 37.15625 21.921875 38.8125 
z
M 18.3125 54.390625 
Q 18.3125 48.734375 21.84375 45.5625 
Q 25.390625 42.390625 31.78125 42.390625 
Q 38.140625 42.390625 41.71875 45.5625 
Q 45.3125 48.734375 45.3125 54.390625 
Q 45.3125 60.0625 41.71875 63.234375 
Q 38.140625 66.40625 31.78125 66.40625 
Q 25.390625 66.40625 21.84375 63.234375 
Q 18.3125 60.0625 18.3125 54.390625 
z
" id="DejaVuSans-56"/>
      </defs>
      <g transform="translate(320.82487 322.182437)scale(0.1 -0.1)">
       <use xlink:href="#DejaVuSans-56"/>
       <use x="63.623047" xlink:href="#DejaVuSans-48"/>
       <use x="127.246094" xlink:href="#DejaVuSans-48"/>
       <use x="190.869141" xlink:href="#DejaVuSans-48"/>
      </g>
     </g>
    </g>
    <g id="xtick_6">
     <g id="line2d_6">
      <g>
       <use style="stroke:#000000;stroke-width:0.8;" x="398.487273" xlink:href="#m68e12afab4" y="307.584"/>
      </g>
     </g>
     <g id="text_6">
      <!-- 10000 -->
      <defs>
       <path d="M 12.40625 8.296875 
L 28.515625 8.296875 
L 28.515625 63.921875 
L 10.984375 60.40625 
L 10.984375 69.390625 
L 28.421875 72.90625 
L 38.28125 72.90625 
L 38.28125 8.296875 
L 54.390625 8.296875 
L 54.390625 0 
L 12.40625 0 
z
" id="DejaVuSans-49"/>
      </defs>
      <g transform="translate(382.581023 322.182437)scale(0.1 -0.1)">
       <use xlink:href="#DejaVuSans-49"/>
       <use x="63.623047" xlink:href="#DejaVuSans-48"/>
       <use x="127.246094" xlink:href="#DejaVuSans-48"/>
       <use x="190.869141" xlink:href="#DejaVuSans-48"/>
       <use x="254.492188" xlink:href="#DejaVuSans-48"/>
      </g>
     </g>
    </g>
    <g id="text_7">
     <!-- Iteration -->
     <defs>
      <path d="M 9.8125 72.90625 
L 19.671875 72.90625 
L 19.671875 0 
L 9.8125 0 
z
" id="DejaVuSans-73"/>
      <path d="M 18.3125 70.21875 
L 18.3125 54.6875 
L 36.8125 54.6875 
L 36.8125 47.703125 
L 18.3125 47.703125 
L 18.3125 18.015625 
Q 18.3125 11.328125 20.140625 9.421875 
Q 21.96875 7.515625 27.59375 7.515625 
L 36.8125 7.515625 
L 36.8125 0 
L 27.59375 0 
Q 17.1875 0 13.234375 3.875 
Q 9.28125 7.765625 9.28125 18.015625 
L 9.28125 47.703125 
L 2.6875 47.703125 
L 2.6875 54.6875 
L 9.28125 54.6875 
L 9.28125 70.21875 
z
" id="DejaVuSans-116"/>
      <path d="M 56.203125 29.59375 
L 56.203125 25.203125 
L 14.890625 25.203125 
Q 15.484375 15.921875 20.484375 11.0625 
Q 25.484375 6.203125 34.421875 6.203125 
Q 39.59375 6.203125 44.453125 7.46875 
Q 49.3125 8.734375 54.109375 11.28125 
L 54.109375 2.78125 
Q 49.265625 0.734375 44.1875 -0.34375 
Q 39.109375 -1.421875 33.890625 -1.421875 
Q 20.796875 -1.421875 13.15625 6.1875 
Q 5.515625 13.8125 5.515625 26.8125 
Q 5.515625 40.234375 12.765625 48.109375 
Q 20.015625 56 32.328125 56 
Q 43.359375 56 49.78125 48.890625 
Q 56.203125 41.796875 56.203125 29.59375 
z
M 47.21875 32.234375 
Q 47.125 39.59375 43.09375 43.984375 
Q 39.0625 48.390625 32.421875 48.390625 
Q 24.90625 48.390625 20.390625 44.140625 
Q 15.875 39.890625 15.1875 32.171875 
z
" id="DejaVuSans-101"/>
      <path d="M 41.109375 46.296875 
Q 39.59375 47.171875 37.8125 47.578125 
Q 36.03125 48 33.890625 48 
Q 26.265625 48 22.1875 43.046875 
Q 18.109375 38.09375 18.109375 28.8125 
L 18.109375 0 
L 9.078125 0 
L 9.078125 54.6875 
L 18.109375 54.6875 
L 18.109375 46.1875 
Q 20.953125 51.171875 25.484375 53.578125 
Q 30.03125 56 36.53125 56 
Q 37.453125 56 38.578125 55.875 
Q 39.703125 55.765625 41.0625 55.515625 
z
" id="DejaVuSans-114"/>
      <path d="M 34.28125 27.484375 
Q 23.390625 27.484375 19.1875 25 
Q 14.984375 22.515625 14.984375 16.5 
Q 14.984375 11.71875 18.140625 8.90625 
Q 21.296875 6.109375 26.703125 6.109375 
Q 34.1875 6.109375 38.703125 11.40625 
Q 43.21875 16.703125 43.21875 25.484375 
L 43.21875 27.484375 
z
M 52.203125 31.203125 
L 52.203125 0 
L 43.21875 0 
L 43.21875 8.296875 
Q 40.140625 3.328125 35.546875 0.953125 
Q 30.953125 -1.421875 24.3125 -1.421875 
Q 15.921875 -1.421875 10.953125 3.296875 
Q 6 8.015625 6 15.921875 
Q 6 25.140625 12.171875 29.828125 
Q 18.359375 34.515625 30.609375 34.515625 
L 43.21875 34.515625 
L 43.21875 35.40625 
Q 43.21875 41.609375 39.140625 45 
Q 35.0625 48.390625 27.6875 48.390625 
Q 23 48.390625 18.546875 47.265625 
Q 14.109375 46.140625 10.015625 43.890625 
L 10.015625 52.203125 
Q 14.9375 54.109375 19.578125 55.046875 
Q 24.21875 56 28.609375 56 
Q 40.484375 56 46.34375 49.84375 
Q 52.203125 43.703125 52.203125 31.203125 
z
" id="DejaVuSans-97"/>
      <path d="M 9.421875 54.6875 
L 18.40625 54.6875 
L 18.40625 0 
L 9.421875 0 
z
M 9.421875 75.984375 
L 18.40625 75.984375 
L 18.40625 64.59375 
L 9.421875 64.59375 
z
" id="DejaVuSans-105"/>
      <path d="M 30.609375 48.390625 
Q 23.390625 48.390625 19.1875 42.75 
Q 14.984375 37.109375 14.984375 27.296875 
Q 14.984375 17.484375 19.15625 11.84375 
Q 23.34375 6.203125 30.609375 6.203125 
Q 37.796875 6.203125 41.984375 11.859375 
Q 46.1875 17.53125 46.1875 27.296875 
Q 46.1875 37.015625 41.984375 42.703125 
Q 37.796875 48.390625 30.609375 48.390625 
z
M 30.609375 56 
Q 42.328125 56 49.015625 48.375 
Q 55.71875 40.765625 55.71875 27.296875 
Q 55.71875 13.875 49.015625 6.21875 
Q 42.328125 -1.421875 30.609375 -1.421875 
Q 18.84375 -1.421875 12.171875 6.21875 
Q 5.515625 13.875 5.515625 27.296875 
Q 5.515625 40.765625 12.171875 48.375 
Q 18.84375 56 30.609375 56 
z
" id="DejaVuSans-111"/>
      <path d="M 54.890625 33.015625 
L 54.890625 0 
L 45.90625 0 
L 45.90625 32.71875 
Q 45.90625 40.484375 42.875 44.328125 
Q 39.84375 48.1875 33.796875 48.1875 
Q 26.515625 48.1875 22.3125 43.546875 
Q 18.109375 38.921875 18.109375 30.90625 
L 18.109375 0 
L 9.078125 0 
L 9.078125 54.6875 
L 18.109375 54.6875 
L 18.109375 46.1875 
Q 21.34375 51.125 25.703125 53.5625 
Q 30.078125 56 35.796875 56 
Q 45.21875 56 50.046875 50.171875 
Q 54.890625 44.34375 54.890625 33.015625 
z
" id="DejaVuSans-110"/>
     </defs>
     <g transform="translate(214.951406 335.860562)scale(0.1 -0.1)">
      <use xlink:href="#DejaVuSans-73"/>
      <use x="29.492188" xlink:href="#DejaVuSans-116"/>
      <use x="68.701172" xlink:href="#DejaVuSans-101"/>
      <use x="130.224609" xlink:href="#DejaVuSans-114"/>
      <use x="171.337891" xlink:href="#DejaVuSans-97"/>
      <use x="232.617188" xlink:href="#DejaVuSans-116"/>
      <use x="271.826172" xlink:href="#DejaVuSans-105"/>
      <use x="299.609375" xlink:href="#DejaVuSans-111"/>
      <use x="360.791016" xlink:href="#DejaVuSans-110"/>
     </g>
    </g>
   </g>
   <g id="matplotlib.axis_2">
    <g id="ytick_1">
     <g id="line2d_7">
      <defs>
       <path d="M 0 0 
L -3.5 0 
" id="m67934a6c80" style="stroke:#000000;stroke-width:0.8;"/>
      </defs>
      <g>
       <use style="stroke:#000000;stroke-width:0.8;" x="57.6" xlink:href="#m67934a6c80" y="295.488"/>
      </g>
     </g>
     <g id="text_8">
      <!-- 0.0 -->
      <defs>
       <path d="M 10.6875 12.40625 
L 21 12.40625 
L 21 0 
L 10.6875 0 
z
" id="DejaVuSans-46"/>
      </defs>
      <g transform="translate(34.696875 299.287219)scale(0.1 -0.1)">
       <use xlink:href="#DejaVuSans-48"/>
       <use x="63.623047" xlink:href="#DejaVuSans-46"/>
       <use x="95.410156" xlink:href="#DejaVuSans-48"/>
      </g>
     </g>
    </g>
    <g id="ytick_2">
     <g id="line2d_8">
      <g>
       <use style="stroke:#000000;stroke-width:0.8;" x="57.6" xlink:href="#m67934a6c80" y="247.104"/>
      </g>
     </g>
     <g id="text_9">
      <!-- 0.2 -->
      <g transform="translate(34.696875 250.903219)scale(0.1 -0.1)">
       <use xlink:href="#DejaVuSans-48"/>
       <use x="63.623047" xlink:href="#DejaVuSans-46"/>
       <use x="95.410156" xlink:href="#DejaVuSans-50"/>
      </g>
     </g>
    </g>
    <g id="ytick_3">
     <g id="line2d_9">
      <g>
       <use style="stroke:#000000;stroke-width:0.8;" x="57.6" xlink:href="#m67934a6c80" y="198.72"/>
      </g>
     </g>
     <g id="text_10">
      <!-- 0.4 -->
      <g transform="translate(34.696875 202.519219)scale(0.1 -0.1)">
       <use xlink:href="#DejaVuSans-48"/>
       <use x="63.623047" xlink:href="#DejaVuSans-46"/>
       <use x="95.410156" xlink:href="#DejaVuSans-52"/>
      </g>
     </g>
    </g>
    <g id="ytick_4">
     <g id="line2d_10">
      <g>
       <use style="stroke:#000000;stroke-width:0.8;" x="57.6" xlink:href="#m67934a6c80" y="150.336"/>
      </g>
     </g>
     <g id="text_11">
      <!-- 0.6 -->
      <g transform="translate(34.696875 154.135219)scale(0.1 -0.1)">
       <use xlink:href="#DejaVuSans-48"/>
       <use x="63.623047" xlink:href="#DejaVuSans-46"/>
       <use x="95.410156" xlink:href="#DejaVuSans-54"/>
      </g>
     </g>
    </g>
    <g id="ytick_5">
     <g id="line2d_11">
      <g>
       <use style="stroke:#000000;stroke-width:0.8;" x="57.6" xlink:href="#m67934a6c80" y="101.952"/>
      </g>
     </g>
     <g id="text_12">
      <!-- 0.8 -->
      <g transform="translate(34.696875 105.751219)scale(0.1 -0.1)">
       <use xlink:href="#DejaVuSans-48"/>
       <use x="63.623047" xlink:href="#DejaVuSans-46"/>
       <use x="95.410156" xlink:href="#DejaVuSans-56"/>
      </g>
     </g>
    </g>
    <g id="ytick_6">
     <g id="line2d_12">
      <g>
       <use style="stroke:#000000;stroke-width:0.8;" x="57.6" xlink:href="#m67934a6c80" y="53.568"/>
      </g>
     </g>
     <g id="text_13">
      <!-- 1.0 -->
      <g transform="translate(34.696875 57.367219)scale(0.1 -0.1)">
       <use xlink:href="#DejaVuSans-49"/>
       <use x="63.623047" xlink:href="#DejaVuSans-46"/>
       <use x="95.410156" xlink:href="#DejaVuSans-48"/>
      </g>
     </g>
    </g>
    <g id="text_14">
     <!-- Probability -->
     <defs>
      <path d="M 19.671875 64.796875 
L 19.671875 37.40625 
L 32.078125 37.40625 
Q 38.96875 37.40625 42.71875 40.96875 
Q 46.484375 44.53125 46.484375 51.125 
Q 46.484375 57.671875 42.71875 61.234375 
Q 38.96875 64.796875 32.078125 64.796875 
z
M 9.8125 72.90625 
L 32.078125 72.90625 
Q 44.34375 72.90625 50.609375 67.359375 
Q 56.890625 61.8125 56.890625 51.125 
Q 56.890625 40.328125 50.609375 34.8125 
Q 44.34375 29.296875 32.078125 29.296875 
L 19.671875 29.296875 
L 19.671875 0 
L 9.8125 0 
z
" id="DejaVuSans-80"/>
      <path d="M 48.6875 27.296875 
Q 48.6875 37.203125 44.609375 42.84375 
Q 40.53125 48.484375 33.40625 48.484375 
Q 26.265625 48.484375 22.1875 42.84375 
Q 18.109375 37.203125 18.109375 27.296875 
Q 18.109375 17.390625 22.1875 11.75 
Q 26.265625 6.109375 33.40625 6.109375 
Q 40.53125 6.109375 44.609375 11.75 
Q 48.6875 17.390625 48.6875 27.296875 
z
M 18.109375 46.390625 
Q 20.953125 51.265625 25.265625 53.625 
Q 29.59375 56 35.59375 56 
Q 45.5625 56 51.78125 48.09375 
Q 58.015625 40.1875 58.015625 27.296875 
Q 58.015625 14.40625 51.78125 6.484375 
Q 45.5625 -1.421875 35.59375 -1.421875 
Q 29.59375 -1.421875 25.265625 0.953125 
Q 20.953125 3.328125 18.109375 8.203125 
L 18.109375 0 
L 9.078125 0 
L 9.078125 75.984375 
L 18.109375 75.984375 
z
" id="DejaVuSans-98"/>
      <path d="M 9.421875 75.984375 
L 18.40625 75.984375 
L 18.40625 0 
L 9.421875 0 
z
" id="DejaVuSans-108"/>
      <path d="M 32.171875 -5.078125 
Q 28.375 -14.84375 24.75 -17.8125 
Q 21.140625 -20.796875 15.09375 -20.796875 
L 7.90625 -20.796875 
L 7.90625 -13.28125 
L 13.1875 -13.28125 
Q 16.890625 -13.28125 18.9375 -11.515625 
Q 21 -9.765625 23.484375 -3.21875 
L 25.09375 0.875 
L 2.984375 54.6875 
L 12.5 54.6875 
L 29.59375 11.921875 
L 46.6875 54.6875 
L 56.203125 54.6875 
z
" id="DejaVuSans-121"/>
     </defs>
     <g transform="translate(28.617187 201.154562)rotate(-90)scale(0.1 -0.1)">
      <use xlink:href="#DejaVuSans-80"/>
      <use x="60.287109" xlink:href="#DejaVuSans-114"/>
      <use x="101.369141" xlink:href="#DejaVuSans-111"/>
      <use x="162.550781" xlink:href="#DejaVuSans-98"/>
      <use x="226.027344" xlink:href="#DejaVuSans-97"/>
      <use x="287.306641" xlink:href="#DejaVuSans-98"/>
      <use x="350.783203" xlink:href="#DejaVuSans-105"/>
      <use x="378.566406" xlink:href="#DejaVuSans-108"/>
      <use x="406.349609" xlink:href="#DejaVuSans-105"/>
      <use x="434.132812" xlink:href="#DejaVuSans-116"/>
      <use x="473.341797" xlink:href="#DejaVuSans-121"/>
     </g>
    </g>
   </g>
   <g id="line2d_13">
    <path clip-path="url(#pe1874e56eb)" d="M 73.832727 53.568 
L 73.865196 53.568 
L 74.027539 226.368 
L 74.157414 251.502545 
L 74.384695 174.528 
L 74.709382 217.728 
L 75.034069 238.191158 
L 75.423694 193.8816 
L 75.910724 217.329231 
L 76.462692 233.532878 
L 76.495161 234.279325 
L 77.112066 200.617412 
L 77.793909 216.814829 
L 78.50822 228.751448 
L 78.605626 230.104216 
L 79.384875 205.471256 
L 79.612156 199.530905 
L 79.644625 200.064 
L 80.52128 212.510609 
L 81.430403 222.397277 
L 81.852497 226.228645 
L 82.859026 207.044129 
L 83.118776 202.766049 
L 83.183713 203.407723 
L 84.25518 212.844522 
L 85.391585 220.946824 
L 85.943553 224.335059 
L 87.177364 208.584699 
L 87.469582 205.270803 
L 87.534519 205.697362 
L 88.833267 213.454652 
L 90.196953 220.277228 
L 91.00867 223.824906 
L 92.437293 210.773854 
L 92.891855 207.030857 
L 92.956792 207.330712 
L 94.482821 213.835253 
L 96.073788 219.667592 
L 96.853037 222.230535 
L 98.50894 210.927264 
L 99.060908 207.488823 
L 99.125846 207.714462 
L 100.911624 213.495952 
L 102.76234 218.735354 
L 103.638995 220.990329 
L 105.52218 211.051234 
L 106.00921 208.669935 
L 106.074148 208.84462 
L 108.087207 213.931636 
L 110.197673 218.660596 
L 111.074328 220.467512 
L 111.106796 220.322256 
L 113.217262 211.393898 
L 113.704293 209.467626 
L 113.76923 209.607383 
L 116.042039 214.228169 
L 118.412254 218.545467 
L 119.256441 219.9744 
L 119.288909 219.855623 
L 121.626656 211.727511 
L 122.178624 209.923007 
L 122.243561 210.037705 
L 124.808588 214.334696 
L 127.471022 218.36045 
L 128.185333 219.373469 
L 128.217802 219.274539 
L 130.815298 211.725267 
L 131.334797 210.29721 
L 131.399735 210.393254 
L 134.256981 214.414917 
L 137.211632 218.192516 
L 137.958413 219.092211 
L 137.990881 219.008486 
L 140.815658 212.034977 
L 141.400095 210.664945 
L 141.465032 210.746349 
L 144.646965 214.552345 
L 147.958773 218.166809 
L 148.445803 218.671297 
L 148.478272 218.599513 
L 151.562798 212.053378 
L 152.01736 211.132334 
L 152.082298 211.202309 
L 155.588917 214.815987 
L 159.257881 218.279489 
L 159.387756 218.396649 
L 159.420224 218.334143 
L 162.7645 212.14038 
L 163.186594 211.391582 
L 163.251531 211.452632 
L 167.147775 214.960195 
L 170.881676 218.057418 
L 174.485702 212.169535 
L 174.810389 211.659726 
L 174.875326 211.713583 
L 179.161195 215.121356 
L 182.927564 217.895093 
L 186.823808 212.230269 
L 187.083558 211.866469 
L 187.148495 211.914376 
L 191.856457 215.247208 
L 195.622826 217.728 
L 199.811289 212.271509 
L 200.071038 212.069455 
L 205.233562 215.346024 
L 208.902525 217.464294 
L 213.383206 212.203143 
L 219.000291 215.42503 
L 222.734192 217.379537 
L 227.474622 212.326403 
L 233.578738 215.503477 
L 237.312639 217.281932 
L 242.312819 212.424139 
L 248.936434 215.565597 
L 252.605397 217.117693 
L 257.767921 212.528141 
L 264.943504 215.642483 
L 268.352717 216.960897 
L 273.645116 212.633839 
L 281.405135 215.730828 
L 284.716943 216.90869 
L 290.204154 212.766968 
L 298.581078 215.849739 
L 301.79548 216.903619 
L 307.639846 212.821363 
L 316.633676 215.88309 
L 319.653266 216.764957 
L 325.692444 212.883452 
L 335.335648 215.929207 
L 338.030551 216.65145 
L 344.167135 212.978957 
L 354.492182 216.013992 
L 357.05721 216.650476 
L 363.486013 213.05841 
L 374.525371 216.084329 
L 376.830649 216.584702 
L 383.519201 213.089627 
L 395.30534 216.11029 
L 397.285931 216.499165 
L 398.487273 215.89632 
L 398.487273 215.89632 
" style="fill:none;stroke:#1f77b4;stroke-linecap:square;stroke-width:1.5;"/>
   </g>
   <g id="line2d_14">
    <path clip-path="url(#pe1874e56eb)" d="M 73.832727 295.488 
L 73.865196 295.488 
L 73.962602 150.336 
L 73.995071 174.528 
L 74.222352 239.660308 
L 74.384695 255.168 
L 74.676914 187.968 
L 75.066538 221.051077 
L 75.423694 237.4272 
L 75.910724 194.998154 
L 75.943193 192.855273 
L 76.00813 195.873882 
L 76.560098 215.796706 
L 77.112066 229.078588 
L 77.793909 199.113366 
L 77.826378 197.939613 
L 77.891315 199.488 
L 78.638095 214.306792 
L 79.417344 225.568925 
L 79.612156 227.912581 
L 80.488811 205.061592 
L 80.651155 201.471697 
L 80.716092 202.354479 
L 81.657684 213.515107 
L 82.664214 222.823385 
L 83.118776 226.368 
L 84.190243 208.548 
L 84.449993 204.768 
L 84.51493 205.317818 
L 85.683803 214.187016 
L 86.885145 221.651375 
L 87.469582 224.808285 
L 88.76833 209.950126 
L 89.222892 205.340968 
L 89.25536 205.530353 
L 90.619046 212.824216 
L 92.047669 219.296114 
L 92.891855 222.665143 
L 94.417884 210.149291 
L 94.872446 206.771575 
L 94.937383 207.044129 
L 96.560818 213.352536 
L 98.249191 219.024574 
L 99.060908 221.481625 
L 100.814218 210.583385 
L 101.236311 208.167763 
L 101.301249 208.37395 
L 103.151965 213.866761 
L 105.067618 218.867439 
L 106.00921 221.107355 
L 107.989801 211.401846 
L 108.5093 209.039506 
L 108.574238 209.200941 
L 110.684703 214.138141 
L 112.860106 218.668848 
L 113.704293 220.293989 
L 113.736761 220.158439 
L 115.944633 211.431051 
L 116.464132 209.508822 
L 116.52907 209.639489 
L 118.899285 214.151326 
L 121.366906 218.37084 
L 122.178624 219.664752 
L 122.211092 219.553352 
L 124.646245 211.603862 
L 125.133276 210.104471 
L 125.198213 210.212346 
L 127.860646 214.412108 
L 130.620486 218.35008 
L 131.334797 219.307774 
L 131.367266 219.214294 
L 134.0297 211.891925 
L 134.581668 210.454154 
L 134.646605 210.544905 
L 137.601257 214.478656 
L 140.685783 218.214524 
L 141.400095 219.031055 
L 141.432564 218.95162 
L 144.354747 212.101861 
L 144.906715 210.871233 
L 144.971652 210.948438 
L 148.250991 214.67216 
L 151.692673 218.243015 
L 152.01736 218.563666 
L 152.049829 218.495203 
L 155.199293 212.113895 
L 155.686324 211.170918 
L 155.751261 211.237731 
L 159.387756 214.817408 
L 163.186594 218.245835 
L 166.628276 212.140256 
L 166.985432 211.532488 
L 167.050369 211.590953 
L 171.076488 215.063327 
L 174.810389 218.036274 
L 178.511821 212.222512 
L 178.836508 211.73208 
L 178.901445 211.783829 
L 183.317188 215.158798 
L 187.083558 217.829531 
L 191.077208 212.235907 
L 191.401895 211.931424 
L 196.239732 215.232916 
L 200.006101 217.627974 
L 204.29197 212.23959 
L 204.454313 212.162672 
L 209.746711 215.406529 
L 213.415675 217.454735 
L 217.993762 212.251396 
L 223.77319 215.459041 
L 227.507091 217.35203 
L 232.344928 212.35432 
L 238.611387 215.515234 
L 242.345288 217.240325 
L 247.442874 212.435435 
L 254.261301 215.573441 
L 257.832858 217.038995 
L 262.930444 212.632996 
L 270.30084 215.740743 
L 273.710053 217.02215 
L 279.099858 212.730929 
L 287.054689 215.817939 
L 290.269091 216.928408 
L 295.983582 212.726825 
L 304.55532 215.801111 
L 307.737252 216.784255 
L 313.614087 212.817261 
L 322.835198 215.878342 
L 325.757382 216.708124 
L 331.731623 212.959903 
L 341.602108 216.001676 
L 344.232073 216.687549 
L 350.531001 213.003016 
L 361.115797 216.041789 
L 363.583419 216.609882 
L 370.142096 213.027923 
L 381.441204 216.056536 
L 383.616607 216.512859 
L 390.337629 213.102689 
L 398.487273 215.17056 
L 398.487273 215.17056 
" style="fill:none;stroke:#ff7f0e;stroke-linecap:square;stroke-width:1.5;"/>
   </g>
   <g id="line2d_15">
    <path clip-path="url(#pe1874e56eb)" d="M 73.832727 295.488 
L 73.962602 295.488 
L 74.157414 163.531636 
L 74.417164 219.092211 
L 74.676914 241.728 
L 75.034069 187.260632 
L 75.456162 214.848 
L 75.943193 233.175273 
L 76.495161 196.388241 
L 77.112066 214.848 
L 77.793909 228.615805 
L 77.826378 229.155097 
L 78.540689 202.696767 
L 78.605626 200.681514 
L 78.670564 201.9456 
L 79.449813 214.848 
L 80.293999 225.3312 
L 80.651155 228.988664 
L 81.592747 207.792 
L 81.852497 202.817032 
L 81.917434 203.5584 
L 82.923964 213.7001 
L 83.995431 222.295643 
L 84.449993 225.419707 
L 85.586397 208.849983 
L 85.943553 204.282866 
L 86.00849 204.768 
L 87.242301 213.094957 
L 88.541049 220.354256 
L 89.222892 223.675958 
L 90.586577 209.856743 
L 91.00867 206.023245 
L 91.073608 206.359579 
L 92.534699 213.310669 
L 94.060728 219.500308 
L 94.872446 222.427414 
L 96.463412 210.573387 
L 96.853037 207.919775 
L 96.917974 208.165753 
L 98.606346 214.109152 
L 100.359656 219.48135 
L 101.236311 221.909964 
L 103.054559 211.446979 
L 103.638995 208.354681 
L 103.703933 208.543896 
L 105.652055 213.861578 
L 107.665114 218.713772 
L 108.5093 220.581059 
L 108.541769 220.424972 
L 110.587297 211.146959 
L 111.074328 209.088 
L 111.139265 209.238261 
L 113.314668 213.986603 
L 115.587477 218.419469 
L 116.464132 220.003068 
L 116.496601 219.876502 
L 118.76941 211.471018 
L 119.256441 209.7792 
L 119.321378 209.901466 
L 121.788999 214.302398 
L 124.354027 218.421642 
L 125.133276 219.591529 
L 125.165744 219.486584 
L 127.665834 211.785722 
L 128.185333 210.274388 
L 128.250271 210.376014 
L 131.01011 214.481871 
L 133.867356 218.335135 
L 134.581668 219.241846 
L 134.614136 219.153392 
L 137.341507 212.045997 
L 137.958413 210.52217 
L 138.02335 210.608081 
L 141.075408 214.458811 
L 144.257341 218.118194 
L 144.906715 218.824767 
L 144.939183 218.749342 
L 147.926304 212.092888 
L 148.445803 210.989627 
L 148.510741 211.063072 
L 151.919954 214.747451 
L 155.459043 218.246744 
L 155.686324 218.461132 
L 155.718792 218.395776 
L 158.965662 212.111835 
L 159.387756 211.329942 
L 159.452693 211.393747 
L 163.219062 214.935843 
L 166.985432 218.19161 
L 170.492051 212.221378 
L 170.881676 211.584642 
L 170.946613 211.640727 
L 175.102607 215.080615 
L 178.836508 217.938992 
L 182.635346 212.201699 
L 182.927564 211.776914 
L 182.992501 211.826698 
L 187.53812 215.170284 
L 191.336958 217.766188 
L 195.428014 212.243238 
L 195.687764 212.033978 
L 200.687944 215.322596 
L 204.421844 217.55404 
L 208.805119 212.229818 
L 208.934994 212.193584 
L 214.389736 215.42533 
L 218.02623 217.389558 
L 222.701723 212.245575 
L 228.643496 215.439822 
L 232.377396 217.275125 
L 237.28017 212.365537 
L 243.741442 215.525906 
L 247.475342 217.199812 
L 252.54046 212.562834 
L 259.553699 215.693726 
L 262.995382 217.062244 
L 268.28778 212.613235 
L 275.852987 215.716211 
L 279.164795 216.926153 
L 284.652006 212.674917 
L 292.80165 215.75662 
L 296.04852 216.850747 
L 301.730543 212.780308 
L 310.497092 215.843556 
L 313.679025 216.801785 
L 319.588328 212.909231 
L 329.03672 215.966148 
L 331.79656 216.725473 
L 337.965613 212.944991 
L 348.063379 215.984044 
L 350.595938 216.626337 
L 356.992272 212.971146 
L 367.80435 216.005725 
L 370.239502 216.552657 
L 376.733243 213.08481 
L 388.259632 216.105268 
L 390.402566 216.543334 
L 397.220993 213.156025 
L 398.487273 213.47712 
L 398.487273 213.47712 
" style="fill:none;stroke:#2ca02c;stroke-linecap:square;stroke-width:1.5;"/>
   </g>
   <g id="patch_3">
    <path d="M 57.6 307.584 
L 57.6 41.472 
" style="fill:none;stroke:#000000;stroke-linecap:square;stroke-linejoin:miter;stroke-width:0.8;"/>
   </g>
   <g id="patch_4">
    <path d="M 414.72 307.584 
L 414.72 41.472 
" style="fill:none;stroke:#000000;stroke-linecap:square;stroke-linejoin:miter;stroke-width:0.8;"/>
   </g>
   <g id="patch_5">
    <path d="M 57.6 307.584 
L 414.72 307.584 
" style="fill:none;stroke:#000000;stroke-linecap:square;stroke-linejoin:miter;stroke-width:0.8;"/>
   </g>
   <g id="patch_6">
    <path d="M 57.6 41.472 
L 414.72 41.472 
" style="fill:none;stroke:#000000;stroke-linecap:square;stroke-linejoin:miter;stroke-width:0.8;"/>
   </g>
   <g id="text_15">
    <!-- Actions taken by row player -->
    <defs>
     <path d="M 34.1875 63.1875 
L 20.796875 26.90625 
L 47.609375 26.90625 
z
M 28.609375 72.90625 
L 39.796875 72.90625 
L 67.578125 0 
L 57.328125 0 
L 50.6875 18.703125 
L 17.828125 18.703125 
L 11.1875 0 
L 0.78125 0 
z
" id="DejaVuSans-65"/>
     <path d="M 48.78125 52.59375 
L 48.78125 44.1875 
Q 44.96875 46.296875 41.140625 47.34375 
Q 37.3125 48.390625 33.40625 48.390625 
Q 24.65625 48.390625 19.8125 42.84375 
Q 14.984375 37.3125 14.984375 27.296875 
Q 14.984375 17.28125 19.8125 11.734375 
Q 24.65625 6.203125 33.40625 6.203125 
Q 37.3125 6.203125 41.140625 7.25 
Q 44.96875 8.296875 48.78125 10.40625 
L 48.78125 2.09375 
Q 45.015625 0.34375 40.984375 -0.53125 
Q 36.96875 -1.421875 32.421875 -1.421875 
Q 20.0625 -1.421875 12.78125 6.34375 
Q 5.515625 14.109375 5.515625 27.296875 
Q 5.515625 40.671875 12.859375 48.328125 
Q 20.21875 56 33.015625 56 
Q 37.15625 56 41.109375 55.140625 
Q 45.0625 54.296875 48.78125 52.59375 
z
" id="DejaVuSans-99"/>
     <path d="M 44.28125 53.078125 
L 44.28125 44.578125 
Q 40.484375 46.53125 36.375 47.5 
Q 32.28125 48.484375 27.875 48.484375 
Q 21.1875 48.484375 17.84375 46.4375 
Q 14.5 44.390625 14.5 40.28125 
Q 14.5 37.15625 16.890625 35.375 
Q 19.28125 33.59375 26.515625 31.984375 
L 29.59375 31.296875 
Q 39.15625 29.25 43.1875 25.515625 
Q 47.21875 21.78125 47.21875 15.09375 
Q 47.21875 7.46875 41.1875 3.015625 
Q 35.15625 -1.421875 24.609375 -1.421875 
Q 20.21875 -1.421875 15.453125 -0.5625 
Q 10.6875 0.296875 5.421875 2 
L 5.421875 11.28125 
Q 10.40625 8.6875 15.234375 7.390625 
Q 20.0625 6.109375 24.8125 6.109375 
Q 31.15625 6.109375 34.5625 8.28125 
Q 37.984375 10.453125 37.984375 14.40625 
Q 37.984375 18.0625 35.515625 20.015625 
Q 33.0625 21.96875 24.703125 23.78125 
L 21.578125 24.515625 
Q 13.234375 26.265625 9.515625 29.90625 
Q 5.8125 33.546875 5.8125 39.890625 
Q 5.8125 47.609375 11.28125 51.796875 
Q 16.75 56 26.8125 56 
Q 31.78125 56 36.171875 55.265625 
Q 40.578125 54.546875 44.28125 53.078125 
z
" id="DejaVuSans-115"/>
     <path id="DejaVuSans-32"/>
     <path d="M 9.078125 75.984375 
L 18.109375 75.984375 
L 18.109375 31.109375 
L 44.921875 54.6875 
L 56.390625 54.6875 
L 27.390625 29.109375 
L 57.625 0 
L 45.90625 0 
L 18.109375 26.703125 
L 18.109375 0 
L 9.078125 0 
z
" id="DejaVuSans-107"/>
     <path d="M 4.203125 54.6875 
L 13.1875 54.6875 
L 24.421875 12.015625 
L 35.59375 54.6875 
L 46.1875 54.6875 
L 57.421875 12.015625 
L 68.609375 54.6875 
L 77.59375 54.6875 
L 63.28125 0 
L 52.6875 0 
L 40.921875 44.828125 
L 29.109375 0 
L 18.5 0 
z
" id="DejaVuSans-119"/>
     <path d="M 18.109375 8.203125 
L 18.109375 -20.796875 
L 9.078125 -20.796875 
L 9.078125 54.6875 
L 18.109375 54.6875 
L 18.109375 46.390625 
Q 20.953125 51.265625 25.265625 53.625 
Q 29.59375 56 35.59375 56 
Q 45.5625 56 51.78125 48.09375 
Q 58.015625 40.1875 58.015625 27.296875 
Q 58.015625 14.40625 51.78125 6.484375 
Q 45.5625 -1.421875 35.59375 -1.421875 
Q 29.59375 -1.421875 25.265625 0.953125 
Q 20.953125 3.328125 18.109375 8.203125 
z
M 48.6875 27.296875 
Q 48.6875 37.203125 44.609375 42.84375 
Q 40.53125 48.484375 33.40625 48.484375 
Q 26.265625 48.484375 22.1875 42.84375 
Q 18.109375 37.203125 18.109375 27.296875 
Q 18.109375 17.390625 22.1875 11.75 
Q 26.265625 6.109375 33.40625 6.109375 
Q 40.53125 6.109375 44.609375 11.75 
Q 48.6875 17.390625 48.6875 27.296875 
z
" id="DejaVuSans-112"/>
    </defs>
    <g transform="translate(152.250938 35.472)scale(0.12 -0.12)">
     <use xlink:href="#DejaVuSans-65"/>
     <use x="68.392578" xlink:href="#DejaVuSans-99"/>
     <use x="123.373047" xlink:href="#DejaVuSans-116"/>
     <use x="162.582031" xlink:href="#DejaVuSans-105"/>
     <use x="190.365234" xlink:href="#DejaVuSans-111"/>
     <use x="251.546875" xlink:href="#DejaVuSans-110"/>
     <use x="314.925781" xlink:href="#DejaVuSans-115"/>
     <use x="367.025391" xlink:href="#DejaVuSans-32"/>
     <use x="398.8125" xlink:href="#DejaVuSans-116"/>
     <use x="438.021484" xlink:href="#DejaVuSans-97"/>
     <use x="499.300781" xlink:href="#DejaVuSans-107"/>
     <use x="557.164062" xlink:href="#DejaVuSans-101"/>
     <use x="618.6875" xlink:href="#DejaVuSans-110"/>
     <use x="682.066406" xlink:href="#DejaVuSans-32"/>
     <use x="713.853516" xlink:href="#DejaVuSans-98"/>
     <use x="777.330078" xlink:href="#DejaVuSans-121"/>
     <use x="836.509766" xlink:href="#DejaVuSans-32"/>
     <use x="868.296875" xlink:href="#DejaVuSans-114"/>
     <use x="909.378906" xlink:href="#DejaVuSans-111"/>
     <use x="970.560547" xlink:href="#DejaVuSans-119"/>
     <use x="1052.347656" xlink:href="#DejaVuSans-32"/>
     <use x="1084.134766" xlink:href="#DejaVuSans-112"/>
     <use x="1147.611328" xlink:href="#DejaVuSans-108"/>
     <use x="1175.394531" xlink:href="#DejaVuSans-97"/>
     <use x="1236.673828" xlink:href="#DejaVuSans-121"/>
     <use x="1295.853516" xlink:href="#DejaVuSans-101"/>
     <use x="1357.376953" xlink:href="#DejaVuSans-114"/>
    </g>
   </g>
   <g id="legend_1">
    <g id="patch_7">
     <path d="M 365.72 93.506375 
L 407.72 93.506375 
Q 409.72 93.506375 409.72 91.506375 
L 409.72 48.472 
Q 409.72 46.472 407.72 46.472 
L 365.72 46.472 
Q 363.72 46.472 363.72 48.472 
L 363.72 91.506375 
Q 363.72 93.506375 365.72 93.506375 
z
" style="fill:#ffffff;opacity:0.8;stroke:#cccccc;stroke-linejoin:miter;"/>
    </g>
    <g id="line2d_16">
     <path d="M 367.72 54.570438 
L 387.72 54.570438 
" style="fill:none;stroke:#1f77b4;stroke-linecap:square;stroke-width:1.5;"/>
    </g>
    <g id="line2d_17"/>
    <g id="text_16">
     <!-- $s_0$ -->
     <defs>
      <path d="M 50 53.078125 
L 48.296875 44.578125 
Q 44.734375 46.53125 40.765625 47.5 
Q 36.8125 48.484375 32.625 48.484375 
Q 25.53125 48.484375 21.453125 46.0625 
Q 17.390625 43.65625 17.390625 39.5 
Q 17.390625 34.671875 26.859375 32.078125 
Q 27.59375 31.890625 27.9375 31.78125 
L 30.8125 30.90625 
Q 39.796875 28.421875 42.796875 25.6875 
Q 45.796875 22.953125 45.796875 18.21875 
Q 45.796875 9.515625 38.890625 4.046875 
Q 31.984375 -1.421875 20.796875 -1.421875 
Q 16.453125 -1.421875 11.671875 -0.578125 
Q 6.890625 0.25 1.125 2 
L 2.875 11.28125 
Q 7.8125 8.734375 12.59375 7.421875 
Q 17.390625 6.109375 21.78125 6.109375 
Q 28.375 6.109375 32.5 8.9375 
Q 36.625 11.765625 36.625 16.109375 
Q 36.625 20.796875 25.78125 23.6875 
L 24.859375 23.921875 
L 21.78125 24.703125 
Q 14.9375 26.515625 11.765625 29.46875 
Q 8.59375 32.421875 8.59375 37.015625 
Q 8.59375 45.75 15.15625 50.875 
Q 21.734375 56 33.015625 56 
Q 37.453125 56 41.671875 55.265625 
Q 45.90625 54.546875 50 53.078125 
z
" id="DejaVuSans-Oblique-115"/>
     </defs>
     <g transform="translate(395.72 58.070438)scale(0.1 -0.1)">
      <use xlink:href="#DejaVuSans-Oblique-115"/>
      <use transform="translate(52.099609 -16.40625)scale(0.7)" xlink:href="#DejaVuSans-48"/>
     </g>
    </g>
    <g id="line2d_18">
     <path d="M 367.72 69.248563 
L 387.72 69.248563 
" style="fill:none;stroke:#ff7f0e;stroke-linecap:square;stroke-width:1.5;"/>
    </g>
    <g id="line2d_19"/>
    <g id="text_17">
     <!-- $s_1$ -->
     <g transform="translate(395.72 72.748563)scale(0.1 -0.1)">
      <use xlink:href="#DejaVuSans-Oblique-115"/>
      <use transform="translate(52.099609 -16.40625)scale(0.7)" xlink:href="#DejaVuSans-49"/>
     </g>
    </g>
    <g id="line2d_20">
     <path d="M 367.72 83.926688 
L 387.72 83.926688 
" style="fill:none;stroke:#2ca02c;stroke-linecap:square;stroke-width:1.5;"/>
    </g>
    <g id="line2d_21"/>
    <g id="text_18">
     <!-- $s_2$ -->
     <g transform="translate(395.72 87.426688)scale(0.1 -0.1)">
      <use xlink:href="#DejaVuSans-Oblique-115"/>
      <use transform="translate(52.099609 -16.40625)scale(0.7)" xlink:href="#DejaVuSans-50"/>
     </g>
    </g>
   </g>
  </g>
 </g>
 <defs>
  <clipPath id="pe1874e56eb">
   <rect height="266.112" width="357.12" x="57.6" y="41.472"/>
  </clipPath>
 </defs>
</svg>
