<?xml version="1.0" encoding="utf-8" standalone="no"?>
<!DOCTYPE svg PUBLIC "-//W3C//DTD SVG 1.1//EN"
  "http://www.w3.org/Graphics/SVG/1.1/DTD/svg11.dtd">
<!-- Created with matplotlib (https://matplotlib.org/) -->
<svg height="360pt" version="1.1" viewBox="0 0 936 360" width="936pt" xmlns="http://www.w3.org/2000/svg" xmlns:xlink="http://www.w3.org/1999/xlink">
 <metadata>
  <rdf:RDF xmlns:cc="http://creativecommons.org/ns#" xmlns:dc="http://purl.org/dc/elements/1.1/" xmlns:rdf="http://www.w3.org/1999/02/22-rdf-syntax-ns#">
   <cc:Work>
    <dc:type rdf:resource="http://purl.org/dc/dcmitype/StillImage"/>
    <dc:date>2021-05-03T18:51:42.689335</dc:date>
    <dc:format>image/svg+xml</dc:format>
    <dc:creator>
     <cc:Agent>
      <dc:title>Matplotlib v3.3.4, https://matplotlib.org/</dc:title>
     </cc:Agent>
    </dc:creator>
   </cc:Work>
  </rdf:RDF>
 </metadata>
 <defs>
  <style type="text/css">*{stroke-linecap:butt;stroke-linejoin:round;}</style>
 </defs>
 <g id="figure_1">
  <g id="patch_1">
   <path d="M 0 360 
L 936 360 
L 936 0 
L 0 0 
z
" style="fill:none;"/>
  </g>
  <g id="axes_1">
   <g id="patch_2">
    <path d="M 117 320.4 
L 446.727273 320.4 
L 446.727273 43.2 
L 117 43.2 
z
" style="fill:none;"/>
   </g>
   <g id="matplotlib.axis_1">
    <g id="xtick_1">
     <g id="line2d_1">
      <defs>
       <path d="M 0 0 
L 0 3.5 
" id="m425bf4a9db" style="stroke:#000000;stroke-width:0.8;"/>
      </defs>
      <g>
       <use style="stroke:#000000;stroke-width:0.8;" x="131.987603" xlink:href="#m425bf4a9db" y="320.4"/>
      </g>
     </g>
     <g id="text_1">
      <!-- 0 -->
      <g transform="translate(128.806353 334.998438)scale(0.1 -0.1)">
       <defs>
        <path d="M 31.78125 66.40625 
Q 24.171875 66.40625 20.328125 58.90625 
Q 16.5 51.421875 16.5 36.375 
Q 16.5 21.390625 20.328125 13.890625 
Q 24.171875 6.390625 31.78125 6.390625 
Q 39.453125 6.390625 43.28125 13.890625 
Q 47.125 21.390625 47.125 36.375 
Q 47.125 51.421875 43.28125 58.90625 
Q 39.453125 66.40625 31.78125 66.40625 
z
M 31.78125 74.21875 
Q 44.046875 74.21875 50.515625 64.515625 
Q 56.984375 54.828125 56.984375 36.375 
Q 56.984375 17.96875 50.515625 8.265625 
Q 44.046875 -1.421875 31.78125 -1.421875 
Q 19.53125 -1.421875 13.0625 8.265625 
Q 6.59375 17.96875 6.59375 36.375 
Q 6.59375 54.828125 13.0625 64.515625 
Q 19.53125 74.21875 31.78125 74.21875 
z
" id="DejaVuSans-48"/>
       </defs>
       <use xlink:href="#DejaVuSans-48"/>
      </g>
     </g>
    </g>
    <g id="xtick_2">
     <g id="line2d_2">
      <g>
       <use style="stroke:#000000;stroke-width:0.8;" x="191.998027" xlink:href="#m425bf4a9db" y="320.4"/>
      </g>
     </g>
     <g id="text_2">
      <!-- 200 -->
      <g transform="translate(182.454277 334.998438)scale(0.1 -0.1)">
       <defs>
        <path d="M 19.1875 8.296875 
L 53.609375 8.296875 
L 53.609375 0 
L 7.328125 0 
L 7.328125 8.296875 
Q 12.9375 14.109375 22.625 23.890625 
Q 32.328125 33.6875 34.8125 36.53125 
Q 39.546875 41.84375 41.421875 45.53125 
Q 43.3125 49.21875 43.3125 52.78125 
Q 43.3125 58.59375 39.234375 62.25 
Q 35.15625 65.921875 28.609375 65.921875 
Q 23.96875 65.921875 18.8125 64.3125 
Q 13.671875 62.703125 7.8125 59.421875 
L 7.8125 69.390625 
Q 13.765625 71.78125 18.9375 73 
Q 24.125 74.21875 28.421875 74.21875 
Q 39.75 74.21875 46.484375 68.546875 
Q 53.21875 62.890625 53.21875 53.421875 
Q 53.21875 48.921875 51.53125 44.890625 
Q 49.859375 40.875 45.40625 35.40625 
Q 44.1875 33.984375 37.640625 27.21875 
Q 31.109375 20.453125 19.1875 8.296875 
z
" id="DejaVuSans-50"/>
       </defs>
       <use xlink:href="#DejaVuSans-50"/>
       <use x="63.623047" xlink:href="#DejaVuSans-48"/>
       <use x="127.246094" xlink:href="#DejaVuSans-48"/>
      </g>
     </g>
    </g>
    <g id="xtick_3">
     <g id="line2d_3">
      <g>
       <use style="stroke:#000000;stroke-width:0.8;" x="252.008451" xlink:href="#m425bf4a9db" y="320.4"/>
      </g>
     </g>
     <g id="text_3">
      <!-- 400 -->
      <g transform="translate(242.464701 334.998438)scale(0.1 -0.1)">
       <defs>
        <path d="M 37.796875 64.3125 
L 12.890625 25.390625 
L 37.796875 25.390625 
z
M 35.203125 72.90625 
L 47.609375 72.90625 
L 47.609375 25.390625 
L 58.015625 25.390625 
L 58.015625 17.1875 
L 47.609375 17.1875 
L 47.609375 0 
L 37.796875 0 
L 37.796875 17.1875 
L 4.890625 17.1875 
L 4.890625 26.703125 
z
" id="DejaVuSans-52"/>
       </defs>
       <use xlink:href="#DejaVuSans-52"/>
       <use x="63.623047" xlink:href="#DejaVuSans-48"/>
       <use x="127.246094" xlink:href="#DejaVuSans-48"/>
      </g>
     </g>
    </g>
    <g id="xtick_4">
     <g id="line2d_4">
      <g>
       <use style="stroke:#000000;stroke-width:0.8;" x="312.018874" xlink:href="#m425bf4a9db" y="320.4"/>
      </g>
     </g>
     <g id="text_4">
      <!-- 600 -->
      <g transform="translate(302.475124 334.998438)scale(0.1 -0.1)">
       <defs>
        <path d="M 33.015625 40.375 
Q 26.375 40.375 22.484375 35.828125 
Q 18.609375 31.296875 18.609375 23.390625 
Q 18.609375 15.53125 22.484375 10.953125 
Q 26.375 6.390625 33.015625 6.390625 
Q 39.65625 6.390625 43.53125 10.953125 
Q 47.40625 15.53125 47.40625 23.390625 
Q 47.40625 31.296875 43.53125 35.828125 
Q 39.65625 40.375 33.015625 40.375 
z
M 52.59375 71.296875 
L 52.59375 62.3125 
Q 48.875 64.0625 45.09375 64.984375 
Q 41.3125 65.921875 37.59375 65.921875 
Q 27.828125 65.921875 22.671875 59.328125 
Q 17.53125 52.734375 16.796875 39.40625 
Q 19.671875 43.65625 24.015625 45.921875 
Q 28.375 48.1875 33.59375 48.1875 
Q 44.578125 48.1875 50.953125 41.515625 
Q 57.328125 34.859375 57.328125 23.390625 
Q 57.328125 12.15625 50.6875 5.359375 
Q 44.046875 -1.421875 33.015625 -1.421875 
Q 20.359375 -1.421875 13.671875 8.265625 
Q 6.984375 17.96875 6.984375 36.375 
Q 6.984375 53.65625 15.1875 63.9375 
Q 23.390625 74.21875 37.203125 74.21875 
Q 40.921875 74.21875 44.703125 73.484375 
Q 48.484375 72.75 52.59375 71.296875 
z
" id="DejaVuSans-54"/>
       </defs>
       <use xlink:href="#DejaVuSans-54"/>
       <use x="63.623047" xlink:href="#DejaVuSans-48"/>
       <use x="127.246094" xlink:href="#DejaVuSans-48"/>
      </g>
     </g>
    </g>
    <g id="xtick_5">
     <g id="line2d_5">
      <g>
       <use style="stroke:#000000;stroke-width:0.8;" x="372.029298" xlink:href="#m425bf4a9db" y="320.4"/>
      </g>
     </g>
     <g id="text_5">
      <!-- 800 -->
      <g transform="translate(362.485548 334.998438)scale(0.1 -0.1)">
       <defs>
        <path d="M 31.78125 34.625 
Q 24.75 34.625 20.71875 30.859375 
Q 16.703125 27.09375 16.703125 20.515625 
Q 16.703125 13.921875 20.71875 10.15625 
Q 24.75 6.390625 31.78125 6.390625 
Q 38.8125 6.390625 42.859375 10.171875 
Q 46.921875 13.96875 46.921875 20.515625 
Q 46.921875 27.09375 42.890625 30.859375 
Q 38.875 34.625 31.78125 34.625 
z
M 21.921875 38.8125 
Q 15.578125 40.375 12.03125 44.71875 
Q 8.5 49.078125 8.5 55.328125 
Q 8.5 64.0625 14.71875 69.140625 
Q 20.953125 74.21875 31.78125 74.21875 
Q 42.671875 74.21875 48.875 69.140625 
Q 55.078125 64.0625 55.078125 55.328125 
Q 55.078125 49.078125 51.53125 44.71875 
Q 48 40.375 41.703125 38.8125 
Q 48.828125 37.15625 52.796875 32.3125 
Q 56.78125 27.484375 56.78125 20.515625 
Q 56.78125 9.90625 50.3125 4.234375 
Q 43.84375 -1.421875 31.78125 -1.421875 
Q 19.734375 -1.421875 13.25 4.234375 
Q 6.78125 9.90625 6.78125 20.515625 
Q 6.78125 27.484375 10.78125 32.3125 
Q 14.796875 37.15625 21.921875 38.8125 
z
M 18.3125 54.390625 
Q 18.3125 48.734375 21.84375 45.5625 
Q 25.390625 42.390625 31.78125 42.390625 
Q 38.140625 42.390625 41.71875 45.5625 
Q 45.3125 48.734375 45.3125 54.390625 
Q 45.3125 60.0625 41.71875 63.234375 
Q 38.140625 66.40625 31.78125 66.40625 
Q 25.390625 66.40625 21.84375 63.234375 
Q 18.3125 60.0625 18.3125 54.390625 
z
" id="DejaVuSans-56"/>
       </defs>
       <use xlink:href="#DejaVuSans-56"/>
       <use x="63.623047" xlink:href="#DejaVuSans-48"/>
       <use x="127.246094" xlink:href="#DejaVuSans-48"/>
      </g>
     </g>
    </g>
    <g id="xtick_6">
     <g id="line2d_6">
      <g>
       <use style="stroke:#000000;stroke-width:0.8;" x="432.039722" xlink:href="#m425bf4a9db" y="320.4"/>
      </g>
     </g>
     <g id="text_6">
      <!-- 1000 -->
      <g transform="translate(419.314722 334.998438)scale(0.1 -0.1)">
       <defs>
        <path d="M 12.40625 8.296875 
L 28.515625 8.296875 
L 28.515625 63.921875 
L 10.984375 60.40625 
L 10.984375 69.390625 
L 28.421875 72.90625 
L 38.28125 72.90625 
L 38.28125 8.296875 
L 54.390625 8.296875 
L 54.390625 0 
L 12.40625 0 
z
" id="DejaVuSans-49"/>
       </defs>
       <use xlink:href="#DejaVuSans-49"/>
       <use x="63.623047" xlink:href="#DejaVuSans-48"/>
       <use x="127.246094" xlink:href="#DejaVuSans-48"/>
       <use x="190.869141" xlink:href="#DejaVuSans-48"/>
      </g>
     </g>
    </g>
    <g id="text_7">
     <!-- Timepoints -->
     <g transform="translate(254.273793 348.676562)scale(0.1 -0.1)">
      <defs>
       <path d="M -0.296875 72.90625 
L 61.375 72.90625 
L 61.375 64.59375 
L 35.5 64.59375 
L 35.5 0 
L 25.59375 0 
L 25.59375 64.59375 
L -0.296875 64.59375 
z
" id="DejaVuSans-84"/>
       <path d="M 9.421875 54.6875 
L 18.40625 54.6875 
L 18.40625 0 
L 9.421875 0 
z
M 9.421875 75.984375 
L 18.40625 75.984375 
L 18.40625 64.59375 
L 9.421875 64.59375 
z
" id="DejaVuSans-105"/>
       <path d="M 52 44.1875 
Q 55.375 50.25 60.0625 53.125 
Q 64.75 56 71.09375 56 
Q 79.640625 56 84.28125 50.015625 
Q 88.921875 44.046875 88.921875 33.015625 
L 88.921875 0 
L 79.890625 0 
L 79.890625 32.71875 
Q 79.890625 40.578125 77.09375 44.375 
Q 74.3125 48.1875 68.609375 48.1875 
Q 61.625 48.1875 57.5625 43.546875 
Q 53.515625 38.921875 53.515625 30.90625 
L 53.515625 0 
L 44.484375 0 
L 44.484375 32.71875 
Q 44.484375 40.625 41.703125 44.40625 
Q 38.921875 48.1875 33.109375 48.1875 
Q 26.21875 48.1875 22.15625 43.53125 
Q 18.109375 38.875 18.109375 30.90625 
L 18.109375 0 
L 9.078125 0 
L 9.078125 54.6875 
L 18.109375 54.6875 
L 18.109375 46.1875 
Q 21.1875 51.21875 25.484375 53.609375 
Q 29.78125 56 35.6875 56 
Q 41.65625 56 45.828125 52.96875 
Q 50 49.953125 52 44.1875 
z
" id="DejaVuSans-109"/>
       <path d="M 56.203125 29.59375 
L 56.203125 25.203125 
L 14.890625 25.203125 
Q 15.484375 15.921875 20.484375 11.0625 
Q 25.484375 6.203125 34.421875 6.203125 
Q 39.59375 6.203125 44.453125 7.46875 
Q 49.3125 8.734375 54.109375 11.28125 
L 54.109375 2.78125 
Q 49.265625 0.734375 44.1875 -0.34375 
Q 39.109375 -1.421875 33.890625 -1.421875 
Q 20.796875 -1.421875 13.15625 6.1875 
Q 5.515625 13.8125 5.515625 26.8125 
Q 5.515625 40.234375 12.765625 48.109375 
Q 20.015625 56 32.328125 56 
Q 43.359375 56 49.78125 48.890625 
Q 56.203125 41.796875 56.203125 29.59375 
z
M 47.21875 32.234375 
Q 47.125 39.59375 43.09375 43.984375 
Q 39.0625 48.390625 32.421875 48.390625 
Q 24.90625 48.390625 20.390625 44.140625 
Q 15.875 39.890625 15.1875 32.171875 
z
" id="DejaVuSans-101"/>
       <path d="M 18.109375 8.203125 
L 18.109375 -20.796875 
L 9.078125 -20.796875 
L 9.078125 54.6875 
L 18.109375 54.6875 
L 18.109375 46.390625 
Q 20.953125 51.265625 25.265625 53.625 
Q 29.59375 56 35.59375 56 
Q 45.5625 56 51.78125 48.09375 
Q 58.015625 40.1875 58.015625 27.296875 
Q 58.015625 14.40625 51.78125 6.484375 
Q 45.5625 -1.421875 35.59375 -1.421875 
Q 29.59375 -1.421875 25.265625 0.953125 
Q 20.953125 3.328125 18.109375 8.203125 
z
M 48.6875 27.296875 
Q 48.6875 37.203125 44.609375 42.84375 
Q 40.53125 48.484375 33.40625 48.484375 
Q 26.265625 48.484375 22.1875 42.84375 
Q 18.109375 37.203125 18.109375 27.296875 
Q 18.109375 17.390625 22.1875 11.75 
Q 26.265625 6.109375 33.40625 6.109375 
Q 40.53125 6.109375 44.609375 11.75 
Q 48.6875 17.390625 48.6875 27.296875 
z
" id="DejaVuSans-112"/>
       <path d="M 30.609375 48.390625 
Q 23.390625 48.390625 19.1875 42.75 
Q 14.984375 37.109375 14.984375 27.296875 
Q 14.984375 17.484375 19.15625 11.84375 
Q 23.34375 6.203125 30.609375 6.203125 
Q 37.796875 6.203125 41.984375 11.859375 
Q 46.1875 17.53125 46.1875 27.296875 
Q 46.1875 37.015625 41.984375 42.703125 
Q 37.796875 48.390625 30.609375 48.390625 
z
M 30.609375 56 
Q 42.328125 56 49.015625 48.375 
Q 55.71875 40.765625 55.71875 27.296875 
Q 55.71875 13.875 49.015625 6.21875 
Q 42.328125 -1.421875 30.609375 -1.421875 
Q 18.84375 -1.421875 12.171875 6.21875 
Q 5.515625 13.875 5.515625 27.296875 
Q 5.515625 40.765625 12.171875 48.375 
Q 18.84375 56 30.609375 56 
z
" id="DejaVuSans-111"/>
       <path d="M 54.890625 33.015625 
L 54.890625 0 
L 45.90625 0 
L 45.90625 32.71875 
Q 45.90625 40.484375 42.875 44.328125 
Q 39.84375 48.1875 33.796875 48.1875 
Q 26.515625 48.1875 22.3125 43.546875 
Q 18.109375 38.921875 18.109375 30.90625 
L 18.109375 0 
L 9.078125 0 
L 9.078125 54.6875 
L 18.109375 54.6875 
L 18.109375 46.1875 
Q 21.34375 51.125 25.703125 53.5625 
Q 30.078125 56 35.796875 56 
Q 45.21875 56 50.046875 50.171875 
Q 54.890625 44.34375 54.890625 33.015625 
z
" id="DejaVuSans-110"/>
       <path d="M 18.3125 70.21875 
L 18.3125 54.6875 
L 36.8125 54.6875 
L 36.8125 47.703125 
L 18.3125 47.703125 
L 18.3125 18.015625 
Q 18.3125 11.328125 20.140625 9.421875 
Q 21.96875 7.515625 27.59375 7.515625 
L 36.8125 7.515625 
L 36.8125 0 
L 27.59375 0 
Q 17.1875 0 13.234375 3.875 
Q 9.28125 7.765625 9.28125 18.015625 
L 9.28125 47.703125 
L 2.6875 47.703125 
L 2.6875 54.6875 
L 9.28125 54.6875 
L 9.28125 70.21875 
z
" id="DejaVuSans-116"/>
       <path d="M 44.28125 53.078125 
L 44.28125 44.578125 
Q 40.484375 46.53125 36.375 47.5 
Q 32.28125 48.484375 27.875 48.484375 
Q 21.1875 48.484375 17.84375 46.4375 
Q 14.5 44.390625 14.5 40.28125 
Q 14.5 37.15625 16.890625 35.375 
Q 19.28125 33.59375 26.515625 31.984375 
L 29.59375 31.296875 
Q 39.15625 29.25 43.1875 25.515625 
Q 47.21875 21.78125 47.21875 15.09375 
Q 47.21875 7.46875 41.1875 3.015625 
Q 35.15625 -1.421875 24.609375 -1.421875 
Q 20.21875 -1.421875 15.453125 -0.5625 
Q 10.6875 0.296875 5.421875 2 
L 5.421875 11.28125 
Q 10.40625 8.6875 15.234375 7.390625 
Q 20.0625 6.109375 24.8125 6.109375 
Q 31.15625 6.109375 34.5625 8.28125 
Q 37.984375 10.453125 37.984375 14.40625 
Q 37.984375 18.0625 35.515625 20.015625 
Q 33.0625 21.96875 24.703125 23.78125 
L 21.578125 24.515625 
Q 13.234375 26.265625 9.515625 29.90625 
Q 5.8125 33.546875 5.8125 39.890625 
Q 5.8125 47.609375 11.28125 51.796875 
Q 16.75 56 26.8125 56 
Q 31.78125 56 36.171875 55.265625 
Q 40.578125 54.546875 44.28125 53.078125 
z
" id="DejaVuSans-115"/>
      </defs>
      <use xlink:href="#DejaVuSans-84"/>
      <use x="57.958984" xlink:href="#DejaVuSans-105"/>
      <use x="85.742188" xlink:href="#DejaVuSans-109"/>
      <use x="183.154297" xlink:href="#DejaVuSans-101"/>
      <use x="244.677734" xlink:href="#DejaVuSans-112"/>
      <use x="308.154297" xlink:href="#DejaVuSans-111"/>
      <use x="369.335938" xlink:href="#DejaVuSans-105"/>
      <use x="397.119141" xlink:href="#DejaVuSans-110"/>
      <use x="460.498047" xlink:href="#DejaVuSans-116"/>
      <use x="499.707031" xlink:href="#DejaVuSans-115"/>
     </g>
    </g>
   </g>
   <g id="matplotlib.axis_2">
    <g id="ytick_1">
     <g id="line2d_7">
      <defs>
       <path d="M 0 0 
L -3.5 0 
" id="m6edfd8ad14" style="stroke:#000000;stroke-width:0.8;"/>
      </defs>
      <g>
       <use style="stroke:#000000;stroke-width:0.8;" x="117" xlink:href="#m6edfd8ad14" y="307.8"/>
      </g>
     </g>
     <g id="text_8">
      <!-- 0.30 -->
      <g transform="translate(87.734375 311.599219)scale(0.1 -0.1)">
       <defs>
        <path d="M 10.6875 12.40625 
L 21 12.40625 
L 21 0 
L 10.6875 0 
z
" id="DejaVuSans-46"/>
        <path d="M 40.578125 39.3125 
Q 47.65625 37.796875 51.625 33 
Q 55.609375 28.21875 55.609375 21.1875 
Q 55.609375 10.40625 48.1875 4.484375 
Q 40.765625 -1.421875 27.09375 -1.421875 
Q 22.515625 -1.421875 17.65625 -0.515625 
Q 12.796875 0.390625 7.625 2.203125 
L 7.625 11.71875 
Q 11.71875 9.328125 16.59375 8.109375 
Q 21.484375 6.890625 26.8125 6.890625 
Q 36.078125 6.890625 40.9375 10.546875 
Q 45.796875 14.203125 45.796875 21.1875 
Q 45.796875 27.640625 41.28125 31.265625 
Q 36.765625 34.90625 28.71875 34.90625 
L 20.21875 34.90625 
L 20.21875 43.015625 
L 29.109375 43.015625 
Q 36.375 43.015625 40.234375 45.921875 
Q 44.09375 48.828125 44.09375 54.296875 
Q 44.09375 59.90625 40.109375 62.90625 
Q 36.140625 65.921875 28.71875 65.921875 
Q 24.65625 65.921875 20.015625 65.03125 
Q 15.375 64.15625 9.8125 62.3125 
L 9.8125 71.09375 
Q 15.4375 72.65625 20.34375 73.4375 
Q 25.25 74.21875 29.59375 74.21875 
Q 40.828125 74.21875 47.359375 69.109375 
Q 53.90625 64.015625 53.90625 55.328125 
Q 53.90625 49.265625 50.4375 45.09375 
Q 46.96875 40.921875 40.578125 39.3125 
z
" id="DejaVuSans-51"/>
       </defs>
       <use xlink:href="#DejaVuSans-48"/>
       <use x="63.623047" xlink:href="#DejaVuSans-46"/>
       <use x="95.410156" xlink:href="#DejaVuSans-51"/>
       <use x="159.033203" xlink:href="#DejaVuSans-48"/>
      </g>
     </g>
    </g>
    <g id="ytick_2">
     <g id="line2d_8">
      <g>
       <use style="stroke:#000000;stroke-width:0.8;" x="117" xlink:href="#m6edfd8ad14" y="270.641348"/>
      </g>
     </g>
     <g id="text_9">
      <!-- 0.31 -->
      <g transform="translate(87.734375 274.440566)scale(0.1 -0.1)">
       <use xlink:href="#DejaVuSans-48"/>
       <use x="63.623047" xlink:href="#DejaVuSans-46"/>
       <use x="95.410156" xlink:href="#DejaVuSans-51"/>
       <use x="159.033203" xlink:href="#DejaVuSans-49"/>
      </g>
     </g>
    </g>
    <g id="ytick_3">
     <g id="line2d_9">
      <g>
       <use style="stroke:#000000;stroke-width:0.8;" x="117" xlink:href="#m6edfd8ad14" y="233.482695"/>
      </g>
     </g>
     <g id="text_10">
      <!-- 0.32 -->
      <g transform="translate(87.734375 237.281914)scale(0.1 -0.1)">
       <use xlink:href="#DejaVuSans-48"/>
       <use x="63.623047" xlink:href="#DejaVuSans-46"/>
       <use x="95.410156" xlink:href="#DejaVuSans-51"/>
       <use x="159.033203" xlink:href="#DejaVuSans-50"/>
      </g>
     </g>
    </g>
    <g id="ytick_4">
     <g id="line2d_10">
      <g>
       <use style="stroke:#000000;stroke-width:0.8;" x="117" xlink:href="#m6edfd8ad14" y="196.324043"/>
      </g>
     </g>
     <g id="text_11">
      <!-- 0.33 -->
      <g transform="translate(87.734375 200.123262)scale(0.1 -0.1)">
       <use xlink:href="#DejaVuSans-48"/>
       <use x="63.623047" xlink:href="#DejaVuSans-46"/>
       <use x="95.410156" xlink:href="#DejaVuSans-51"/>
       <use x="159.033203" xlink:href="#DejaVuSans-51"/>
      </g>
     </g>
    </g>
    <g id="ytick_5">
     <g id="line2d_11">
      <g>
       <use style="stroke:#000000;stroke-width:0.8;" x="117" xlink:href="#m6edfd8ad14" y="159.16539"/>
      </g>
     </g>
     <g id="text_12">
      <!-- 0.34 -->
      <g transform="translate(87.734375 162.964609)scale(0.1 -0.1)">
       <use xlink:href="#DejaVuSans-48"/>
       <use x="63.623047" xlink:href="#DejaVuSans-46"/>
       <use x="95.410156" xlink:href="#DejaVuSans-51"/>
       <use x="159.033203" xlink:href="#DejaVuSans-52"/>
      </g>
     </g>
    </g>
    <g id="ytick_6">
     <g id="line2d_12">
      <g>
       <use style="stroke:#000000;stroke-width:0.8;" x="117" xlink:href="#m6edfd8ad14" y="122.006738"/>
      </g>
     </g>
     <g id="text_13">
      <!-- 0.35 -->
      <g transform="translate(87.734375 125.805957)scale(0.1 -0.1)">
       <defs>
        <path d="M 10.796875 72.90625 
L 49.515625 72.90625 
L 49.515625 64.59375 
L 19.828125 64.59375 
L 19.828125 46.734375 
Q 21.96875 47.46875 24.109375 47.828125 
Q 26.265625 48.1875 28.421875 48.1875 
Q 40.625 48.1875 47.75 41.5 
Q 54.890625 34.8125 54.890625 23.390625 
Q 54.890625 11.625 47.5625 5.09375 
Q 40.234375 -1.421875 26.90625 -1.421875 
Q 22.3125 -1.421875 17.546875 -0.640625 
Q 12.796875 0.140625 7.71875 1.703125 
L 7.71875 11.625 
Q 12.109375 9.234375 16.796875 8.0625 
Q 21.484375 6.890625 26.703125 6.890625 
Q 35.15625 6.890625 40.078125 11.328125 
Q 45.015625 15.765625 45.015625 23.390625 
Q 45.015625 31 40.078125 35.4375 
Q 35.15625 39.890625 26.703125 39.890625 
Q 22.75 39.890625 18.8125 39.015625 
Q 14.890625 38.140625 10.796875 36.28125 
z
" id="DejaVuSans-53"/>
       </defs>
       <use xlink:href="#DejaVuSans-48"/>
       <use x="63.623047" xlink:href="#DejaVuSans-46"/>
       <use x="95.410156" xlink:href="#DejaVuSans-51"/>
       <use x="159.033203" xlink:href="#DejaVuSans-53"/>
      </g>
     </g>
    </g>
    <g id="ytick_7">
     <g id="line2d_13">
      <g>
       <use style="stroke:#000000;stroke-width:0.8;" x="117" xlink:href="#m6edfd8ad14" y="84.848086"/>
      </g>
     </g>
     <g id="text_14">
      <!-- 0.36 -->
      <g transform="translate(87.734375 88.647304)scale(0.1 -0.1)">
       <use xlink:href="#DejaVuSans-48"/>
       <use x="63.623047" xlink:href="#DejaVuSans-46"/>
       <use x="95.410156" xlink:href="#DejaVuSans-51"/>
       <use x="159.033203" xlink:href="#DejaVuSans-54"/>
      </g>
     </g>
    </g>
    <g id="ytick_8">
     <g id="line2d_14">
      <g>
       <use style="stroke:#000000;stroke-width:0.8;" x="117" xlink:href="#m6edfd8ad14" y="47.689433"/>
      </g>
     </g>
     <g id="text_15">
      <!-- 0.37 -->
      <g transform="translate(87.734375 51.488652)scale(0.1 -0.1)">
       <defs>
        <path d="M 8.203125 72.90625 
L 55.078125 72.90625 
L 55.078125 68.703125 
L 28.609375 0 
L 18.3125 0 
L 43.21875 64.59375 
L 8.203125 64.59375 
z
" id="DejaVuSans-55"/>
       </defs>
       <use xlink:href="#DejaVuSans-48"/>
       <use x="63.623047" xlink:href="#DejaVuSans-46"/>
       <use x="95.410156" xlink:href="#DejaVuSans-51"/>
       <use x="159.033203" xlink:href="#DejaVuSans-55"/>
      </g>
     </g>
    </g>
    <g id="text_16">
     <!-- Probability -->
     <g transform="translate(81.654687 208.228906)rotate(-90)scale(0.1 -0.1)">
      <defs>
       <path d="M 19.671875 64.796875 
L 19.671875 37.40625 
L 32.078125 37.40625 
Q 38.96875 37.40625 42.71875 40.96875 
Q 46.484375 44.53125 46.484375 51.125 
Q 46.484375 57.671875 42.71875 61.234375 
Q 38.96875 64.796875 32.078125 64.796875 
z
M 9.8125 72.90625 
L 32.078125 72.90625 
Q 44.34375 72.90625 50.609375 67.359375 
Q 56.890625 61.8125 56.890625 51.125 
Q 56.890625 40.328125 50.609375 34.8125 
Q 44.34375 29.296875 32.078125 29.296875 
L 19.671875 29.296875 
L 19.671875 0 
L 9.8125 0 
z
" id="DejaVuSans-80"/>
       <path d="M 41.109375 46.296875 
Q 39.59375 47.171875 37.8125 47.578125 
Q 36.03125 48 33.890625 48 
Q 26.265625 48 22.1875 43.046875 
Q 18.109375 38.09375 18.109375 28.8125 
L 18.109375 0 
L 9.078125 0 
L 9.078125 54.6875 
L 18.109375 54.6875 
L 18.109375 46.1875 
Q 20.953125 51.171875 25.484375 53.578125 
Q 30.03125 56 36.53125 56 
Q 37.453125 56 38.578125 55.875 
Q 39.703125 55.765625 41.0625 55.515625 
z
" id="DejaVuSans-114"/>
       <path d="M 48.6875 27.296875 
Q 48.6875 37.203125 44.609375 42.84375 
Q 40.53125 48.484375 33.40625 48.484375 
Q 26.265625 48.484375 22.1875 42.84375 
Q 18.109375 37.203125 18.109375 27.296875 
Q 18.109375 17.390625 22.1875 11.75 
Q 26.265625 6.109375 33.40625 6.109375 
Q 40.53125 6.109375 44.609375 11.75 
Q 48.6875 17.390625 48.6875 27.296875 
z
M 18.109375 46.390625 
Q 20.953125 51.265625 25.265625 53.625 
Q 29.59375 56 35.59375 56 
Q 45.5625 56 51.78125 48.09375 
Q 58.015625 40.1875 58.015625 27.296875 
Q 58.015625 14.40625 51.78125 6.484375 
Q 45.5625 -1.421875 35.59375 -1.421875 
Q 29.59375 -1.421875 25.265625 0.953125 
Q 20.953125 3.328125 18.109375 8.203125 
L 18.109375 0 
L 9.078125 0 
L 9.078125 75.984375 
L 18.109375 75.984375 
z
" id="DejaVuSans-98"/>
       <path d="M 34.28125 27.484375 
Q 23.390625 27.484375 19.1875 25 
Q 14.984375 22.515625 14.984375 16.5 
Q 14.984375 11.71875 18.140625 8.90625 
Q 21.296875 6.109375 26.703125 6.109375 
Q 34.1875 6.109375 38.703125 11.40625 
Q 43.21875 16.703125 43.21875 25.484375 
L 43.21875 27.484375 
z
M 52.203125 31.203125 
L 52.203125 0 
L 43.21875 0 
L 43.21875 8.296875 
Q 40.140625 3.328125 35.546875 0.953125 
Q 30.953125 -1.421875 24.3125 -1.421875 
Q 15.921875 -1.421875 10.953125 3.296875 
Q 6 8.015625 6 15.921875 
Q 6 25.140625 12.171875 29.828125 
Q 18.359375 34.515625 30.609375 34.515625 
L 43.21875 34.515625 
L 43.21875 35.40625 
Q 43.21875 41.609375 39.140625 45 
Q 35.0625 48.390625 27.6875 48.390625 
Q 23 48.390625 18.546875 47.265625 
Q 14.109375 46.140625 10.015625 43.890625 
L 10.015625 52.203125 
Q 14.9375 54.109375 19.578125 55.046875 
Q 24.21875 56 28.609375 56 
Q 40.484375 56 46.34375 49.84375 
Q 52.203125 43.703125 52.203125 31.203125 
z
" id="DejaVuSans-97"/>
       <path d="M 9.421875 75.984375 
L 18.40625 75.984375 
L 18.40625 0 
L 9.421875 0 
z
" id="DejaVuSans-108"/>
       <path d="M 32.171875 -5.078125 
Q 28.375 -14.84375 24.75 -17.8125 
Q 21.140625 -20.796875 15.09375 -20.796875 
L 7.90625 -20.796875 
L 7.90625 -13.28125 
L 13.1875 -13.28125 
Q 16.890625 -13.28125 18.9375 -11.515625 
Q 21 -9.765625 23.484375 -3.21875 
L 25.09375 0.875 
L 2.984375 54.6875 
L 12.5 54.6875 
L 29.59375 11.921875 
L 46.6875 54.6875 
L 56.203125 54.6875 
z
" id="DejaVuSans-121"/>
      </defs>
      <use xlink:href="#DejaVuSans-80"/>
      <use x="58.552734" xlink:href="#DejaVuSans-114"/>
      <use x="97.416016" xlink:href="#DejaVuSans-111"/>
      <use x="158.597656" xlink:href="#DejaVuSans-98"/>
      <use x="222.074219" xlink:href="#DejaVuSans-97"/>
      <use x="283.353516" xlink:href="#DejaVuSans-98"/>
      <use x="346.830078" xlink:href="#DejaVuSans-105"/>
      <use x="374.613281" xlink:href="#DejaVuSans-108"/>
      <use x="402.396484" xlink:href="#DejaVuSans-105"/>
      <use x="430.179688" xlink:href="#DejaVuSans-116"/>
      <use x="469.388672" xlink:href="#DejaVuSans-121"/>
     </g>
    </g>
   </g>
   <g id="line2d_15">
    <path clip-path="url(#p95e1c29362)" d="M 131.987603 307.8 
L 134.38802 307.674921 
L 136.788437 307.299886 
L 139.188854 306.675514 
L 141.589271 305.802851 
L 143.989688 304.683344 
L 146.390105 303.318863 
L 148.790522 301.711722 
L 151.490991 299.617029 
L 154.19146 297.22318 
L 156.891929 294.535331 
L 159.89245 291.21114 
L 162.892971 287.540188 
L 165.893493 283.532469 
L 169.194066 278.74818 
L 172.494639 273.585809 
L 176.095265 267.543558 
L 179.995942 260.542307 
L 184.196672 252.510954 
L 188.697454 243.391496 
L 193.498288 233.144976 
L 198.899226 221.074514 
L 205.20032 206.422095 
L 213.601779 186.271797 
L 230.404698 145.830428 
L 236.705793 131.316444 
L 242.106731 119.434265 
L 246.907565 109.425013 
L 251.108294 101.171403 
L 255.008972 93.984461 
L 258.609597 87.798905 
L 261.910171 82.536911 
L 265.210744 77.690448 
L 268.211265 73.664215 
L 271.211786 70.015663 
L 273.912255 67.06658 
L 276.612724 64.444213 
L 279.013141 62.394272 
L 281.413558 60.614238 
L 283.813975 59.108602 
L 286.214392 57.881166 
L 288.314757 57.037811 
L 290.415122 56.411434 
L 292.515487 56.00328 
L 294.615851 55.814143 
L 296.716216 55.844375 
L 298.816581 56.093909 
L 300.916946 56.562288 
L 303.017311 57.248598 
L 305.117676 58.151491 
L 307.518092 59.446312 
L 309.918509 61.01848 
L 312.318926 62.864017 
L 314.719343 64.978258 
L 317.419812 67.671365 
L 320.120281 70.689311 
L 322.820751 74.02253 
L 325.821272 78.083119 
L 328.821793 82.504278 
L 332.122366 87.763632 
L 335.722992 93.946513 
L 339.623669 101.13077 
L 343.824399 109.381792 
L 348.325181 118.746663 
L 353.126014 129.248047 
L 358.827005 142.272336 
L 366.028256 159.333742 
L 391.532686 220.339798 
L 397.233676 233.097534 
L 402.334562 243.969742 
L 406.835344 253.057862 
L 411.036073 261.056693 
L 414.936751 268.025118 
L 418.537376 274.034988 
L 422.138002 279.613975 
L 425.438575 284.330269 
L 428.739148 288.649757 
L 431.739669 292.220146 
L 431.739669 292.220146 
" style="fill:none;stroke:#1f77b4;stroke-linecap:square;stroke-width:1.5;"/>
   </g>
   <g id="line2d_16">
    <path clip-path="url(#p95e1c29362)" d="M 131.987603 122.006738 
L 137.088489 133.335365 
L 143.089532 147.224794 
L 150.890887 165.877753 
L 170.094222 212.048242 
L 176.395317 226.487256 
L 181.796255 238.315438 
L 186.597089 248.303625 
L 191.097871 257.146707 
L 195.2986 264.892444 
L 199.199278 271.606393 
L 202.799903 277.36605 
L 206.100477 282.255913 
L 209.40105 286.755897 
L 212.401571 290.495827 
L 215.402092 293.890945 
L 218.402613 296.932068 
L 221.103082 299.359631 
L 223.803551 301.488577 
L 226.504021 303.31434 
L 228.904437 304.679537 
L 231.304854 305.799784 
L 233.705271 306.673203 
L 236.105688 307.298333 
L 238.506105 307.674126 
L 240.906522 307.799958 
L 243.306939 307.67562 
L 245.707356 307.301316 
L 248.107773 306.677673 
L 250.50819 305.805732 
L 252.908607 304.686954 
L 255.309024 303.323214 
L 257.709441 301.716809 
L 260.40991 299.622937 
L 263.110379 297.229883 
L 265.810848 294.542812 
L 268.811369 291.219464 
L 271.81189 287.549336 
L 274.812412 283.542429 
L 278.112985 278.759007 
L 281.413558 273.597465 
L 285.014184 267.556067 
L 288.914861 260.555673 
L 293.115591 252.52518 
L 297.616373 243.406553 
L 302.417206 233.160799 
L 307.818145 221.09106 
L 314.119239 206.439268 
L 322.520698 186.289431 
L 339.323617 145.847561 
L 345.624711 131.332915 
L 351.02565 119.449975 
L 355.826484 109.439897 
L 360.027213 101.185446 
L 363.927891 93.99764 
L 367.528516 87.811214 
L 370.829089 82.548365 
L 374.129663 77.701011 
L 377.130184 73.673928 
L 380.130705 70.024477 
L 382.831174 67.074538 
L 385.531643 64.451303 
L 387.93206 62.400568 
L 390.332477 60.619722 
L 392.732894 59.113247 
L 395.133311 57.884944 
L 397.233676 57.040823 
L 399.334041 56.413698 
L 401.434405 56.004783 
L 403.53477 55.814872 
L 405.635135 55.844333 
L 407.7355 56.093109 
L 409.835865 56.560718 
L 411.93623 57.246252 
L 414.036594 58.148389 
L 416.437011 59.442373 
L 418.837428 61.013697 
L 421.237845 62.858389 
L 423.638262 64.971812 
L 426.338731 67.664002 
L 429.0392 70.68105 
L 431.739669 74.013418 
L 431.739669 74.013418 
" style="fill:none;stroke:#ff7f0e;stroke-linecap:square;stroke-width:1.5;"/>
   </g>
   <g id="line2d_17">
    <path clip-path="url(#p95e1c29362)" d="M 131.987603 122.006738 
L 136.788437 111.858128 
L 140.989167 103.463633 
L 144.889844 96.130783 
L 148.49047 89.798358 
L 152.091095 83.920412 
L 155.391669 78.959189 
L 158.39219 74.823436 
L 161.392711 71.060858 
L 164.09318 68.005708 
L 166.793649 65.274317 
L 169.494118 62.875356 
L 171.894535 61.028229 
L 174.294952 59.454471 
L 176.695369 58.158013 
L 178.795734 57.253663 
L 180.896099 56.565904 
L 182.996463 56.096062 
L 185.096828 55.845037 
L 187.197193 55.813333 
L 189.297558 56.001005 
L 191.397923 56.407679 
L 193.498288 57.032578 
L 195.598652 57.874494 
L 197.699017 58.931785 
L 200.099434 60.401207 
L 202.499851 62.145559 
L 204.900268 64.160432 
L 207.600737 66.744204 
L 210.301206 69.655748 
L 213.001675 72.885839 
L 216.002196 76.836014 
L 219.002718 81.15156 
L 222.303291 86.300798 
L 225.903916 92.371254 
L 229.504542 98.882107 
L 233.405219 106.391355 
L 237.605949 114.955109 
L 242.406783 125.269589 
L 247.807721 137.429856 
L 254.408868 152.891996 
L 264.010535 176.043638 
L 276.912776 207.097037 
L 283.513923 222.407884 
L 289.214913 235.07228 
L 294.015747 245.225422 
L 298.516529 254.244531 
L 302.717259 262.17184 
L 306.617936 269.068189 
L 310.218562 275.007056 
L 313.819187 280.511091 
L 317.11976 285.15551 
L 320.420334 289.400368 
L 323.420855 292.900766 
L 326.421376 296.049824 
L 329.121845 298.576563 
L 331.822314 300.806379 
L 334.522783 302.734467 
L 336.9232 304.191669 
L 339.323617 305.404745 
L 341.724034 306.371654 
L 344.124451 307.090776 
L 346.524868 307.560912 
L 348.925285 307.781275 
L 351.325702 307.751498 
L 353.726119 307.47163 
L 356.126536 306.942138 
L 358.526953 306.163907 
L 360.92737 305.138239 
L 363.327786 303.866851 
L 365.728203 302.351882 
L 368.12862 300.595886 
L 370.829089 298.336009 
L 373.529558 295.779726 
L 376.230028 292.932574 
L 379.230549 289.435503 
L 382.23107 285.596502 
L 385.531643 280.991228 
L 388.832217 276.000319 
L 392.432842 270.135721 
L 396.033467 263.856124 
L 399.934145 256.614973 
L 404.134875 248.346926 
L 408.635656 239.000736 
L 413.736542 227.876905 
L 419.437533 214.89302 
L 426.338731 198.60118 
L 431.739669 185.579912 
L 431.739669 185.579912 
" style="fill:none;stroke:#2ca02c;stroke-linecap:square;stroke-width:1.5;"/>
   </g>
   <g id="patch_3">
    <path d="M 117 320.4 
L 117 43.2 
" style="fill:none;stroke:#000000;stroke-linecap:square;stroke-linejoin:miter;stroke-width:0.8;"/>
   </g>
   <g id="patch_4">
    <path d="M 446.727273 320.4 
L 446.727273 43.2 
" style="fill:none;stroke:#000000;stroke-linecap:square;stroke-linejoin:miter;stroke-width:0.8;"/>
   </g>
   <g id="patch_5">
    <path d="M 117 320.4 
L 446.727273 320.4 
" style="fill:none;stroke:#000000;stroke-linecap:square;stroke-linejoin:miter;stroke-width:0.8;"/>
   </g>
   <g id="patch_6">
    <path d="M 117 43.2 
L 446.727273 43.2 
" style="fill:none;stroke:#000000;stroke-linecap:square;stroke-linejoin:miter;stroke-width:0.8;"/>
   </g>
   <g id="text_17">
    <!-- Probability distribution of strategies over time for row player -->
    <g transform="translate(100.001761 37.2)scale(0.12 -0.12)">
     <defs>
      <path id="DejaVuSans-32"/>
      <path d="M 45.40625 46.390625 
L 45.40625 75.984375 
L 54.390625 75.984375 
L 54.390625 0 
L 45.40625 0 
L 45.40625 8.203125 
Q 42.578125 3.328125 38.25 0.953125 
Q 33.9375 -1.421875 27.875 -1.421875 
Q 17.96875 -1.421875 11.734375 6.484375 
Q 5.515625 14.40625 5.515625 27.296875 
Q 5.515625 40.1875 11.734375 48.09375 
Q 17.96875 56 27.875 56 
Q 33.9375 56 38.25 53.625 
Q 42.578125 51.265625 45.40625 46.390625 
z
M 14.796875 27.296875 
Q 14.796875 17.390625 18.875 11.75 
Q 22.953125 6.109375 30.078125 6.109375 
Q 37.203125 6.109375 41.296875 11.75 
Q 45.40625 17.390625 45.40625 27.296875 
Q 45.40625 37.203125 41.296875 42.84375 
Q 37.203125 48.484375 30.078125 48.484375 
Q 22.953125 48.484375 18.875 42.84375 
Q 14.796875 37.203125 14.796875 27.296875 
z
" id="DejaVuSans-100"/>
      <path d="M 8.5 21.578125 
L 8.5 54.6875 
L 17.484375 54.6875 
L 17.484375 21.921875 
Q 17.484375 14.15625 20.5 10.265625 
Q 23.53125 6.390625 29.59375 6.390625 
Q 36.859375 6.390625 41.078125 11.03125 
Q 45.3125 15.671875 45.3125 23.6875 
L 45.3125 54.6875 
L 54.296875 54.6875 
L 54.296875 0 
L 45.3125 0 
L 45.3125 8.40625 
Q 42.046875 3.421875 37.71875 1 
Q 33.40625 -1.421875 27.6875 -1.421875 
Q 18.265625 -1.421875 13.375 4.4375 
Q 8.5 10.296875 8.5 21.578125 
z
M 31.109375 56 
z
" id="DejaVuSans-117"/>
      <path d="M 37.109375 75.984375 
L 37.109375 68.5 
L 28.515625 68.5 
Q 23.6875 68.5 21.796875 66.546875 
Q 19.921875 64.59375 19.921875 59.515625 
L 19.921875 54.6875 
L 34.71875 54.6875 
L 34.71875 47.703125 
L 19.921875 47.703125 
L 19.921875 0 
L 10.890625 0 
L 10.890625 47.703125 
L 2.296875 47.703125 
L 2.296875 54.6875 
L 10.890625 54.6875 
L 10.890625 58.5 
Q 10.890625 67.625 15.140625 71.796875 
Q 19.390625 75.984375 28.609375 75.984375 
z
" id="DejaVuSans-102"/>
      <path d="M 45.40625 27.984375 
Q 45.40625 37.75 41.375 43.109375 
Q 37.359375 48.484375 30.078125 48.484375 
Q 22.859375 48.484375 18.828125 43.109375 
Q 14.796875 37.75 14.796875 27.984375 
Q 14.796875 18.265625 18.828125 12.890625 
Q 22.859375 7.515625 30.078125 7.515625 
Q 37.359375 7.515625 41.375 12.890625 
Q 45.40625 18.265625 45.40625 27.984375 
z
M 54.390625 6.78125 
Q 54.390625 -7.171875 48.1875 -13.984375 
Q 42 -20.796875 29.203125 -20.796875 
Q 24.46875 -20.796875 20.265625 -20.09375 
Q 16.0625 -19.390625 12.109375 -17.921875 
L 12.109375 -9.1875 
Q 16.0625 -11.328125 19.921875 -12.34375 
Q 23.78125 -13.375 27.78125 -13.375 
Q 36.625 -13.375 41.015625 -8.765625 
Q 45.40625 -4.15625 45.40625 5.171875 
L 45.40625 9.625 
Q 42.625 4.78125 38.28125 2.390625 
Q 33.9375 0 27.875 0 
Q 17.828125 0 11.671875 7.65625 
Q 5.515625 15.328125 5.515625 27.984375 
Q 5.515625 40.671875 11.671875 48.328125 
Q 17.828125 56 27.875 56 
Q 33.9375 56 38.28125 53.609375 
Q 42.625 51.21875 45.40625 46.390625 
L 45.40625 54.6875 
L 54.390625 54.6875 
z
" id="DejaVuSans-103"/>
      <path d="M 2.984375 54.6875 
L 12.5 54.6875 
L 29.59375 8.796875 
L 46.6875 54.6875 
L 56.203125 54.6875 
L 35.6875 0 
L 23.484375 0 
z
" id="DejaVuSans-118"/>
      <path d="M 4.203125 54.6875 
L 13.1875 54.6875 
L 24.421875 12.015625 
L 35.59375 54.6875 
L 46.1875 54.6875 
L 57.421875 12.015625 
L 68.609375 54.6875 
L 77.59375 54.6875 
L 63.28125 0 
L 52.6875 0 
L 40.921875 44.828125 
L 29.109375 0 
L 18.5 0 
z
" id="DejaVuSans-119"/>
     </defs>
     <use xlink:href="#DejaVuSans-80"/>
     <use x="58.552734" xlink:href="#DejaVuSans-114"/>
     <use x="97.416016" xlink:href="#DejaVuSans-111"/>
     <use x="158.597656" xlink:href="#DejaVuSans-98"/>
     <use x="222.074219" xlink:href="#DejaVuSans-97"/>
     <use x="283.353516" xlink:href="#DejaVuSans-98"/>
     <use x="346.830078" xlink:href="#DejaVuSans-105"/>
     <use x="374.613281" xlink:href="#DejaVuSans-108"/>
     <use x="402.396484" xlink:href="#DejaVuSans-105"/>
     <use x="430.179688" xlink:href="#DejaVuSans-116"/>
     <use x="469.388672" xlink:href="#DejaVuSans-121"/>
     <use x="528.568359" xlink:href="#DejaVuSans-32"/>
     <use x="560.355469" xlink:href="#DejaVuSans-100"/>
     <use x="623.832031" xlink:href="#DejaVuSans-105"/>
     <use x="651.615234" xlink:href="#DejaVuSans-115"/>
     <use x="703.714844" xlink:href="#DejaVuSans-116"/>
     <use x="742.923828" xlink:href="#DejaVuSans-114"/>
     <use x="784.037109" xlink:href="#DejaVuSans-105"/>
     <use x="811.820312" xlink:href="#DejaVuSans-98"/>
     <use x="875.296875" xlink:href="#DejaVuSans-117"/>
     <use x="938.675781" xlink:href="#DejaVuSans-116"/>
     <use x="977.884766" xlink:href="#DejaVuSans-105"/>
     <use x="1005.667969" xlink:href="#DejaVuSans-111"/>
     <use x="1066.849609" xlink:href="#DejaVuSans-110"/>
     <use x="1130.228516" xlink:href="#DejaVuSans-32"/>
     <use x="1162.015625" xlink:href="#DejaVuSans-111"/>
     <use x="1223.197266" xlink:href="#DejaVuSans-102"/>
     <use x="1258.402344" xlink:href="#DejaVuSans-32"/>
     <use x="1290.189453" xlink:href="#DejaVuSans-115"/>
     <use x="1342.289062" xlink:href="#DejaVuSans-116"/>
     <use x="1381.498047" xlink:href="#DejaVuSans-114"/>
     <use x="1422.611328" xlink:href="#DejaVuSans-97"/>
     <use x="1483.890625" xlink:href="#DejaVuSans-116"/>
     <use x="1523.099609" xlink:href="#DejaVuSans-101"/>
     <use x="1584.623047" xlink:href="#DejaVuSans-103"/>
     <use x="1648.099609" xlink:href="#DejaVuSans-105"/>
     <use x="1675.882812" xlink:href="#DejaVuSans-101"/>
     <use x="1737.40625" xlink:href="#DejaVuSans-115"/>
     <use x="1789.505859" xlink:href="#DejaVuSans-32"/>
     <use x="1821.292969" xlink:href="#DejaVuSans-111"/>
     <use x="1882.474609" xlink:href="#DejaVuSans-118"/>
     <use x="1941.654297" xlink:href="#DejaVuSans-101"/>
     <use x="2003.177734" xlink:href="#DejaVuSans-114"/>
     <use x="2044.291016" xlink:href="#DejaVuSans-32"/>
     <use x="2076.078125" xlink:href="#DejaVuSans-116"/>
     <use x="2115.287109" xlink:href="#DejaVuSans-105"/>
     <use x="2143.070312" xlink:href="#DejaVuSans-109"/>
     <use x="2240.482422" xlink:href="#DejaVuSans-101"/>
     <use x="2302.005859" xlink:href="#DejaVuSans-32"/>
     <use x="2333.792969" xlink:href="#DejaVuSans-102"/>
     <use x="2368.998047" xlink:href="#DejaVuSans-111"/>
     <use x="2430.179688" xlink:href="#DejaVuSans-114"/>
     <use x="2471.292969" xlink:href="#DejaVuSans-32"/>
     <use x="2503.080078" xlink:href="#DejaVuSans-114"/>
     <use x="2541.943359" xlink:href="#DejaVuSans-111"/>
     <use x="2603.125" xlink:href="#DejaVuSans-119"/>
     <use x="2684.912109" xlink:href="#DejaVuSans-32"/>
     <use x="2716.699219" xlink:href="#DejaVuSans-112"/>
     <use x="2780.175781" xlink:href="#DejaVuSans-108"/>
     <use x="2807.958984" xlink:href="#DejaVuSans-97"/>
     <use x="2869.238281" xlink:href="#DejaVuSans-121"/>
     <use x="2928.417969" xlink:href="#DejaVuSans-101"/>
     <use x="2989.941406" xlink:href="#DejaVuSans-114"/>
    </g>
   </g>
   <g id="legend_1">
    <g id="patch_7">
     <path d="M 397.727273 205.317187 
L 439.727273 205.317187 
Q 441.727273 205.317187 441.727273 203.317187 
L 441.727273 160.282812 
Q 441.727273 158.282812 439.727273 158.282812 
L 397.727273 158.282812 
Q 395.727273 158.282812 395.727273 160.282812 
L 395.727273 203.317187 
Q 395.727273 205.317187 397.727273 205.317187 
z
" style="fill:#ffffff;opacity:0.8;stroke:#cccccc;stroke-linejoin:miter;"/>
    </g>
    <g id="line2d_18">
     <path d="M 399.727273 166.38125 
L 419.727273 166.38125 
" style="fill:none;stroke:#1f77b4;stroke-linecap:square;stroke-width:1.5;"/>
    </g>
    <g id="line2d_19"/>
    <g id="text_18">
     <!-- $s_0$ -->
     <g transform="translate(427.727273 169.88125)scale(0.1 -0.1)">
      <defs>
       <path d="M 50 53.078125 
L 48.296875 44.578125 
Q 44.734375 46.53125 40.765625 47.5 
Q 36.8125 48.484375 32.625 48.484375 
Q 25.53125 48.484375 21.453125 46.0625 
Q 17.390625 43.65625 17.390625 39.5 
Q 17.390625 34.671875 26.859375 32.078125 
Q 27.59375 31.890625 27.9375 31.78125 
L 30.8125 30.90625 
Q 39.796875 28.421875 42.796875 25.6875 
Q 45.796875 22.953125 45.796875 18.21875 
Q 45.796875 9.515625 38.890625 4.046875 
Q 31.984375 -1.421875 20.796875 -1.421875 
Q 16.453125 -1.421875 11.671875 -0.578125 
Q 6.890625 0.25 1.125 2 
L 2.875 11.28125 
Q 7.8125 8.734375 12.59375 7.421875 
Q 17.390625 6.109375 21.78125 6.109375 
Q 28.375 6.109375 32.5 8.9375 
Q 36.625 11.765625 36.625 16.109375 
Q 36.625 20.796875 25.78125 23.6875 
L 24.859375 23.921875 
L 21.78125 24.703125 
Q 14.9375 26.515625 11.765625 29.46875 
Q 8.59375 32.421875 8.59375 37.015625 
Q 8.59375 45.75 15.15625 50.875 
Q 21.734375 56 33.015625 56 
Q 37.453125 56 41.671875 55.265625 
Q 45.90625 54.546875 50 53.078125 
z
" id="DejaVuSans-Oblique-115"/>
      </defs>
      <use xlink:href="#DejaVuSans-Oblique-115"/>
      <use transform="translate(52.099609 -16.40625)scale(0.7)" xlink:href="#DejaVuSans-48"/>
     </g>
    </g>
    <g id="line2d_20">
     <path d="M 399.727273 181.059375 
L 419.727273 181.059375 
" style="fill:none;stroke:#ff7f0e;stroke-linecap:square;stroke-width:1.5;"/>
    </g>
    <g id="line2d_21"/>
    <g id="text_19">
     <!-- $s_1$ -->
     <g transform="translate(427.727273 184.559375)scale(0.1 -0.1)">
      <use xlink:href="#DejaVuSans-Oblique-115"/>
      <use transform="translate(52.099609 -16.40625)scale(0.7)" xlink:href="#DejaVuSans-49"/>
     </g>
    </g>
    <g id="line2d_22">
     <path d="M 399.727273 195.7375 
L 419.727273 195.7375 
" style="fill:none;stroke:#2ca02c;stroke-linecap:square;stroke-width:1.5;"/>
    </g>
    <g id="line2d_23"/>
    <g id="text_20">
     <!-- $s_2$ -->
     <g transform="translate(427.727273 199.2375)scale(0.1 -0.1)">
      <use xlink:href="#DejaVuSans-Oblique-115"/>
      <use transform="translate(52.099609 -16.40625)scale(0.7)" xlink:href="#DejaVuSans-50"/>
     </g>
    </g>
   </g>
  </g>
  <g id="axes_2">
   <g id="patch_8">
    <path d="M 512.672727 320.4 
L 842.4 320.4 
L 842.4 43.2 
L 512.672727 43.2 
z
" style="fill:none;"/>
   </g>
   <g id="matplotlib.axis_3">
    <g id="xtick_7">
     <g id="line2d_24">
      <g>
       <use style="stroke:#000000;stroke-width:0.8;" x="527.660331" xlink:href="#m425bf4a9db" y="320.4"/>
      </g>
     </g>
     <g id="text_21">
      <!-- 0 -->
      <g transform="translate(524.479081 334.998438)scale(0.1 -0.1)">
       <use xlink:href="#DejaVuSans-48"/>
      </g>
     </g>
    </g>
    <g id="xtick_8">
     <g id="line2d_25">
      <g>
       <use style="stroke:#000000;stroke-width:0.8;" x="587.670754" xlink:href="#m425bf4a9db" y="320.4"/>
      </g>
     </g>
     <g id="text_22">
      <!-- 200 -->
      <g transform="translate(578.127004 334.998438)scale(0.1 -0.1)">
       <use xlink:href="#DejaVuSans-50"/>
       <use x="63.623047" xlink:href="#DejaVuSans-48"/>
       <use x="127.246094" xlink:href="#DejaVuSans-48"/>
      </g>
     </g>
    </g>
    <g id="xtick_9">
     <g id="line2d_26">
      <g>
       <use style="stroke:#000000;stroke-width:0.8;" x="647.681178" xlink:href="#m425bf4a9db" y="320.4"/>
      </g>
     </g>
     <g id="text_23">
      <!-- 400 -->
      <g transform="translate(638.137428 334.998438)scale(0.1 -0.1)">
       <use xlink:href="#DejaVuSans-52"/>
       <use x="63.623047" xlink:href="#DejaVuSans-48"/>
       <use x="127.246094" xlink:href="#DejaVuSans-48"/>
      </g>
     </g>
    </g>
    <g id="xtick_10">
     <g id="line2d_27">
      <g>
       <use style="stroke:#000000;stroke-width:0.8;" x="707.691602" xlink:href="#m425bf4a9db" y="320.4"/>
      </g>
     </g>
     <g id="text_24">
      <!-- 600 -->
      <g transform="translate(698.147852 334.998438)scale(0.1 -0.1)">
       <use xlink:href="#DejaVuSans-54"/>
       <use x="63.623047" xlink:href="#DejaVuSans-48"/>
       <use x="127.246094" xlink:href="#DejaVuSans-48"/>
      </g>
     </g>
    </g>
    <g id="xtick_11">
     <g id="line2d_28">
      <g>
       <use style="stroke:#000000;stroke-width:0.8;" x="767.702025" xlink:href="#m425bf4a9db" y="320.4"/>
      </g>
     </g>
     <g id="text_25">
      <!-- 800 -->
      <g transform="translate(758.158275 334.998438)scale(0.1 -0.1)">
       <use xlink:href="#DejaVuSans-56"/>
       <use x="63.623047" xlink:href="#DejaVuSans-48"/>
       <use x="127.246094" xlink:href="#DejaVuSans-48"/>
      </g>
     </g>
    </g>
    <g id="xtick_12">
     <g id="line2d_29">
      <g>
       <use style="stroke:#000000;stroke-width:0.8;" x="827.712449" xlink:href="#m425bf4a9db" y="320.4"/>
      </g>
     </g>
     <g id="text_26">
      <!-- 1000 -->
      <g transform="translate(814.987449 334.998438)scale(0.1 -0.1)">
       <use xlink:href="#DejaVuSans-49"/>
       <use x="63.623047" xlink:href="#DejaVuSans-48"/>
       <use x="127.246094" xlink:href="#DejaVuSans-48"/>
       <use x="190.869141" xlink:href="#DejaVuSans-48"/>
      </g>
     </g>
    </g>
    <g id="text_27">
     <!-- Timepoints -->
     <g transform="translate(649.94652 348.676562)scale(0.1 -0.1)">
      <use xlink:href="#DejaVuSans-84"/>
      <use x="57.958984" xlink:href="#DejaVuSans-105"/>
      <use x="85.742188" xlink:href="#DejaVuSans-109"/>
      <use x="183.154297" xlink:href="#DejaVuSans-101"/>
      <use x="244.677734" xlink:href="#DejaVuSans-112"/>
      <use x="308.154297" xlink:href="#DejaVuSans-111"/>
      <use x="369.335938" xlink:href="#DejaVuSans-105"/>
      <use x="397.119141" xlink:href="#DejaVuSans-110"/>
      <use x="460.498047" xlink:href="#DejaVuSans-116"/>
      <use x="499.707031" xlink:href="#DejaVuSans-115"/>
     </g>
    </g>
   </g>
   <g id="matplotlib.axis_4">
    <g id="ytick_9">
     <g id="line2d_30">
      <g>
       <use style="stroke:#000000;stroke-width:0.8;" x="512.672727" xlink:href="#m6edfd8ad14" y="307.8"/>
      </g>
     </g>
     <g id="text_28">
      <!-- 0.30 -->
      <g transform="translate(483.407102 311.599219)scale(0.1 -0.1)">
       <use xlink:href="#DejaVuSans-48"/>
       <use x="63.623047" xlink:href="#DejaVuSans-46"/>
       <use x="95.410156" xlink:href="#DejaVuSans-51"/>
       <use x="159.033203" xlink:href="#DejaVuSans-48"/>
      </g>
     </g>
    </g>
    <g id="ytick_10">
     <g id="line2d_31">
      <g>
       <use style="stroke:#000000;stroke-width:0.8;" x="512.672727" xlink:href="#m6edfd8ad14" y="270.641348"/>
      </g>
     </g>
     <g id="text_29">
      <!-- 0.31 -->
      <g transform="translate(483.407102 274.440566)scale(0.1 -0.1)">
       <use xlink:href="#DejaVuSans-48"/>
       <use x="63.623047" xlink:href="#DejaVuSans-46"/>
       <use x="95.410156" xlink:href="#DejaVuSans-51"/>
       <use x="159.033203" xlink:href="#DejaVuSans-49"/>
      </g>
     </g>
    </g>
    <g id="ytick_11">
     <g id="line2d_32">
      <g>
       <use style="stroke:#000000;stroke-width:0.8;" x="512.672727" xlink:href="#m6edfd8ad14" y="233.482695"/>
      </g>
     </g>
     <g id="text_30">
      <!-- 0.32 -->
      <g transform="translate(483.407102 237.281914)scale(0.1 -0.1)">
       <use xlink:href="#DejaVuSans-48"/>
       <use x="63.623047" xlink:href="#DejaVuSans-46"/>
       <use x="95.410156" xlink:href="#DejaVuSans-51"/>
       <use x="159.033203" xlink:href="#DejaVuSans-50"/>
      </g>
     </g>
    </g>
    <g id="ytick_12">
     <g id="line2d_33">
      <g>
       <use style="stroke:#000000;stroke-width:0.8;" x="512.672727" xlink:href="#m6edfd8ad14" y="196.324043"/>
      </g>
     </g>
     <g id="text_31">
      <!-- 0.33 -->
      <g transform="translate(483.407102 200.123262)scale(0.1 -0.1)">
       <use xlink:href="#DejaVuSans-48"/>
       <use x="63.623047" xlink:href="#DejaVuSans-46"/>
       <use x="95.410156" xlink:href="#DejaVuSans-51"/>
       <use x="159.033203" xlink:href="#DejaVuSans-51"/>
      </g>
     </g>
    </g>
    <g id="ytick_13">
     <g id="line2d_34">
      <g>
       <use style="stroke:#000000;stroke-width:0.8;" x="512.672727" xlink:href="#m6edfd8ad14" y="159.16539"/>
      </g>
     </g>
     <g id="text_32">
      <!-- 0.34 -->
      <g transform="translate(483.407102 162.964609)scale(0.1 -0.1)">
       <use xlink:href="#DejaVuSans-48"/>
       <use x="63.623047" xlink:href="#DejaVuSans-46"/>
       <use x="95.410156" xlink:href="#DejaVuSans-51"/>
       <use x="159.033203" xlink:href="#DejaVuSans-52"/>
      </g>
     </g>
    </g>
    <g id="ytick_14">
     <g id="line2d_35">
      <g>
       <use style="stroke:#000000;stroke-width:0.8;" x="512.672727" xlink:href="#m6edfd8ad14" y="122.006738"/>
      </g>
     </g>
     <g id="text_33">
      <!-- 0.35 -->
      <g transform="translate(483.407102 125.805957)scale(0.1 -0.1)">
       <use xlink:href="#DejaVuSans-48"/>
       <use x="63.623047" xlink:href="#DejaVuSans-46"/>
       <use x="95.410156" xlink:href="#DejaVuSans-51"/>
       <use x="159.033203" xlink:href="#DejaVuSans-53"/>
      </g>
     </g>
    </g>
    <g id="ytick_15">
     <g id="line2d_36">
      <g>
       <use style="stroke:#000000;stroke-width:0.8;" x="512.672727" xlink:href="#m6edfd8ad14" y="84.848086"/>
      </g>
     </g>
     <g id="text_34">
      <!-- 0.36 -->
      <g transform="translate(483.407102 88.647304)scale(0.1 -0.1)">
       <use xlink:href="#DejaVuSans-48"/>
       <use x="63.623047" xlink:href="#DejaVuSans-46"/>
       <use x="95.410156" xlink:href="#DejaVuSans-51"/>
       <use x="159.033203" xlink:href="#DejaVuSans-54"/>
      </g>
     </g>
    </g>
    <g id="ytick_16">
     <g id="line2d_37">
      <g>
       <use style="stroke:#000000;stroke-width:0.8;" x="512.672727" xlink:href="#m6edfd8ad14" y="47.689433"/>
      </g>
     </g>
     <g id="text_35">
      <!-- 0.37 -->
      <g transform="translate(483.407102 51.488652)scale(0.1 -0.1)">
       <use xlink:href="#DejaVuSans-48"/>
       <use x="63.623047" xlink:href="#DejaVuSans-46"/>
       <use x="95.410156" xlink:href="#DejaVuSans-51"/>
       <use x="159.033203" xlink:href="#DejaVuSans-55"/>
      </g>
     </g>
    </g>
    <g id="text_36">
     <!-- Probability -->
     <g transform="translate(477.327415 208.228906)rotate(-90)scale(0.1 -0.1)">
      <use xlink:href="#DejaVuSans-80"/>
      <use x="58.552734" xlink:href="#DejaVuSans-114"/>
      <use x="97.416016" xlink:href="#DejaVuSans-111"/>
      <use x="158.597656" xlink:href="#DejaVuSans-98"/>
      <use x="222.074219" xlink:href="#DejaVuSans-97"/>
      <use x="283.353516" xlink:href="#DejaVuSans-98"/>
      <use x="346.830078" xlink:href="#DejaVuSans-105"/>
      <use x="374.613281" xlink:href="#DejaVuSans-108"/>
      <use x="402.396484" xlink:href="#DejaVuSans-105"/>
      <use x="430.179688" xlink:href="#DejaVuSans-116"/>
      <use x="469.388672" xlink:href="#DejaVuSans-121"/>
     </g>
    </g>
   </g>
   <g id="line2d_38">
    <path clip-path="url(#pf3220dd86d)" d="M 527.660331 307.8 
L 530.060748 307.674921 
L 532.461164 307.299886 
L 534.861581 306.675514 
L 537.261998 305.802851 
L 539.662415 304.683344 
L 542.062832 303.318863 
L 544.463249 301.711722 
L 547.163718 299.617029 
L 549.864187 297.22318 
L 552.564656 294.535331 
L 555.565178 291.21114 
L 558.565699 287.540188 
L 561.56622 283.532469 
L 564.866793 278.74818 
L 568.167367 273.585809 
L 571.767992 267.543558 
L 575.668669 260.542307 
L 579.869399 252.510954 
L 584.370181 243.391496 
L 589.171015 233.144976 
L 594.571953 221.074514 
L 600.873047 206.422095 
L 609.274507 186.271797 
L 626.077425 145.830428 
L 632.37852 131.316444 
L 637.779458 119.434265 
L 642.580292 109.425013 
L 646.781022 101.171403 
L 650.681699 93.984461 
L 654.282324 87.798905 
L 657.582898 82.536911 
L 660.883471 77.690448 
L 663.883992 73.664215 
L 666.884513 70.015663 
L 669.584983 67.06658 
L 672.285452 64.444213 
L 674.685869 62.394272 
L 677.086285 60.614238 
L 679.486702 59.108602 
L 681.887119 57.881166 
L 683.987484 57.037811 
L 686.087849 56.411434 
L 688.188214 56.00328 
L 690.288579 55.814143 
L 692.388943 55.844375 
L 694.489308 56.093909 
L 696.589673 56.562288 
L 698.690038 57.248598 
L 700.790403 58.151491 
L 703.19082 59.446312 
L 705.591237 61.01848 
L 707.991654 62.864017 
L 710.392071 64.978258 
L 713.09254 67.671365 
L 715.793009 70.689311 
L 718.493478 74.02253 
L 721.493999 78.083119 
L 724.49452 82.504278 
L 727.795093 87.763632 
L 731.395719 93.946513 
L 735.296396 101.13077 
L 739.497126 109.381792 
L 743.997908 118.746663 
L 748.798742 129.248047 
L 754.499732 142.272336 
L 761.700983 159.333742 
L 787.205413 220.339798 
L 792.906403 233.097534 
L 798.007289 243.969742 
L 802.508071 253.057862 
L 806.708801 261.056693 
L 810.609478 268.025118 
L 814.210103 274.034988 
L 817.810729 279.613975 
L 821.111302 284.330269 
L 824.411876 288.649757 
L 827.412397 292.220146 
L 827.412397 292.220146 
" style="fill:none;stroke:#1f77b4;stroke-linecap:square;stroke-width:1.5;"/>
   </g>
   <g id="line2d_39">
    <path clip-path="url(#pf3220dd86d)" d="M 527.660331 122.006738 
L 532.761217 133.335365 
L 538.762259 147.224794 
L 546.563614 165.877753 
L 565.76695 212.048242 
L 572.068044 226.487256 
L 577.468982 238.315438 
L 582.269816 248.303625 
L 586.770598 257.146707 
L 590.971328 264.892444 
L 594.872005 271.606393 
L 598.47263 277.36605 
L 601.773204 282.255913 
L 605.073777 286.755897 
L 608.074298 290.495827 
L 611.074819 293.890945 
L 614.075341 296.932068 
L 616.77581 299.359631 
L 619.476279 301.488577 
L 622.176748 303.31434 
L 624.577165 304.679537 
L 626.977582 305.799784 
L 629.377999 306.673203 
L 631.778416 307.298333 
L 634.178833 307.674126 
L 636.579249 307.799958 
L 638.979666 307.67562 
L 641.380083 307.301316 
L 643.7805 306.677673 
L 646.180917 305.805732 
L 648.581334 304.686954 
L 650.981751 303.323214 
L 653.382168 301.716809 
L 656.082637 299.622937 
L 658.783106 297.229883 
L 661.483575 294.542812 
L 664.484096 291.219464 
L 667.484618 287.549336 
L 670.485139 283.542429 
L 673.785712 278.759007 
L 677.086285 273.597465 
L 680.686911 267.556067 
L 684.587588 260.555673 
L 688.788318 252.52518 
L 693.2891 243.406553 
L 698.089934 233.160799 
L 703.490872 221.09106 
L 709.791966 206.439268 
L 718.193426 186.289431 
L 734.996344 145.847561 
L 741.297439 131.332915 
L 746.698377 119.449975 
L 751.499211 109.439897 
L 755.69994 101.185446 
L 759.600618 93.99764 
L 763.201243 87.811214 
L 766.501817 82.548365 
L 769.80239 77.701011 
L 772.802911 73.673928 
L 775.803432 70.024477 
L 778.503901 67.074538 
L 781.20437 64.451303 
L 783.604787 62.400568 
L 786.005204 60.619722 
L 788.405621 59.113247 
L 790.806038 57.884944 
L 792.906403 57.040823 
L 795.006768 56.413698 
L 797.107133 56.004783 
L 799.207498 55.814872 
L 801.307862 55.844333 
L 803.408227 56.093109 
L 805.508592 56.560718 
L 807.608957 57.246252 
L 809.709322 58.148389 
L 812.109739 59.442373 
L 814.510156 61.013697 
L 816.910573 62.858389 
L 819.31099 64.971812 
L 822.011459 67.664002 
L 824.711928 70.68105 
L 827.412397 74.013418 
L 827.412397 74.013418 
" style="fill:none;stroke:#ff7f0e;stroke-linecap:square;stroke-width:1.5;"/>
   </g>
   <g id="line2d_40">
    <path clip-path="url(#pf3220dd86d)" d="M 527.660331 122.006738 
L 532.461164 111.858128 
L 536.661894 103.463633 
L 540.562572 96.130783 
L 544.163197 89.798358 
L 547.763823 83.920412 
L 551.064396 78.959189 
L 554.064917 74.823436 
L 557.065438 71.060858 
L 559.765907 68.005708 
L 562.466376 65.274317 
L 565.166845 62.875356 
L 567.567262 61.028229 
L 569.967679 59.454471 
L 572.368096 58.158013 
L 574.468461 57.253663 
L 576.568826 56.565904 
L 578.669191 56.096062 
L 580.769556 55.845037 
L 582.86992 55.813333 
L 584.970285 56.001005 
L 587.07065 56.407679 
L 589.171015 57.032578 
L 591.27138 57.874494 
L 593.371744 58.931785 
L 595.772161 60.401207 
L 598.172578 62.145559 
L 600.572995 64.160432 
L 603.273464 66.744204 
L 605.973933 69.655748 
L 608.674403 72.885839 
L 611.674924 76.836014 
L 614.675445 81.15156 
L 617.976018 86.300798 
L 621.576644 92.371254 
L 625.177269 98.882107 
L 629.077947 106.391355 
L 633.278676 114.955109 
L 638.07951 125.269589 
L 643.480448 137.429856 
L 650.081595 152.891996 
L 659.683263 176.043638 
L 672.585504 207.097037 
L 679.18665 222.407884 
L 684.887641 235.07228 
L 689.688474 245.225422 
L 694.189256 254.244531 
L 698.389986 262.17184 
L 702.290663 269.068189 
L 705.891289 275.007056 
L 709.491914 280.511091 
L 712.792488 285.15551 
L 716.093061 289.400368 
L 719.093582 292.900766 
L 722.094103 296.049824 
L 724.794572 298.576563 
L 727.495041 300.806379 
L 730.19551 302.734467 
L 732.595927 304.191669 
L 734.996344 305.404745 
L 737.396761 306.371654 
L 739.797178 307.090776 
L 742.197595 307.560912 
L 744.598012 307.781275 
L 746.998429 307.751498 
L 749.398846 307.47163 
L 751.799263 306.942138 
L 754.19968 306.163907 
L 756.600097 305.138239 
L 759.000514 303.866851 
L 761.400931 302.351882 
L 763.801348 300.595886 
L 766.501817 298.336009 
L 769.202286 295.779726 
L 771.902755 292.932574 
L 774.903276 289.435503 
L 777.903797 285.596502 
L 781.20437 280.991228 
L 784.504944 276.000319 
L 788.105569 270.135721 
L 791.706195 263.856124 
L 795.606872 256.614973 
L 799.807602 248.346926 
L 804.308384 239.000736 
L 809.40927 227.876905 
L 815.11026 214.89302 
L 822.011459 198.60118 
L 827.412397 185.579912 
L 827.412397 185.579912 
" style="fill:none;stroke:#2ca02c;stroke-linecap:square;stroke-width:1.5;"/>
   </g>
   <g id="patch_9">
    <path d="M 512.672727 320.4 
L 512.672727 43.2 
" style="fill:none;stroke:#000000;stroke-linecap:square;stroke-linejoin:miter;stroke-width:0.8;"/>
   </g>
   <g id="patch_10">
    <path d="M 842.4 320.4 
L 842.4 43.2 
" style="fill:none;stroke:#000000;stroke-linecap:square;stroke-linejoin:miter;stroke-width:0.8;"/>
   </g>
   <g id="patch_11">
    <path d="M 512.672727 320.4 
L 842.4 320.4 
" style="fill:none;stroke:#000000;stroke-linecap:square;stroke-linejoin:miter;stroke-width:0.8;"/>
   </g>
   <g id="patch_12">
    <path d="M 512.672727 43.2 
L 842.4 43.2 
" style="fill:none;stroke:#000000;stroke-linecap:square;stroke-linejoin:miter;stroke-width:0.8;"/>
   </g>
   <g id="text_37">
    <!-- Probability distribution of strategies over time for column player -->
    <g transform="translate(484.497614 37.2)scale(0.12 -0.12)">
     <defs>
      <path d="M 48.78125 52.59375 
L 48.78125 44.1875 
Q 44.96875 46.296875 41.140625 47.34375 
Q 37.3125 48.390625 33.40625 48.390625 
Q 24.65625 48.390625 19.8125 42.84375 
Q 14.984375 37.3125 14.984375 27.296875 
Q 14.984375 17.28125 19.8125 11.734375 
Q 24.65625 6.203125 33.40625 6.203125 
Q 37.3125 6.203125 41.140625 7.25 
Q 44.96875 8.296875 48.78125 10.40625 
L 48.78125 2.09375 
Q 45.015625 0.34375 40.984375 -0.53125 
Q 36.96875 -1.421875 32.421875 -1.421875 
Q 20.0625 -1.421875 12.78125 6.34375 
Q 5.515625 14.109375 5.515625 27.296875 
Q 5.515625 40.671875 12.859375 48.328125 
Q 20.21875 56 33.015625 56 
Q 37.15625 56 41.109375 55.140625 
Q 45.0625 54.296875 48.78125 52.59375 
z
" id="DejaVuSans-99"/>
     </defs>
     <use xlink:href="#DejaVuSans-80"/>
     <use x="58.552734" xlink:href="#DejaVuSans-114"/>
     <use x="97.416016" xlink:href="#DejaVuSans-111"/>
     <use x="158.597656" xlink:href="#DejaVuSans-98"/>
     <use x="222.074219" xlink:href="#DejaVuSans-97"/>
     <use x="283.353516" xlink:href="#DejaVuSans-98"/>
     <use x="346.830078" xlink:href="#DejaVuSans-105"/>
     <use x="374.613281" xlink:href="#DejaVuSans-108"/>
     <use x="402.396484" xlink:href="#DejaVuSans-105"/>
     <use x="430.179688" xlink:href="#DejaVuSans-116"/>
     <use x="469.388672" xlink:href="#DejaVuSans-121"/>
     <use x="528.568359" xlink:href="#DejaVuSans-32"/>
     <use x="560.355469" xlink:href="#DejaVuSans-100"/>
     <use x="623.832031" xlink:href="#DejaVuSans-105"/>
     <use x="651.615234" xlink:href="#DejaVuSans-115"/>
     <use x="703.714844" xlink:href="#DejaVuSans-116"/>
     <use x="742.923828" xlink:href="#DejaVuSans-114"/>
     <use x="784.037109" xlink:href="#DejaVuSans-105"/>
     <use x="811.820312" xlink:href="#DejaVuSans-98"/>
     <use x="875.296875" xlink:href="#DejaVuSans-117"/>
     <use x="938.675781" xlink:href="#DejaVuSans-116"/>
     <use x="977.884766" xlink:href="#DejaVuSans-105"/>
     <use x="1005.667969" xlink:href="#DejaVuSans-111"/>
     <use x="1066.849609" xlink:href="#DejaVuSans-110"/>
     <use x="1130.228516" xlink:href="#DejaVuSans-32"/>
     <use x="1162.015625" xlink:href="#DejaVuSans-111"/>
     <use x="1223.197266" xlink:href="#DejaVuSans-102"/>
     <use x="1258.402344" xlink:href="#DejaVuSans-32"/>
     <use x="1290.189453" xlink:href="#DejaVuSans-115"/>
     <use x="1342.289062" xlink:href="#DejaVuSans-116"/>
     <use x="1381.498047" xlink:href="#DejaVuSans-114"/>
     <use x="1422.611328" xlink:href="#DejaVuSans-97"/>
     <use x="1483.890625" xlink:href="#DejaVuSans-116"/>
     <use x="1523.099609" xlink:href="#DejaVuSans-101"/>
     <use x="1584.623047" xlink:href="#DejaVuSans-103"/>
     <use x="1648.099609" xlink:href="#DejaVuSans-105"/>
     <use x="1675.882812" xlink:href="#DejaVuSans-101"/>
     <use x="1737.40625" xlink:href="#DejaVuSans-115"/>
     <use x="1789.505859" xlink:href="#DejaVuSans-32"/>
     <use x="1821.292969" xlink:href="#DejaVuSans-111"/>
     <use x="1882.474609" xlink:href="#DejaVuSans-118"/>
     <use x="1941.654297" xlink:href="#DejaVuSans-101"/>
     <use x="2003.177734" xlink:href="#DejaVuSans-114"/>
     <use x="2044.291016" xlink:href="#DejaVuSans-32"/>
     <use x="2076.078125" xlink:href="#DejaVuSans-116"/>
     <use x="2115.287109" xlink:href="#DejaVuSans-105"/>
     <use x="2143.070312" xlink:href="#DejaVuSans-109"/>
     <use x="2240.482422" xlink:href="#DejaVuSans-101"/>
     <use x="2302.005859" xlink:href="#DejaVuSans-32"/>
     <use x="2333.792969" xlink:href="#DejaVuSans-102"/>
     <use x="2368.998047" xlink:href="#DejaVuSans-111"/>
     <use x="2430.179688" xlink:href="#DejaVuSans-114"/>
     <use x="2471.292969" xlink:href="#DejaVuSans-32"/>
     <use x="2503.080078" xlink:href="#DejaVuSans-99"/>
     <use x="2558.060547" xlink:href="#DejaVuSans-111"/>
     <use x="2619.242188" xlink:href="#DejaVuSans-108"/>
     <use x="2647.025391" xlink:href="#DejaVuSans-117"/>
     <use x="2710.404297" xlink:href="#DejaVuSans-109"/>
     <use x="2807.816406" xlink:href="#DejaVuSans-110"/>
     <use x="2871.195312" xlink:href="#DejaVuSans-32"/>
     <use x="2902.982422" xlink:href="#DejaVuSans-112"/>
     <use x="2966.458984" xlink:href="#DejaVuSans-108"/>
     <use x="2994.242188" xlink:href="#DejaVuSans-97"/>
     <use x="3055.521484" xlink:href="#DejaVuSans-121"/>
     <use x="3114.701172" xlink:href="#DejaVuSans-101"/>
     <use x="3176.224609" xlink:href="#DejaVuSans-114"/>
    </g>
   </g>
   <g id="legend_2">
    <g id="patch_13">
     <path d="M 793.4 205.317187 
L 835.4 205.317187 
Q 837.4 205.317187 837.4 203.317187 
L 837.4 160.282812 
Q 837.4 158.282812 835.4 158.282812 
L 793.4 158.282812 
Q 791.4 158.282812 791.4 160.282812 
L 791.4 203.317187 
Q 791.4 205.317187 793.4 205.317187 
z
" style="fill:#ffffff;opacity:0.8;stroke:#cccccc;stroke-linejoin:miter;"/>
    </g>
    <g id="line2d_41">
     <path d="M 795.4 166.38125 
L 815.4 166.38125 
" style="fill:none;stroke:#1f77b4;stroke-linecap:square;stroke-width:1.5;"/>
    </g>
    <g id="line2d_42"/>
    <g id="text_38">
     <!-- $s_0$ -->
     <g transform="translate(823.4 169.88125)scale(0.1 -0.1)">
      <use xlink:href="#DejaVuSans-Oblique-115"/>
      <use transform="translate(52.099609 -16.40625)scale(0.7)" xlink:href="#DejaVuSans-48"/>
     </g>
    </g>
    <g id="line2d_43">
     <path d="M 795.4 181.059375 
L 815.4 181.059375 
" style="fill:none;stroke:#ff7f0e;stroke-linecap:square;stroke-width:1.5;"/>
    </g>
    <g id="line2d_44"/>
    <g id="text_39">
     <!-- $s_1$ -->
     <g transform="translate(823.4 184.559375)scale(0.1 -0.1)">
      <use xlink:href="#DejaVuSans-Oblique-115"/>
      <use transform="translate(52.099609 -16.40625)scale(0.7)" xlink:href="#DejaVuSans-49"/>
     </g>
    </g>
    <g id="line2d_45">
     <path d="M 795.4 195.7375 
L 815.4 195.7375 
" style="fill:none;stroke:#2ca02c;stroke-linecap:square;stroke-width:1.5;"/>
    </g>
    <g id="line2d_46"/>
    <g id="text_40">
     <!-- $s_2$ -->
     <g transform="translate(823.4 199.2375)scale(0.1 -0.1)">
      <use xlink:href="#DejaVuSans-Oblique-115"/>
      <use transform="translate(52.099609 -16.40625)scale(0.7)" xlink:href="#DejaVuSans-50"/>
     </g>
    </g>
   </g>
  </g>
 </g>
 <defs>
  <clipPath id="p95e1c29362">
   <rect height="277.2" width="329.727273" x="117" y="43.2"/>
  </clipPath>
  <clipPath id="pf3220dd86d">
   <rect height="277.2" width="329.727273" x="512.672727" y="43.2"/>
  </clipPath>
 </defs>
</svg>
